SplineFontDB: 3.2
FontName: NKL_Mikhak-Light
FullName: NKL Mikhak Light
FamilyName: NKL Mikhak Light
Weight: Light
Copyright: License: The Unlicensed\nModified for Jawi script only at 16.9.2021 by niskala5570@gmail.com
Version: 2.727 Jawi
ItalicAngle: 0
UnderlinePosition: 0
UnderlineWidth: 0
Ascent: 1638
Descent: 410
InvalidEm: 0
sfntRevision: 0x00010003
LayerCount: 2
Layer: 0 1 "Back" 1
Layer: 1 1 "Fore" 0
XUID: [1021 250 -1551560589 17068]
StyleMap: 0x0040
FSType: 0
OS2Version: 4
OS2_WeightWidthSlopeOnly: 0
OS2_UseTypoMetrics: 1
CreationTime: 1497005464
ModificationTime: 1631809964
PfmFamily: 17
TTFWeight: 300
TTFWidth: 5
LineGap: 0
VLineGap: 0
Panose: 2 0 3 3 0 0 0 0 0 0
OS2TypoAscent: 2238
OS2TypoAOffset: 0
OS2TypoDescent: -960
OS2TypoDOffset: 0
OS2TypoLinegap: 0
OS2WinAscent: 2185
OS2WinAOffset: 0
OS2WinDescent: 1170
OS2WinDOffset: 0
HheadAscent: 2185
HheadAOffset: 0
HheadDescent: -1170
HheadDOffset: 0
OS2SubXSize: 1277
OS2SubYSize: 1185
OS2SubXOff: 0
OS2SubYOff: 256
OS2SupXSize: 1277
OS2SupYSize: 1185
OS2SupXOff: 0
OS2SupYOff: 870
OS2StrikeYSize: 91
OS2StrikeYPos: 766
OS2CapHeight: 1400
OS2XHeight: 1012
OS2Vendor: 'AA68'
OS2CodePages: 00000041.00000000
OS2UnicodeRanges: 80002007.90000000.00000008.00000000
Lookup: 4 1 0 "'ccmp' Glyph Composition/Decomposition in Arabic lookup 0" { "'ccmp' Glyph Composition/Decomposition in Arabic lookup 0 subtable"  } ['ccmp' ('arab' <'FAR ' 'dflt' > ) ]
Lookup: 1 9 0 "Single Substitution lookup 1" { "Single Substitution lookup 1 subtable"  } []
Lookup: 2 9 0 "Multiple Substitution lookup 2" { "Multiple Substitution lookup 2 subtable"  } []
Lookup: 2 9 0 "Multiple Substitution lookup 3" { "Multiple Substitution lookup 3 subtable"  } []
Lookup: 1 9 0 "'fina' Terminal Forms in Arabic lookup 4" { "'fina' Terminal Forms in Arabic lookup 4 subtable"  } ['fina' ('arab' <'FAR ' 'dflt' > ) ]

StartChar: .notdef
Encoding: 0 -1 0
Width: 748
Flags: W
LayerCount: 2
Fore
SplineSet
68 0 m 1,0,-1
 68 1365 l 1,1,-1
 612 1365 l 1,2,-1
 612 0 l 1,3,-1
 68 0 l 1,0,-1
136 68 m 1,4,-1
 544 68 l 1,5,-1
 544 1297 l 1,6,-1
 136 1297 l 1,7,-1
 136 68 l 1,4,-1
EndSplineSet
EndChar

StartChar: exclam
Encoding: 4 33 4
Width: 583
GlyphClass: 2
Flags: W
LayerCount: 2
Fore
SplineSet
200 1354 m 0,0,1
 200 1356 200 1356 199.5 1358 c 128,-1,2
 199 1360 199 1360 199 1362 c 0,3,4
 199 1384 199 1384 214.5 1397 c 128,-1,5
 230 1410 230 1410 251 1410 c 0,6,7
 269 1410 269 1410 283 1399 c 128,-1,8
 297 1388 297 1388 300 1368 c 0,9,10
 345 1034 345 1034 345 547 c 0,11,12
 345 466 345 466 344 423 c 0,13,14
 344 400 344 400 329 388 c 128,-1,15
 314 376 314 376 294 376 c 128,-1,16
 274 376 274 376 259 388.5 c 128,-1,17
 244 401 244 401 244 424 c 0,18,19
 244 445 244 445 244.5 486.5 c 128,-1,20
 245 528 245 528 245 547 c 0,21,22
 245 1028 245 1028 200 1354 c 0,0,1
383 85 m 0,23,24
 383 51 383 51 360.5 23 c 128,-1,25
 338 -5 338 -5 298 -5 c 0,26,27
 262 -5 262 -5 231 17.5 c 128,-1,28
 200 40 200 40 200 84 c 0,29,30
 200 123 200 123 227.5 150.5 c 128,-1,31
 255 178 255 178 294 178 c 0,32,33
 334 178 334 178 358.5 149.5 c 128,-1,34
 383 121 383 121 383 85 c 0,23,24
EndSplineSet
EndChar

StartChar: numbersign
Encoding: 6 35 6
Width: 1734
GlyphClass: 2
Flags: W
LayerCount: 2
Fore
SplineSet
1174 899 m 1,0,-1
 705 885 l 1,1,-1
 599 529 l 1,2,-1
 1100 511 l 1,3,-1
 1174 899 l 1,0,-1
436 -14 m 2,4,5
 426 -49 426 -49 390 -49 c 0,6,7
 369 -49 369 -49 353.5 -36 c 128,-1,8
 338 -23 338 -23 338 -2 c 0,9,10
 338 9 338 9 340 14 c 2,11,-1
 466 434 l 1,12,-1
 158 446 l 2,13,14
 136 447 136 447 124 461 c 128,-1,15
 112 475 112 475 112 495 c 128,-1,16
 112 515 112 515 124.5 530.5 c 128,-1,17
 137 546 137 546 160 546 c 2,18,-1
 162 546 l 1,19,-1
 495 533 l 1,20,-1
 600 882 l 1,21,-1
 253 872 l 1,22,-1
 251 872 l 2,23,24
 229 872 229 872 216.5 887 c 128,-1,25
 204 902 204 902 204 922 c 128,-1,26
 204 942 204 942 216 956.5 c 128,-1,27
 228 971 228 971 251 972 c 2,28,-1
 630 983 l 1,29,-1
 747 1375 l 2,30,31
 757 1410 757 1410 793 1410 c 0,32,33
 814 1410 814 1410 829.5 1397 c 128,-1,34
 845 1384 845 1384 845 1363 c 0,35,36
 845 1352 845 1352 843 1347 c 2,37,-1
 735 986 l 1,38,-1
 1193 1000 l 1,39,-1
 1264 1370 l 2,40,41
 1268 1389 1268 1389 1281.5 1399 c 128,-1,42
 1295 1409 1295 1409 1312 1409 c 0,43,44
 1332 1409 1332 1409 1347.5 1396 c 128,-1,45
 1363 1383 1363 1383 1363 1362 c 0,46,47
 1363 1356 1363 1356 1362 1352 c 2,48,-1
 1295 1003 l 1,49,-1
 1573 1011 l 1,50,-1
 1575 1011 l 2,51,52
 1597 1011 1597 1011 1609.5 996 c 128,-1,53
 1622 981 1622 981 1622 961 c 128,-1,54
 1622 941 1622 941 1610 926.5 c 128,-1,55
 1598 912 1598 912 1575 911 c 2,56,-1
 1276 902 l 1,57,-1
 1201 507 l 1,58,-1
 1512 495 l 2,59,60
 1534 494 1534 494 1546 480 c 128,-1,61
 1558 466 1558 466 1558 446 c 128,-1,62
 1558 426 1558 426 1545.5 410.5 c 128,-1,63
 1533 395 1533 395 1510 395 c 2,64,-1
 1508 395 l 1,65,-1
 1182 407 l 1,66,-1
 1102 -9 l 2,67,68
 1098 -28 1098 -28 1084.5 -38 c 128,-1,69
 1071 -48 1071 -48 1054 -48 c 0,70,71
 1034 -48 1034 -48 1018.5 -35 c 128,-1,72
 1003 -22 1003 -22 1003 -1 c 0,73,74
 1003 5 1003 5 1004 9 c 2,75,-1
 1081 411 l 1,76,-1
 569 431 l 1,77,-1
 436 -14 l 2,4,5
EndSplineSet
EndChar

StartChar: dollar
Encoding: 7 36 7
Width: 1182
GlyphClass: 2
Flags: W
LayerCount: 2
Fore
SplineSet
575 1669 m 128,-1,1
 595 1669 595 1669 610 1654 c 128,-1,2
 625 1639 625 1639 625 1619 c 2,3,-1
 625 -142 l 2,4,5
 625 -162 625 -162 610 -177 c 128,-1,6
 595 -192 595 -192 575 -192 c 128,-1,7
 555 -192 555 -192 540 -177 c 128,-1,8
 525 -162 525 -162 525 -142 c 2,9,-1
 525 1619 l 2,10,11
 525 1639 525 1639 540 1654 c 128,-1,0
 555 1669 555 1669 575 1669 c 128,-1,1
985 1274 m 0,12,13
 1010 1260 1010 1260 1010 1233 c 0,14,15
 1010 1212 1010 1212 995.5 1195.5 c 128,-1,16
 981 1179 981 1179 961 1179 c 0,17,18
 948 1179 948 1179 937 1186 c 0,19,20
 792 1266 792 1266 619 1266 c 0,21,22
 451 1266 451 1266 333 1178.5 c 128,-1,23
 215 1091 215 1091 215 960 c 0,24,25
 215 918 215 918 241.5 882.5 c 128,-1,26
 268 847 268 847 324 817.5 c 128,-1,27
 380 788 380 788 441 765 c 128,-1,28
 502 742 502 742 596 714 c 0,29,30
 783 658 783 658 860 621 c 0,31,32
 1061 524 1061 524 1071 362 c 0,33,34
 1072 353 1072 353 1072 343 c 0,35,36
 1072 248 1072 248 1028 177.5 c 128,-1,37
 984 107 984 107 910 69 c 128,-1,38
 836 31 836 31 753 13 c 128,-1,39
 670 -5 670 -5 578 -5 c 0,40,41
 455 -5 455 -5 337.5 21.5 c 128,-1,42
 220 48 220 48 136 94 c 0,43,44
 111 108 111 108 111 135 c 0,45,46
 111 156 111 156 125.5 172.5 c 128,-1,47
 140 189 140 189 160 189 c 0,48,49
 173 189 173 189 184 182 c 0,50,51
 253 144 253 144 361 119.5 c 128,-1,52
 469 95 469 95 578 95 c 0,53,54
 756 95 756 95 864 157 c 128,-1,55
 972 219 972 219 972 343 c 0,56,57
 972 384 972 384 951 418.5 c 128,-1,58
 930 453 930 453 897.5 479 c 128,-1,59
 865 505 865 505 808.5 531 c 128,-1,60
 752 557 752 557 699.5 575.5 c 128,-1,61
 647 594 647 594 568 618 c 0,62,63
 387 672 387 672 316 705 c 0,64,65
 126 794 126 794 116 941 c 0,66,67
 115 950 115 950 115 960 c 0,68,69
 115 1035 115 1035 143.5 1100.5 c 128,-1,70
 172 1166 172 1166 221 1214 c 128,-1,71
 270 1262 270 1262 334 1297 c 128,-1,72
 398 1332 398 1332 471 1349 c 128,-1,73
 544 1366 544 1366 619 1366 c 0,74,75
 822 1366 822 1366 985 1274 c 0,12,13
EndSplineSet
EndChar

StartChar: percent
Encoding: 8 37 8
Width: 1348
GlyphClass: 2
Flags: W
LayerCount: 2
Fore
SplineSet
432 -12 m 0,0,1
 422 -48 422 -48 385 -48 c 0,2,3
 364 -48 364 -48 348 -35 c 128,-1,4
 332 -22 332 -22 332 -1 c 0,5,6
 332 2 332 2 334 12 c 0,7,8
 385 213 385 213 452 398.5 c 128,-1,9
 519 584 519 584 608.5 765 c 128,-1,10
 698 946 698 946 767.5 1071 c 128,-1,11
 837 1196 837 1196 950 1387 c 0,12,13
 964 1411 964 1411 990 1411 c 0,14,15
 1011 1411 1011 1411 1027 1396.5 c 128,-1,16
 1043 1382 1043 1382 1043 1361 c 0,17,18
 1043 1348 1043 1348 1036 1335 c 0,19,20
 946 1184 946 1184 891.5 1088 c 128,-1,21
 837 992 837 992 760.5 845.5 c 128,-1,22
 684 699 684 699 632 578.5 c 128,-1,23
 580 458 580 458 526 302.5 c 128,-1,24
 472 147 472 147 432 -12 c 0,0,1
967 136 m 0,25,26
 1034 136 1034 136 1086 180.5 c 128,-1,27
 1138 225 1138 225 1138 283 c 0,28,29
 1138 343 1138 343 1092.5 383.5 c 128,-1,30
 1047 424 1047 424 979 424 c 0,31,32
 913 424 913 424 878 390.5 c 128,-1,33
 843 357 843 357 843 293 c 0,34,35
 843 226 843 226 881 181 c 128,-1,36
 919 136 919 136 967 136 c 0,25,26
967 36 m 0,37,38
 870 36 870 36 806.5 113 c 128,-1,39
 743 190 743 190 743 293 c 128,-1,40
 743 396 743 396 809.5 460 c 128,-1,41
 876 524 876 524 979 524 c 0,42,43
 1083 524 1083 524 1160.5 456 c 128,-1,44
 1238 388 1238 388 1238 283 c 0,45,46
 1238 177 1238 177 1154.5 106.5 c 128,-1,47
 1071 36 1071 36 967 36 c 0,37,38
210 1158 m 0,48,49
 210 1092 210 1092 254.5 1040 c 128,-1,50
 299 988 299 988 357 988 c 0,51,52
 417 988 417 988 457 1033 c 128,-1,53
 497 1078 497 1078 497 1145 c 0,54,55
 497 1211 497 1211 464 1246 c 128,-1,56
 431 1281 431 1281 367 1281 c 0,57,58
 300 1281 300 1281 255 1243.5 c 128,-1,59
 210 1206 210 1206 210 1158 c 0,48,49
110 1158 m 0,60,61
 110 1255 110 1255 187.5 1318 c 128,-1,62
 265 1381 265 1381 367 1381 c 0,63,64
 470 1381 470 1381 533.5 1314.5 c 128,-1,65
 597 1248 597 1248 597 1145 c 0,66,67
 597 1041 597 1041 529.5 964.5 c 128,-1,68
 462 888 462 888 357 888 c 0,69,70
 251 888 251 888 180.5 971 c 128,-1,71
 110 1054 110 1054 110 1158 c 0,60,61
EndSplineSet
EndChar

StartChar: ampersand
Encoding: 9 38 9
Width: 1194
GlyphClass: 2
Flags: W
LayerCount: 2
Fore
SplineSet
913 1095 m 0,0,1
 913 1042 913 1042 900 995.5 c 128,-1,2
 887 949 887 949 868.5 915 c 128,-1,3
 850 881 850 881 816.5 848.5 c 128,-1,4
 783 816 783 816 754.5 795 c 128,-1,5
 726 774 726 774 680.5 749.5 c 128,-1,6
 635 725 635 725 605 712 c 128,-1,7
 575 699 575 699 525 678 c 128,-1,8
 475 657 475 657 451 646 c 1,9,10
 533 525 533 525 650.5 408.5 c 128,-1,11
 768 292 768 292 894 198 c 1,12,13
 954 241 954 241 981 293 c 0,14,15
 995 319 995 319 1022 319 c 0,16,17
 1042 319 1042 319 1058.5 304.5 c 128,-1,18
 1075 290 1075 290 1075 270 c 0,19,20
 1075 259 1075 259 1069 247 c 0,21,22
 1036 186 1036 186 979 138 c 1,23,24
 1022 109 1022 109 1059 88 c 0,25,26
 1083 74 1083 74 1083 48 c 0,27,28
 1083 28 1083 28 1068.5 11.5 c 128,-1,29
 1054 -5 1054 -5 1034 -5 c 0,30,31
 1022 -5 1022 -5 1009 2 c 0,32,33
 958 31 958 31 890 78 c 1,34,35
 735 -5 735 -5 549 -5 c 0,36,37
 465 -5 465 -5 389 16.5 c 128,-1,38
 313 38 313 38 249.5 80.5 c 128,-1,39
 186 123 186 123 148 196 c 128,-1,40
 110 269 110 269 110 364 c 0,41,42
 110 567 110 567 309 686 c 1,43,44
 207 870 207 870 207 1033 c 0,45,46
 207 1125 207 1125 238.5 1199 c 128,-1,47
 270 1273 270 1273 322 1318 c 128,-1,48
 374 1363 374 1363 437.5 1387 c 128,-1,49
 501 1411 501 1411 569 1411 c 0,50,51
 655 1411 655 1411 732 1376 c 128,-1,52
 809 1341 809 1341 861 1267 c 128,-1,53
 913 1193 913 1193 913 1095 c 0,0,1
398 732 m 1,54,-1
 488 771 l 2,55,56
 536 791 536 791 563.5 803.5 c 128,-1,57
 591 816 591 816 630.5 836.5 c 128,-1,58
 670 857 670 857 692.5 873.5 c 128,-1,59
 715 890 715 890 741.5 915 c 128,-1,60
 768 940 768 940 781 965 c 128,-1,61
 794 990 794 990 803.5 1023.5 c 128,-1,62
 813 1057 813 1057 813 1095 c 0,63,64
 813 1193 813 1193 741.5 1252 c 128,-1,65
 670 1311 670 1311 569 1311 c 0,66,67
 460 1311 460 1311 383.5 1240.5 c 128,-1,68
 307 1170 307 1170 307 1033 c 0,69,70
 307 894 307 894 398 732 c 1,54,-1
361 600 m 1,71,72
 285 556 285 556 247.5 502 c 128,-1,73
 210 448 210 448 210 364 c 0,74,75
 210 230 210 230 303.5 162.5 c 128,-1,76
 397 95 397 95 549 95 c 0,77,78
 679 95 679 95 798 145 c 1,79,80
 521 359 521 359 361 600 c 1,71,72
EndSplineSet
EndChar

StartChar: quotesingle
Encoding: 10 39 10
Width: 331
GlyphClass: 2
Flags: W
LayerCount: 2
Fore
SplineSet
195 906 m 0,0,1
 192 876 192 876 161 876 c 0,2,3
 146 876 146 876 135.5 884.5 c 128,-1,4
 125 893 125 893 125 909 c 0,5,6
 125 940 125 940 130.5 1012.5 c 128,-1,7
 136 1085 136 1085 136 1126 c 0,8,9
 136 1166 136 1166 130.5 1246 c 128,-1,10
 125 1326 125 1326 125 1362 c 0,11,12
 125 1378 125 1378 135.5 1386.5 c 128,-1,13
 146 1395 146 1395 160 1395 c 0,14,15
 173 1395 173 1395 183.5 1387 c 128,-1,16
 194 1379 194 1379 195 1364 c 0,17,18
 206 1246 206 1246 206 1126 c 0,19,20
 206 1008 206 1008 195 906 c 0,0,1
EndSplineSet
EndChar

StartChar: parenleft
Encoding: 11 40 11
Width: 636
GlyphClass: 2
Flags: W
LayerCount: 2
Fore
SplineSet
330 1434 m 0,0,1
 343 1461 343 1461 372 1461 c 0,2,3
 392 1461 392 1461 408.5 1446.5 c 128,-1,4
 425 1432 425 1432 425 1412 c 0,5,6
 425 1400 425 1400 420 1390 c 0,7,8
 329 1203 329 1203 297 1051.5 c 128,-1,9
 265 900 265 900 265 682 c 0,10,11
 265 550 265 550 291 430 c 128,-1,12
 317 310 317 310 354 219.5 c 128,-1,13
 391 129 391 129 466 -24 c 0,14,15
 471 -34 471 -34 471 -46 c 0,16,17
 471 -66 471 -66 454.5 -80.5 c 128,-1,18
 438 -95 438 -95 418 -95 c 0,19,20
 389 -95 389 -95 376 -68 c 0,21,22
 264 162 264 162 214.5 320.5 c 128,-1,23
 165 479 165 479 165 682 c 0,24,25
 165 907 165 907 200 1072.5 c 128,-1,26
 235 1238 235 1238 330 1434 c 0,0,1
EndSplineSet
EndChar

StartChar: asterisk
Encoding: 13 42 13
Width: 1108
GlyphClass: 2
Flags: W
LayerCount: 2
Fore
SplineSet
200 620 m 0,0,1
 179 620 179 620 164.5 634.5 c 128,-1,2
 150 649 150 649 150 670 c 0,3,4
 150 694 150 694 168 709 c 0,5,6
 304 821 304 821 454 914 c 1,7,8
 305 993 305 993 143 1054 c 0,9,10
 112 1065 112 1065 112 1098 c 0,11,12
 112 1118 112 1118 126 1135 c 128,-1,13
 140 1152 140 1152 160 1152 c 0,14,15
 166 1152 166 1152 178 1148 c 0,16,17
 347 1084 347 1084 503 1001 c 1,18,19
 497 1172 497 1172 468 1336 c 0,20,21
 467 1339 467 1339 467 1346 c 0,22,23
 467 1368 467 1368 482.5 1381 c 128,-1,24
 498 1394 498 1394 519 1394 c 0,25,26
 536 1394 536 1394 549 1383.5 c 128,-1,27
 562 1373 562 1373 566 1354 c 0,28,29
 597 1178 597 1178 603 1000 c 1,30,31
 767 1087 767 1087 931 1148 c 0,32,33
 943 1152 943 1152 949 1152 c 0,34,35
 969 1152 969 1152 983 1135 c 128,-1,36
 997 1118 997 1118 997 1098 c 0,37,38
 997 1065 997 1065 966 1054 c 0,39,40
 796 990 796 990 654 914 c 1,41,42
 800 823 800 823 939 709 c 0,43,44
 957 694 957 694 957 670 c 0,45,46
 957 649 957 649 942.5 634.5 c 128,-1,47
 928 620 928 620 907 620 c 0,48,49
 889 620 889 620 875 631 c 0,50,51
 746 737 746 737 603 828 c 1,52,53
 597 657 597 657 566 474 c 0,54,55
 559 434 559 434 518 434 c 0,56,57
 498 434 498 434 482.5 446.5 c 128,-1,58
 467 459 467 459 467 480 c 0,59,60
 467 487 467 487 468 490 c 0,61,62
 496 655 496 655 502 826 c 1,63,64
 366 741 366 741 232 631 c 0,65,66
 218 620 218 620 200 620 c 0,0,1
EndSplineSet
EndChar

StartChar: plus
Encoding: 14 43 14
Width: 1033
GlyphClass: 2
Flags: W
LayerCount: 2
Fore
SplineSet
166 591 m 1,0,-1
 159 591 l 2,1,2
 138 591 138 591 125 606 c 128,-1,3
 112 621 112 621 112 642 c 0,4,5
 112 685 112 685 154 691 c 0,6,7
 283 707 283 707 461 714 c 1,8,9
 450 898 450 898 418 1042 c 0,10,11
 417 1046 417 1046 417 1054 c 0,12,13
 417 1076 417 1076 432.5 1089 c 128,-1,14
 448 1102 448 1102 469 1102 c 0,15,16
 507 1102 507 1102 516 1064 c 0,17,18
 550 914 550 914 561 717 c 1,19,-1
 618 717 l 2,20,21
 744 717 744 717 875 711 c 0,22,23
 897 710 897 710 909 695.5 c 128,-1,24
 921 681 921 681 921 661 c 128,-1,25
 921 641 921 641 909 626 c 128,-1,26
 897 611 897 611 874 611 c 2,27,-1
 871 611 l 1,28,29
 744 617 744 617 618 617 c 2,30,-1
 565 617 l 1,31,32
 565 608 565 608 565.5 591 c 128,-1,33
 566 574 566 574 566 566 c 0,34,35
 566 368 566 368 534 277 c 0,36,37
 523 244 523 244 489 244 c 0,38,39
 469 244 469 244 453 257.5 c 128,-1,40
 437 271 437 271 437 292 c 0,41,42
 437 300 437 300 440 309 c 0,43,44
 466 384 466 384 466 566 c 0,45,46
 466 574 466 574 465.5 590 c 128,-1,47
 465 606 465 606 465 614 c 1,48,49
 326 610 326 610 166 591 c 1,0,-1
EndSplineSet
EndChar

StartChar: comma
Encoding: 15 44 15
Width: 478
GlyphClass: 2
Flags: W
LayerCount: 2
Fore
SplineSet
155 -232 m 2,0,1
 141 -256 141 -256 115 -256 c 0,2,3
 95 -256 95 -256 78.5 -241.5 c 128,-1,4
 62 -227 62 -227 62 -207 c 0,5,6
 62 -195 62 -195 69 -182 c 2,7,-1
 299 214 l 2,8,9
 313 238 313 238 339 238 c 0,10,11
 359 238 359 238 375.5 223.5 c 128,-1,12
 392 209 392 209 392 189 c 0,13,14
 392 177 392 177 385 164 c 2,15,-1
 155 -232 l 2,0,1
EndSplineSet
EndChar

StartChar: hyphen
Encoding: 16 45 16
Width: 1037
GlyphClass: 2
Flags: W
LayerCount: 2
Fore
SplineSet
164 387 m 1,0,-1
 159 387 l 2,1,2
 138 387 138 387 125 402 c 128,-1,3
 112 417 112 417 112 437 c 0,4,5
 112 456 112 456 123.5 470.5 c 128,-1,6
 135 485 135 485 156 487 c 0,7,8
 434 511 434 511 877 511 c 0,9,10
 897 511 897 511 912 496 c 128,-1,11
 927 481 927 481 927 461 c 128,-1,12
 927 441 927 441 912 426 c 128,-1,13
 897 411 897 411 877 411 c 0,14,15
 438 411 438 411 164 387 c 1,0,-1
EndSplineSet
EndChar

StartChar: period
Encoding: 17 46 17
Width: 399
GlyphClass: 2
Flags: W
LayerCount: 2
Fore
SplineSet
116 97 m 0,0,1
 116 129 116 129 143.5 151 c 128,-1,2
 171 173 171 173 208 173 c 0,3,4
 244 173 244 173 264 151 c 128,-1,5
 284 129 284 129 284 92 c 0,6,7
 284 54 284 54 261.5 27 c 128,-1,8
 239 0 239 0 203 0 c 128,-1,9
 167 0 167 0 141.5 30 c 128,-1,10
 116 60 116 60 116 97 c 0,0,1
EndSplineSet
EndChar

StartChar: slash
Encoding: 18 47 18
Width: 965
GlyphClass: 2
Flags: W
LayerCount: 2
Fore
SplineSet
243 -26 m 0,0,1
 229 -49 229 -49 203 -49 c 0,2,3
 182 -49 182 -49 166 -34.5 c 128,-1,4
 150 -20 150 -20 150 1 c 0,5,6
 150 13 150 13 157 26 c 0,7,8
 582 733 582 733 716 1371 c 0,9,10
 723 1409 723 1409 763 1409 c 0,11,12
 784 1409 784 1409 799.5 1396 c 128,-1,13
 815 1383 815 1383 815 1362 c 0,14,15
 815 1355 815 1355 814 1351 c 0,16,17
 676 692 676 692 243 -26 c 0,0,1
EndSplineSet
EndChar

StartChar: zero
Encoding: 19 48 19
Width: 1141
GlyphClass: 2
Flags: W
LayerCount: 2
Fore
SplineSet
210 516 m 0,0,1
 210 95 210 95 490 95 c 0,2,3
 570 95 570 95 637 126.5 c 128,-1,4
 704 158 704 158 751.5 214 c 128,-1,5
 799 270 799 270 834 343 c 128,-1,6
 869 416 869 416 890 505 c 128,-1,7
 911 594 911 594 921 685 c 128,-1,8
 931 776 931 776 931 873 c 0,9,10
 931 1063 931 1063 843.5 1187 c 128,-1,11
 756 1311 756 1311 600 1311 c 0,12,13
 518 1311 518 1311 450.5 1260.5 c 128,-1,14
 383 1210 383 1210 339.5 1129 c 128,-1,15
 296 1048 296 1048 266 942 c 128,-1,16
 236 836 236 836 223 729 c 128,-1,17
 210 622 210 622 210 516 c 0,0,1
110 516 m 0,18,19
 110 590 110 590 116 666.5 c 128,-1,20
 122 743 122 743 137 832.5 c 128,-1,21
 152 922 152 922 175.5 1002.5 c 128,-1,22
 199 1083 199 1083 238 1159 c 128,-1,23
 277 1235 277 1235 326.5 1290 c 128,-1,24
 376 1345 376 1345 446.5 1378 c 128,-1,25
 517 1411 517 1411 600 1411 c 0,26,27
 686 1411 686 1411 758 1380.5 c 128,-1,28
 830 1350 830 1350 879.5 1298.5 c 128,-1,29
 929 1247 929 1247 964 1178 c 128,-1,30
 999 1109 999 1109 1015 1032 c 128,-1,31
 1031 955 1031 955 1031 873 c 0,32,33
 1031 790 1031 790 1024 708.5 c 128,-1,34
 1017 627 1017 627 999.5 538.5 c 128,-1,35
 982 450 982 450 955.5 373 c 128,-1,36
 929 296 929 296 886 225.5 c 128,-1,37
 843 155 843 155 788 104.5 c 128,-1,38
 733 54 733 54 657 24.5 c 128,-1,39
 581 -5 581 -5 490 -5 c 0,40,41
 403 -5 403 -5 335.5 26 c 128,-1,42
 268 57 268 57 226.5 106.5 c 128,-1,43
 185 156 185 156 158 226 c 128,-1,44
 131 296 131 296 120.5 366.5 c 128,-1,45
 110 437 110 437 110 516 c 0,18,19
EndSplineSet
EndChar

StartChar: one
Encoding: 20 49 20
Width: 616
GlyphClass: 2
Flags: W
LayerCount: 2
Fore
SplineSet
429 -3 m 2,0,1
 428 -25 428 -25 413.5 -36.5 c 128,-1,2
 399 -48 399 -48 380 -48 c 0,3,4
 359 -48 359 -48 343.5 -34 c 128,-1,5
 328 -20 328 -20 329 3 c 2,6,-1
 401 1230 l 1,7,8
 297 1140 297 1140 185 1075 c 0,9,10
 172 1068 172 1068 160 1068 c 0,11,12
 140 1068 140 1068 125.5 1084.5 c 128,-1,13
 111 1101 111 1101 111 1121 c 0,14,15
 111 1147 111 1147 135 1161 c 0,16,17
 261 1235 261 1235 388 1353 c 0,18,19
 401 1366 401 1366 422 1366 c 2,20,-1
 456 1366 l 2,21,22
 477 1366 477 1366 492 1350 c 128,-1,23
 507 1334 507 1334 506 1313 c 2,24,-1
 429 -3 l 2,0,1
EndSplineSet
EndChar

StartChar: two
Encoding: 21 50 21
Width: 1171
GlyphClass: 2
Flags: W
LayerCount: 2
Fore
SplineSet
208 824 m 128,-1,1
 188 824 188 824 173 839 c 128,-1,2
 158 854 158 854 158 874 c 0,3,4
 158 1002 158 1002 212 1113.5 c 128,-1,5
 266 1225 266 1225 371 1295.5 c 128,-1,6
 476 1366 476 1366 609 1366 c 0,7,8
 697 1366 697 1366 772.5 1334 c 128,-1,9
 848 1302 848 1302 897.5 1249.5 c 128,-1,10
 947 1197 947 1197 975 1129.5 c 128,-1,11
 1003 1062 1003 1062 1003 991 c 0,12,13
 1003 940 1003 940 990 888.5 c 128,-1,14
 977 837 977 837 958.5 795 c 128,-1,15
 940 753 940 753 903.5 701.5 c 128,-1,16
 867 650 867 650 838 615 c 128,-1,17
 809 580 809 580 755 526 c 128,-1,18
 701 472 701 472 668 441 c 128,-1,19
 635 410 635 410 571 352 c 2,20,-1
 302 107 l 1,21,22
 456 117 456 117 626 117 c 0,23,24
 775 117 775 117 1013 106 c 0,25,26
 1035 105 1035 105 1047 90.5 c 128,-1,27
 1059 76 1059 76 1059 56 c 128,-1,28
 1059 36 1059 36 1047 21 c 128,-1,29
 1035 6 1035 6 1012 6 c 2,30,-1
 1009 6 l 1,31,32
 771 17 771 17 626 17 c 0,33,34
 375 17 375 17 165 -5 c 1,35,-1
 161 -5 l 2,36,37
 141 -5 141 -5 125.5 11 c 128,-1,38
 110 27 110 27 110 47 c 128,-1,39
 110 67 110 67 126 82 c 2,40,-1
 503 426 l 2,41,42
 584 500 584 500 636 550.5 c 128,-1,43
 688 601 688 601 744 663.5 c 128,-1,44
 800 726 800 726 831 775.5 c 128,-1,45
 862 825 862 825 882.5 881 c 128,-1,46
 903 937 903 937 903 991 c 0,47,48
 903 1061 903 1061 869.5 1123 c 128,-1,49
 836 1185 836 1185 767.5 1225.5 c 128,-1,50
 699 1266 699 1266 609 1266 c 0,51,52
 455 1266 455 1266 356.5 1151.5 c 128,-1,53
 258 1037 258 1037 258 874 c 0,54,55
 258 854 258 854 243 839 c 128,-1,0
 228 824 228 824 208 824 c 128,-1,1
EndSplineSet
EndChar

StartChar: three
Encoding: 22 51 22
Width: 1078
GlyphClass: 2
Flags: W
LayerCount: 2
Fore
SplineSet
110 156 m 0,0,1
 110 177 110 177 124.5 191.5 c 128,-1,2
 139 206 139 206 160 206 c 0,3,4
 178 206 178 206 192 195 c 0,5,6
 313 95 313 95 484 95 c 0,7,8
 651 95 651 95 759 186.5 c 128,-1,9
 867 278 867 278 868 432 c 0,10,11
 865 502 865 502 827.5 546 c 128,-1,12
 790 590 790 590 728.5 610 c 128,-1,13
 667 630 667 630 571 638 c 0,14,15
 547 640 547 640 534 640 c 0,16,17
 507 640 507 640 481 637.5 c 128,-1,18
 455 635 455 635 414.5 628.5 c 128,-1,19
 374 622 374 622 368 621 c 0,20,21
 366 621 366 621 364 620.5 c 128,-1,22
 362 620 362 620 360 620 c 0,23,24
 339 620 339 620 326 635.5 c 128,-1,25
 313 651 313 651 313 671 c 0,26,27
 313 689 313 689 323 702.5 c 128,-1,28
 333 716 333 716 352 720 c 0,29,30
 373 724 373 724 424.5 732 c 128,-1,31
 476 740 476 740 514 747 c 128,-1,32
 552 754 552 754 583 762 c 0,33,34
 700 793 700 793 760 843.5 c 128,-1,35
 820 894 820 894 820 978 c 0,36,37
 820 1055 820 1055 800.5 1112.5 c 128,-1,38
 781 1170 781 1170 746.5 1202.5 c 128,-1,39
 712 1235 712 1235 671 1250.5 c 128,-1,40
 630 1266 630 1266 581 1266 c 0,41,42
 478 1266 478 1266 388 1199.5 c 128,-1,43
 298 1133 298 1133 274 1026 c 0,44,45
 265 988 265 988 227 988 c 0,46,47
 206 988 206 988 190.5 1001 c 128,-1,48
 175 1014 175 1014 175 1036 c 0,49,50
 175 1044 175 1044 176 1048 c 0,51,52
 198 1144 198 1144 262 1218 c 128,-1,53
 326 1292 326 1292 409.5 1329 c 128,-1,54
 493 1366 493 1366 581 1366 c 0,55,56
 723 1366 723 1366 821.5 1265 c 128,-1,57
 920 1164 920 1164 920 978 c 0,58,59
 920 800 920 800 736 711 c 1,60,61
 838 682 838 682 901 614 c 128,-1,62
 964 546 964 546 968 434 c 0,63,64
 968 333 968 333 928.5 249 c 128,-1,65
 889 165 889 165 822 110 c 128,-1,66
 755 55 755 55 668 25 c 128,-1,67
 581 -5 581 -5 484 -5 c 0,68,69
 277 -5 277 -5 128 117 c 0,70,71
 110 132 110 132 110 156 c 0,0,1
EndSplineSet
EndChar

StartChar: four
Encoding: 23 52 23
Width: 1268
GlyphClass: 2
Flags: W
LayerCount: 2
Fore
SplineSet
784 930 m 2,0,1
 786 951 786 951 799.5 961.5 c 128,-1,2
 813 972 813 972 832 972 c 0,3,4
 853 972 853 972 868.5 959 c 128,-1,5
 884 946 884 946 884 924 c 2,6,-1
 884 918 l 1,7,-1
 821 373 l 1,8,9
 946 393 946 393 1096 430 c 0,10,11
 1104 432 1104 432 1109 432 c 0,12,13
 1130 432 1130 432 1143.5 415.5 c 128,-1,14
 1157 399 1157 399 1157 378 c 0,15,16
 1157 341 1157 341 1120 332 c 0,17,18
 968 295 968 295 809 270 c 1,19,-1
 778 -6 l 2,20,21
 776 -27 776 -27 762.5 -37.5 c 128,-1,22
 749 -48 749 -48 730 -48 c 0,23,24
 709 -48 709 -48 693.5 -35 c 128,-1,25
 678 -22 678 -22 678 0 c 2,26,-1
 678 6 l 1,27,-1
 707 256 l 1,28,29
 529 234 529 234 368 234 c 0,30,31
 297 234 297 234 237 242 c 0,32,33
 211 245 211 245 185 254 c 128,-1,34
 159 263 159 263 134.5 291 c 128,-1,35
 110 319 110 319 110 359 c 0,36,37
 110 408 110 408 142 450 c 0,38,39
 249 594 249 594 302 669 c 128,-1,40
 355 744 355 744 432.5 862.5 c 128,-1,41
 510 981 510 981 567 1093.5 c 128,-1,42
 624 1206 624 1206 676 1335 c 0,43,44
 689 1365 689 1365 719 1365 c 0,45,46
 740 1365 740 1365 756 1351.5 c 128,-1,47
 772 1338 772 1338 772 1317 c 0,48,49
 772 1306 772 1306 768 1297 c 0,50,51
 714 1164 714 1164 654.5 1047.5 c 128,-1,52
 595 931 595 931 516.5 810 c 128,-1,53
 438 689 438 689 383.5 611.5 c 128,-1,54
 329 534 329 534 222 390 c 0,55,56
 210 373 210 373 210 359 c 0,57,58
 210 334 210 334 368 334 c 0,59,60
 532 334 532 334 719 358 c 1,61,-1
 784 930 l 2,0,1
EndSplineSet
EndChar

StartChar: five
Encoding: 24 53 24
Width: 1133
GlyphClass: 2
Flags: W
LayerCount: 2
Fore
SplineSet
110 151 m 0,0,1
 110 171 110 171 125.5 185.5 c 128,-1,2
 141 200 141 200 161 200 c 0,3,4
 177 200 177 200 191 189 c 0,5,6
 324 83 324 83 496 83 c 0,7,8
 581 83 581 83 657 110.5 c 128,-1,9
 733 138 733 138 792.5 190 c 128,-1,10
 852 242 852 242 887.5 324.5 c 128,-1,11
 923 407 923 407 923 510 c 0,12,13
 923 607 923 607 891 685.5 c 128,-1,14
 859 764 859 764 805 813.5 c 128,-1,15
 751 863 751 863 682.5 889.5 c 128,-1,16
 614 916 614 916 538 916 c 0,17,18
 374 916 374 916 252 807 c 0,19,20
 238 794 238 794 220 794 c 0,21,22
 199 794 199 794 183.5 809.5 c 128,-1,23
 168 825 168 825 169 848 c 2,24,-1
 205 1345 l 2,25,26
 207 1363 207 1363 222 1377 c 128,-1,27
 237 1391 237 1391 256 1391 c 0,28,29
 262 1391 262 1391 265 1390 c 0,30,31
 382 1366 382 1366 637 1366 c 0,32,33
 856 1366 856 1366 953 1386 c 0,34,35
 957 1387 957 1387 964 1387 c 0,36,37
 985 1387 985 1387 998 1371.5 c 128,-1,38
 1011 1356 1011 1356 1011 1335 c 0,39,40
 1011 1295 1011 1295 973 1288 c 0,41,42
 871 1266 871 1266 637 1266 c 0,43,44
 430 1266 430 1266 301 1283 c 1,45,-1
 277 947 l 1,46,47
 398 1016 398 1016 538 1016 c 0,48,49
 632 1016 632 1016 719 981.5 c 128,-1,50
 806 947 806 947 874 884.5 c 128,-1,51
 942 822 942 822 982.5 724.5 c 128,-1,52
 1023 627 1023 627 1023 510 c 0,53,54
 1023 386 1023 386 978.5 284 c 128,-1,55
 934 182 934 182 859 117.5 c 128,-1,56
 784 53 784 53 690.5 18 c 128,-1,57
 597 -17 597 -17 496 -17 c 0,58,59
 290 -17 290 -17 129 111 c 0,60,61
 110 127 110 127 110 151 c 0,0,1
EndSplineSet
EndChar

StartChar: six
Encoding: 25 54 25
Width: 1130
GlyphClass: 2
Flags: W
LayerCount: 2
Fore
SplineSet
623 941 m 0,0,1
 802 941 802 941 911 813.5 c 128,-1,2
 1020 686 1020 686 1020 490 c 0,3,4
 1020 398 1020 398 985.5 308.5 c 128,-1,5
 951 219 951 219 892 149.5 c 128,-1,6
 833 80 833 80 746.5 37.5 c 128,-1,7
 660 -5 660 -5 564 -5 c 0,8,9
 464 -5 464 -5 384.5 30 c 128,-1,10
 305 65 305 65 254.5 126.5 c 128,-1,11
 204 188 204 188 176 266.5 c 128,-1,12
 148 345 148 345 143 437 c 1,13,14
 128 442 128 442 119 456 c 128,-1,15
 110 470 110 470 110 485 c 0,16,17
 110 490 110 490 112 498 c 0,18,19
 127 549 127 549 146 593 c 1,20,21
 149 638 149 638 157 695 c 0,22,23
 172 799 172 799 203.5 893.5 c 128,-1,24
 235 988 235 988 285.5 1078 c 128,-1,25
 336 1168 336 1168 413 1244 c 128,-1,26
 490 1320 490 1320 588 1373 c 0,27,28
 600 1379 600 1379 612 1379 c 0,29,30
 632 1379 632 1379 647 1362.5 c 128,-1,31
 662 1346 662 1346 662 1326 c 0,32,33
 662 1299 662 1299 636 1285 c 0,34,35
 364 1139 364 1139 277 790 c 1,36,37
 351 864 351 864 441 902.5 c 128,-1,38
 531 941 531 941 623 941 c 0,0,1
245 569 m 1,39,40
 242 526 242 526 242 483 c 0,41,42
 242 303 242 303 322 199 c 128,-1,43
 402 95 402 95 564 95 c 0,44,45
 709 95 709 95 814.5 215 c 128,-1,46
 920 335 920 335 920 490 c 0,47,48
 920 615 920 615 872.5 696.5 c 128,-1,49
 825 778 825 778 747 814 c 0,50,51
 690 841 690 841 622 841 c 0,52,53
 531 841 531 841 442 791.5 c 128,-1,54
 353 742 353 742 288 646 c 0,55,56
 266 615 266 615 245 569 c 1,39,40
EndSplineSet
EndChar

StartChar: seven
Encoding: 26 55 26
Width: 1080
GlyphClass: 2
Flags: W
LayerCount: 2
Fore
SplineSet
870 1265 m 0,0,1
 870 1270 870 1270 843 1270 c 0,2,3
 833 1270 833 1270 816.5 1268 c 128,-1,4
 800 1266 800 1266 796 1266 c 2,5,-1
 164 1215 l 1,6,-1
 159 1215 l 2,7,8
 137 1215 137 1215 124.5 1230.5 c 128,-1,9
 112 1246 112 1246 112 1266 c 0,10,11
 112 1285 112 1285 123.5 1299.5 c 128,-1,12
 135 1314 135 1314 156 1315 c 2,13,-1
 786 1366 l 2,14,15
 813 1370 813 1370 843 1370 c 0,16,17
 917 1370 917 1370 949 1330 c 0,18,19
 970 1305 970 1305 970 1265 c 0,20,21
 970 1221 970 1221 950 1182 c 0,22,23
 819 920 819 920 733.5 631 c 128,-1,24
 648 342 648 342 591 -8 c 0,25,26
 585 -48 585 -48 543 -48 c 0,27,28
 523 -48 523 -48 507.5 -35 c 128,-1,29
 492 -22 492 -22 492 -1 c 0,30,31
 492 0 492 0 492.5 3 c 128,-1,32
 493 6 493 6 493 8 c 0,33,34
 551 365 551 365 638 660.5 c 128,-1,35
 725 956 725 956 860 1226 c 0,36,37
 870 1248 870 1248 870 1265 c 0,0,1
EndSplineSet
EndChar

StartChar: eight
Encoding: 27 56 27
Width: 1079
GlyphClass: 2
Flags: W
LayerCount: 2
Fore
SplineSet
887 1215 m 0,0,1
 887 1194 887 1194 872 1179.5 c 128,-1,2
 857 1165 857 1165 837 1165 c 0,3,4
 820 1165 820 1165 807 1175 c 0,5,6
 686 1266 686 1266 512 1266 c 0,7,8
 366 1266 366 1266 288 1190 c 128,-1,9
 210 1114 210 1114 210 994 c 0,10,11
 210 857 210 857 378 753 c 1,12,13
 549 888 549 888 899 1042 c 0,14,15
 911 1047 911 1047 920 1047 c 0,16,17
 940 1047 940 1047 954 1030 c 128,-1,18
 968 1013 968 1013 968 993 c 0,19,20
 968 963 968 963 939 950 c 0,21,22
 633 815 633 815 478 703 c 1,23,24
 642 636 642 636 709 595 c 0,25,26
 881 490 881 490 881 350 c 0,27,28
 881 194 881 194 771.5 94.5 c 128,-1,29
 662 -5 662 -5 506 -5 c 0,30,31
 348 -5 348 -5 243 95.5 c 128,-1,32
 138 196 138 196 138 354 c 0,33,34
 138 525 138 525 300 684 c 1,35,36
 110 813 110 813 110 994 c 0,37,38
 110 1153 110 1153 219 1259.5 c 128,-1,39
 328 1366 328 1366 512 1366 c 0,40,41
 717 1366 717 1366 867 1255 c 0,42,43
 887 1241 887 1241 887 1215 c 0,0,1
391 632 m 1,44,45
 238 492 238 492 238 354 c 0,46,47
 238 237 238 237 312 166 c 128,-1,48
 386 95 386 95 506 95 c 0,49,50
 625 95 625 95 703 166.5 c 128,-1,51
 781 238 781 238 781 350 c 0,52,53
 781 476 781 476 448 607 c 0,54,55
 437 611 437 611 391 632 c 1,44,45
EndSplineSet
EndChar

StartChar: nine
Encoding: 28 57 28
Width: 1112
GlyphClass: 2
Flags: W
LayerCount: 2
Fore
SplineSet
641 502 m 0,0,1
 664 502 664 502 680 489.5 c 128,-1,2
 696 477 696 477 696 451 c 0,3,4
 696 393 696 393 547 393 c 0,5,6
 437 393 437 393 351 432 c 128,-1,7
 265 471 265 471 214 536.5 c 128,-1,8
 163 602 163 602 136.5 681.5 c 128,-1,9
 110 761 110 761 110 848 c 0,10,11
 110 941 110 941 141.5 1032.5 c 128,-1,12
 173 1124 173 1124 228 1198.5 c 128,-1,13
 283 1273 283 1273 368 1319.5 c 128,-1,14
 453 1366 453 1366 552 1366 c 0,15,16
 638 1366 638 1366 717.5 1333.5 c 128,-1,17
 797 1301 797 1301 861 1241 c 128,-1,18
 925 1181 925 1181 963.5 1085 c 128,-1,19
 1002 989 1002 989 1002 872 c 0,20,21
 1002 776 1002 776 981.5 671 c 128,-1,22
 961 566 961 566 924.5 463.5 c 128,-1,23
 888 361 888 361 832 268 c 128,-1,24
 776 175 776 175 709 104 c 128,-1,25
 642 33 642 33 557 -8.5 c 128,-1,26
 472 -50 472 -50 381 -50 c 0,27,28
 361 -50 361 -50 346 -35 c 128,-1,29
 331 -20 331 -20 331 0 c 128,-1,30
 331 20 331 20 346 35 c 128,-1,31
 361 50 361 50 381 50 c 0,32,33
 480 50 480 50 577.5 127 c 128,-1,34
 675 204 675 204 745 323 c 128,-1,35
 815 442 815 442 858.5 589 c 128,-1,36
 902 736 902 736 902 872 c 0,37,38
 902 969 902 969 872 1046.5 c 128,-1,39
 842 1124 842 1124 791.5 1171 c 128,-1,40
 741 1218 741 1218 680 1242 c 128,-1,41
 619 1266 619 1266 552 1266 c 0,42,43
 457 1266 457 1266 377 1205.5 c 128,-1,44
 297 1145 297 1145 253.5 1049.5 c 128,-1,45
 210 954 210 954 210 848 c 0,46,47
 210 775 210 775 229.5 712.5 c 128,-1,48
 249 650 249 650 288.5 600 c 128,-1,49
 328 550 328 550 394.5 521.5 c 128,-1,50
 461 493 461 493 547 493 c 0,51,52
 563 493 563 493 595 497.5 c 128,-1,53
 627 502 627 502 641 502 c 0,0,1
EndSplineSet
EndChar

StartChar: less
Encoding: 31 60 31
Width: 585
GlyphClass: 2
Flags: W
LayerCount: 2
Fore
SplineSet
475 414 m 0,0,1
 475 394 475 394 461 378.5 c 128,-1,2
 447 363 447 363 426 363 c 0,3,4
 396 363 396 363 382 387 c 0,5,6
 280 557 280 557 127 691 c 0,7,8
 111 706 111 706 111 727 c 0,9,10
 111 752 111 752 128 767 c 0,11,12
 284 897 284 897 382 1070 c 0,13,14
 396 1094 396 1094 422 1094 c 0,15,16
 443 1094 443 1094 459.5 1079.5 c 128,-1,17
 476 1065 476 1065 476 1045 c 0,18,19
 476 1031 476 1031 469 1020 c 0,20,21
 376 858 376 858 235 728 c 1,22,23
 370 600 370 600 468 439 c 0,24,25
 475 428 475 428 475 414 c 0,0,1
EndSplineSet
EndChar

StartChar: equal
Encoding: 32 61 32
Width: 1037
GlyphClass: 2
Flags: W
LayerCount: 2
Fore
SplineSet
156 825 m 0,0,1
 135 827 135 827 123.5 841.5 c 128,-1,2
 112 856 112 856 112 875 c 0,3,4
 112 895 112 895 125 910 c 128,-1,5
 138 925 138 925 159 925 c 2,6,-1
 164 925 l 1,7,8
 321 911 321 911 557 911 c 0,9,10
 712 911 712 911 873 925 c 1,11,-1
 878 925 l 2,12,13
 900 925 900 925 912.5 909.5 c 128,-1,14
 925 894 925 894 925 874 c 0,15,16
 925 855 925 855 913.5 841 c 128,-1,17
 902 827 902 827 881 825 c 0,18,19
 716 811 716 811 557 811 c 0,20,21
 321 811 321 811 156 825 c 0,0,1
150 422 m 0,22,23
 112 429 112 429 112 468 c 0,24,25
 112 489 112 489 125.5 505 c 128,-1,26
 139 521 139 521 160 521 c 0,27,28
 166 521 166 521 170 520 c 0,29,30
 240 506 240 506 498 506 c 0,31,32
 680 506 680 506 873 521 c 1,33,-1
 878 521 l 2,34,35
 900 521 900 521 912.5 505.5 c 128,-1,36
 925 490 925 490 925 470 c 0,37,38
 925 451 925 451 913.5 436.5 c 128,-1,39
 902 422 902 422 881 421 c 0,40,41
 683 406 683 406 498 406 c 0,42,43
 232 406 232 406 150 422 c 0,22,23
EndSplineSet
EndChar

StartChar: question
Encoding: 34 63 34
Width: 954
GlyphClass: 2
Flags: W
LayerCount: 2
Fore
SplineSet
545 89 m 128,-1,1
 545 50 545 50 517.5 22.5 c 128,-1,2
 490 -5 490 -5 451 -5 c 128,-1,3
 412 -5 412 -5 384 22 c 128,-1,4
 356 49 356 49 356 89 c 0,5,6
 356 128 356 128 384 156 c 128,-1,7
 412 184 412 184 451 184 c 0,8,9
 491 184 491 184 518 156 c 128,-1,0
 545 128 545 128 545 89 c 128,-1,1
210 1017 m 0,10,11
 210 1006 210 1006 214 979 c 128,-1,12
 218 952 218 952 218 938 c 0,13,14
 218 916 218 916 202.5 903 c 128,-1,15
 187 890 187 890 166 890 c 0,16,17
 149 890 149 890 136 900.5 c 128,-1,18
 123 911 123 911 119 930 c 0,19,20
 110 982 110 982 110 1017 c 0,21,22
 110 1122 110 1122 161.5 1203 c 128,-1,23
 213 1284 213 1284 293 1325 c 128,-1,24
 373 1366 373 1366 465 1366 c 0,25,26
 537 1366 537 1366 603.5 1339.5 c 128,-1,27
 670 1313 670 1313 724.5 1263.5 c 128,-1,28
 779 1214 779 1214 811.5 1133.5 c 128,-1,29
 844 1053 844 1053 844 954 c 0,30,31
 844 894 844 894 827 841.5 c 128,-1,32
 810 789 810 789 777 745 c 128,-1,33
 744 701 744 701 715.5 673 c 128,-1,34
 687 645 687 645 644 609 c 0,35,36
 565 541 565 541 527 488 c 128,-1,37
 489 435 489 435 489 366 c 0,38,39
 489 343 489 343 474 330.5 c 128,-1,40
 459 318 459 318 439 318 c 128,-1,41
 419 318 419 318 404 330.5 c 128,-1,42
 389 343 389 343 389 366 c 0,43,44
 389 420 389 420 404.5 467 c 128,-1,45
 420 514 420 514 452.5 555.5 c 128,-1,46
 485 597 485 597 511 622.5 c 128,-1,47
 537 648 537 648 580 685 c 0,48,49
 663 754 663 754 703.5 812.5 c 128,-1,50
 744 871 744 871 744 954 c 0,51,52
 744 1059 744 1059 702 1131.5 c 128,-1,53
 660 1204 660 1204 598.5 1235 c 128,-1,54
 537 1266 537 1266 465 1266 c 0,55,56
 360 1266 360 1266 285 1198 c 128,-1,57
 210 1130 210 1130 210 1017 c 0,10,11
EndSplineSet
EndChar

StartChar: at
Encoding: 35 64 35
Width: 2047
GlyphClass: 2
Flags: W
LayerCount: 2
Fore
SplineSet
1352 787 m 1,0,1
 1218 874 1218 874 1069 874 c 0,2,3
 982 874 982 874 904.5 843 c 128,-1,4
 827 812 827 812 766.5 754 c 128,-1,5
 706 696 706 696 670.5 605 c 128,-1,6
 635 514 635 514 635 402 c 0,7,8
 635 266 635 266 718.5 180.5 c 128,-1,9
 802 95 802 95 938 95 c 0,10,11
 1024 95 1024 95 1091.5 126 c 128,-1,12
 1159 157 1159 157 1201.5 211 c 128,-1,13
 1244 265 1244 265 1269.5 327 c 128,-1,14
 1295 389 1295 389 1305 461 c 2,15,-1
 1352 787 l 1,0,1
1626 -152 m 0,16,17
 1646 -152 1646 -152 1661.5 -166.5 c 128,-1,18
 1677 -181 1677 -181 1677 -201 c 0,19,20
 1677 -225 1677 -225 1660 -240 c 0,21,22
 1534 -350 1534 -350 1376.5 -410.5 c 128,-1,23
 1219 -471 1219 -471 1045 -471 c 0,24,25
 854 -471 854 -471 683 -407 c 128,-1,26
 512 -343 512 -343 385.5 -230 c 128,-1,27
 259 -117 259 -117 184.5 47.5 c 128,-1,28
 110 212 110 212 110 403 c 0,29,30
 110 555 110 555 160 704.5 c 128,-1,31
 210 854 210 854 301 978 c 128,-1,32
 392 1102 392 1102 511 1198 c 128,-1,33
 630 1294 630 1294 776.5 1347.5 c 128,-1,34
 923 1401 923 1401 1076 1401 c 0,35,36
 1248 1401 1248 1401 1406.5 1336 c 128,-1,37
 1565 1271 1565 1271 1681.5 1160 c 128,-1,38
 1798 1049 1798 1049 1867.5 891.5 c 128,-1,39
 1937 734 1937 734 1937 559 c 0,40,41
 1937 474 1937 474 1915 380.5 c 128,-1,42
 1893 287 1893 287 1850 199 c 128,-1,43
 1807 111 1807 111 1732 54 c 128,-1,44
 1657 -3 1657 -3 1564 -3 c 0,45,46
 1475 -3 1475 -3 1413 56.5 c 128,-1,47
 1351 116 1351 116 1321 210 c 1,48,49
 1192 -5 1192 -5 938 -5 c 0,50,51
 761 -5 761 -5 648 111 c 128,-1,52
 535 227 535 227 535 402 c 0,53,54
 535 533 535 533 578.5 642.5 c 128,-1,55
 622 752 622 752 696 823.5 c 128,-1,56
 770 895 770 895 866 934.5 c 128,-1,57
 962 974 962 974 1069 974 c 0,58,59
 1266 974 1266 974 1435 852 c 0,60,61
 1459 835 1459 835 1455 804 c 2,62,-1
 1403 447 l 1,63,-1
 1403 443 l 2,64,65
 1403 431 1403 431 1400.5 403 c 128,-1,66
 1398 375 1398 375 1398 362 c 0,67,68
 1398 251 1398 251 1447.5 174 c 128,-1,69
 1497 97 1497 97 1564 97 c 0,70,71
 1640 97 1640 97 1704.5 169 c 128,-1,72
 1769 241 1769 241 1803 346.5 c 128,-1,73
 1837 452 1837 452 1837 559 c 0,74,75
 1837 713 1837 713 1776 851.5 c 128,-1,76
 1715 990 1715 990 1612 1088 c 128,-1,77
 1509 1186 1509 1186 1369 1243.5 c 128,-1,78
 1229 1301 1229 1301 1076 1301 c 0,79,80
 908 1301 908 1301 748 1225 c 128,-1,81
 588 1149 588 1149 470.5 1025.5 c 128,-1,82
 353 902 353 902 281.5 737.5 c 128,-1,83
 210 573 210 573 210 403 c 0,84,85
 210 179 210 179 321.5 1 c 128,-1,86
 433 -177 433 -177 623 -274 c 128,-1,87
 813 -371 813 -371 1045 -371 c 0,88,89
 1200 -371 1200 -371 1340.5 -317 c 128,-1,90
 1481 -263 1481 -263 1594 -164 c 0,91,92
 1608 -152 1608 -152 1626 -152 c 0,16,17
EndSplineSet
EndChar

StartChar: A
Encoding: 36 65 36
Width: 1416
GlyphClass: 2
Flags: W
LayerCount: 2
Fore
SplineSet
452 560 m 1,0,-1
 1002 510 l 1,1,-1
 735 1187 l 1,2,-1
 452 560 l 1,0,-1
206 11 m 2,3,4
 193 -17 193 -17 164 -17 c 0,5,6
 143 -17 143 -17 126 -3 c 128,-1,7
 109 11 109 11 109 32 c 0,8,9
 109 41 109 41 114 53 c 2,10,-1
 307 480 l 1,11,12
 290 494 290 494 290 519 c 0,13,14
 290 539 290 539 302 555 c 128,-1,15
 314 571 314 571 334 571 c 0,16,17
 337 571 337 571 347 569 c 1,18,-1
 692 1337 l 2,19,20
 705 1365 705 1365 736 1365 c 0,21,22
 773 1365 773 1365 785 1334 c 2,23,-1
 1115 494 l 1,24,25
 1140 478 1140 478 1135 443 c 1,26,-1
 1303 18 l 2,27,28
 1307 9 1307 9 1307 -1 c 0,29,30
 1307 -21 1307 -21 1290.5 -35 c 128,-1,31
 1274 -49 1274 -49 1254 -49 c 0,32,33
 1222 -49 1222 -49 1209 -18 c 2,34,-1
 1042 406 l 1,35,-1
 409 463 l 1,36,-1
 206 11 l 2,3,4
EndSplineSet
EndChar

StartChar: B
Encoding: 37 66 37
Width: 1098
GlyphClass: 2
Flags: W
LayerCount: 2
Fore
SplineSet
888 406 m 0,0,1
 888 502 888 502 827.5 567.5 c 128,-1,2
 767 633 767 633 670.5 661 c 128,-1,3
 574 689 574 689 446 689 c 0,4,5
 416 689 416 689 377 687 c 128,-1,6
 338 685 338 685 294 681.5 c 128,-1,7
 250 678 250 678 235 677 c 1,8,9
 233 387 233 387 216 126 c 1,10,11
 337 95 337 95 461 95 c 0,12,13
 552 95 552 95 627.5 112.5 c 128,-1,14
 703 130 703 130 762.5 166 c 128,-1,15
 822 202 822 202 855 263 c 128,-1,16
 888 324 888 324 888 406 c 0,0,1
235 779 m 1,17,18
 273 783 273 783 369 787 c 1,19,20
 438 795 438 795 510 810 c 0,21,22
 807 874 807 874 807 1028 c 0,23,24
 807 1149 807 1149 723 1207.5 c 128,-1,25
 639 1266 639 1266 493 1266 c 0,26,27
 360 1266 360 1266 213 1216 c 1,28,29
 233 979 233 979 235 779 c 1,17,18
687 758 m 1,30,31
 821 720 821 720 904.5 632 c 128,-1,32
 988 544 988 544 988 406 c 0,33,34
 988 317 988 317 957 245 c 128,-1,35
 926 173 926 173 875 127.5 c 128,-1,36
 824 82 824 82 754.5 51 c 128,-1,37
 685 20 685 20 612.5 7.5 c 128,-1,38
 540 -5 540 -5 461 -5 c 0,39,40
 294 -5 294 -5 148 41 c 0,41,42
 132 46 132 46 122.5 59.5 c 128,-1,43
 113 73 113 73 113 89 c 0,44,45
 113 189 113 189 124 400 c 128,-1,46
 135 611 135 611 135 706 c 0,47,48
 135 827 135 827 122.5 995.5 c 128,-1,49
 110 1164 110 1164 110 1250 c 0,50,51
 110 1285 110 1285 142 1297 c 0,52,53
 319 1366 319 1366 493 1366 c 0,54,55
 557 1366 557 1366 615.5 1354.5 c 128,-1,56
 674 1343 674 1343 727.5 1317 c 128,-1,57
 781 1291 781 1291 820.5 1253 c 128,-1,58
 860 1215 860 1215 883.5 1157 c 128,-1,59
 907 1099 907 1099 907 1028 c 0,60,61
 907 849 907 849 687 758 c 1,30,31
EndSplineSet
EndChar

StartChar: C
Encoding: 38 67 38
Width: 1271
GlyphClass: 2
Flags: W
LayerCount: 2
Fore
SplineSet
1096 1324 m 0,0,1
 1125 1311 1125 1311 1125 1281 c 0,2,3
 1125 1261 1125 1261 1111 1244 c 128,-1,4
 1097 1227 1097 1227 1077 1227 c 0,5,6
 1068 1227 1068 1227 1056 1232 c 0,7,8
 944 1282 944 1282 814 1282 c 0,9,10
 641 1282 641 1282 502.5 1200.5 c 128,-1,11
 364 1119 364 1119 287 977.5 c 128,-1,12
 210 836 210 836 210 662 c 0,13,14
 210 407 210 407 377 251 c 128,-1,15
 544 95 544 95 810 95 c 0,16,17
 958 95 958 95 1088 163 c 0,18,19
 1100 169 1100 169 1111 169 c 0,20,21
 1131 169 1131 169 1145.5 152.5 c 128,-1,22
 1160 136 1160 136 1160 116 c 0,23,24
 1160 89 1160 89 1134 75 c 0,25,26
 983 -5 983 -5 810 -5 c 0,27,28
 611 -5 611 -5 452 77.5 c 128,-1,29
 293 160 293 160 201.5 313 c 128,-1,30
 110 466 110 466 110 662 c 0,31,32
 110 811 110 811 163 943.5 c 128,-1,33
 216 1076 216 1076 308.5 1172.5 c 128,-1,34
 401 1269 401 1269 532.5 1325.5 c 128,-1,35
 664 1382 664 1382 814 1382 c 0,36,37
 966 1382 966 1382 1096 1324 c 0,0,1
EndSplineSet
EndChar

StartChar: D
Encoding: 39 68 39
Width: 1239
GlyphClass: 2
Flags: W
LayerCount: 2
Fore
SplineSet
231 1255 m 1,0,1
 255 1025 255 1025 255 811 c 0,2,3
 255 463 255 463 215 126 c 1,4,5
 314 95 314 95 412 95 c 0,6,7
 588 95 588 95 728.5 171.5 c 128,-1,8
 869 248 869 248 949 386.5 c 128,-1,9
 1029 525 1029 525 1029 701 c 0,10,11
 1029 990 1029 990 857 1128 c 128,-1,12
 685 1266 685 1266 366 1266 c 0,13,14
 293 1266 293 1266 231 1255 c 1,0,1
166 1344 m 0,15,16
 261 1366 261 1366 366 1366 c 0,17,18
 500 1366 500 1366 615 1341.5 c 128,-1,19
 730 1317 730 1317 825.5 1265 c 128,-1,20
 921 1213 921 1213 988 1135.5 c 128,-1,21
 1055 1058 1055 1058 1092 947.5 c 128,-1,22
 1129 837 1129 837 1129 701 c 0,23,24
 1129 549 1129 549 1074 417 c 128,-1,25
 1019 285 1019 285 923.5 192.5 c 128,-1,26
 828 100 828 100 695.5 47.5 c 128,-1,27
 563 -5 563 -5 412 -5 c 0,28,29
 272 -5 272 -5 142 45 c 0,30,31
 110 58 110 58 110 92 c 2,32,-1
 110 98 l 1,33,34
 155 446 155 446 155 811 c 0,35,36
 155 910 155 910 141 1054 c 128,-1,37
 127 1198 127 1198 127 1295 c 0,38,39
 127 1312 127 1312 138.5 1326 c 128,-1,40
 150 1340 150 1340 166 1344 c 0,15,16
EndSplineSet
EndChar

StartChar: E
Encoding: 40 69 40
Width: 1098
GlyphClass: 2
Flags: W
LayerCount: 2
Fore
SplineSet
927 1408 m 0,0,1
 931 1409 931 1409 939 1409 c 0,2,3
 960 1409 960 1409 973.5 1393.5 c 128,-1,4
 987 1378 987 1378 987 1357 c 0,5,6
 987 1319 987 1319 949 1310 c 0,7,8
 756 1266 756 1266 472 1266 c 0,9,10
 403 1266 403 1266 275 1272 c 1,11,12
 292 1123 292 1123 292 960 c 0,13,14
 292 878 292 878 289 797 c 1,15,16
 386 804 386 804 500 804 c 0,17,18
 685 804 685 804 865 783 c 0,19,20
 907 777 907 777 907 734 c 0,21,22
 907 713 907 713 894 698 c 128,-1,23
 881 683 881 683 860 683 c 2,24,-1
 853 683 l 1,25,26
 679 704 679 704 500 704 c 0,27,28
 384 704 384 704 285 697 c 1,29,30
 275 513 275 513 250 341 c 0,31,32
 247 324 247 324 247 295 c 0,33,34
 247 249 247 249 262.5 215 c 128,-1,35
 278 181 278 181 314 159 c 128,-1,36
 350 137 350 137 389 124 c 128,-1,37
 428 111 428 111 495 105 c 128,-1,38
 562 99 562 99 619.5 97 c 128,-1,39
 677 95 677 95 768 95 c 0,40,41
 872 95 872 95 921 96 c 2,42,-1
 922 96 l 2,43,44
 945 96 945 96 957.5 80.5 c 128,-1,45
 970 65 970 65 970 45 c 128,-1,46
 970 25 970 25 958 10.5 c 128,-1,47
 946 -4 946 -4 923 -4 c 0,48,49
 872 -5 872 -5 768 -5 c 2,50,-1
 732 -5 l 2,51,52
 676 -5 676 -5 640.5 -4.5 c 128,-1,53
 605 -4 605 -4 550.5 -1 c 128,-1,54
 496 2 496 2 460.5 7.5 c 128,-1,55
 425 13 425 13 378.5 23.5 c 128,-1,56
 332 34 332 34 302 49 c 128,-1,57
 272 64 272 64 240 86.5 c 128,-1,58
 208 109 208 109 189.5 138.5 c 128,-1,59
 171 168 171 168 159 207.5 c 128,-1,60
 147 247 147 247 147 295 c 0,61,62
 147 326 147 326 152 355 c 0,63,64
 174 513 174 513 184 687 c 1,65,66
 181 686 181 686 175 686 c 128,-1,67
 169 686 169 686 166 685 c 2,68,-1
 159 685 l 2,69,70
 138 685 138 685 125 700 c 128,-1,71
 112 715 112 715 112 736 c 0,72,73
 112 779 112 779 154 785 c 0,74,75
 160 786 160 786 172 787.5 c 128,-1,76
 184 789 184 789 189 789 c 1,77,78
 192 874 192 874 192 960 c 0,79,80
 192 1033 192 1033 180 1145 c 128,-1,81
 168 1257 168 1257 168 1323 c 0,82,83
 168 1341 168 1341 182 1358 c 128,-1,84
 196 1375 196 1375 218 1375 c 2,85,-1
 221 1375 l 1,86,87
 372 1366 372 1366 472 1366 c 0,88,89
 748 1366 748 1366 927 1408 c 0,0,1
EndSplineSet
EndChar

StartChar: F
Encoding: 41 70 41
Width: 1092
GlyphClass: 2
Flags: W
LayerCount: 2
Fore
SplineSet
921 1387 m 0,0,1
 925 1388 925 1388 933 1388 c 0,2,3
 954 1388 954 1388 967.5 1372.5 c 128,-1,4
 981 1357 981 1357 981 1336 c 0,5,6
 981 1298 981 1298 943 1289 c 0,7,8
 755 1246 755 1246 466 1246 c 0,9,10
 376 1246 376 1246 269 1251 c 1,11,12
 291 1043 291 1043 296 784 c 1,13,14
 408 791 408 791 489 791 c 0,15,16
 662 791 662 791 849 769 c 0,17,18
 891 763 891 763 891 720 c 0,19,20
 891 699 891 699 878 684 c 128,-1,21
 865 669 865 669 844 669 c 2,22,-1
 837 669 l 1,23,24
 656 691 656 691 489 691 c 0,25,26
 388 691 388 691 298 684 c 1,27,-1
 298 583 l 2,28,29
 298 273 298 273 267 -6 c 0,30,31
 265 -27 265 -27 251.5 -37.5 c 128,-1,32
 238 -48 238 -48 219 -48 c 0,33,34
 198 -48 198 -48 182.5 -35 c 128,-1,35
 167 -22 167 -22 167 0 c 2,36,-1
 167 6 l 1,37,38
 198 279 198 279 198 583 c 2,39,-1
 198 675 l 1,40,41
 192 674 192 674 182 673 c 128,-1,42
 172 672 172 672 166 671 c 2,43,-1
 159 671 l 2,44,45
 138 671 138 671 125 686 c 128,-1,46
 112 701 112 701 112 722 c 0,47,48
 112 765 112 765 154 771 c 0,49,50
 167 773 167 773 197 775 c 1,51,52
 196 863 196 863 179.5 1035.5 c 128,-1,53
 163 1208 163 1208 163 1301 c 0,54,55
 163 1319 163 1319 176.5 1336.5 c 128,-1,56
 190 1354 190 1354 213 1354 c 2,57,-1
 216 1354 l 1,58,59
 347 1346 347 1346 466 1346 c 0,60,61
 746 1346 746 1346 921 1387 c 0,0,1
EndSplineSet
EndChar

StartChar: G
Encoding: 42 71 42
Width: 1352
GlyphClass: 2
Flags: W
LayerCount: 2
Fore
SplineSet
1087 1226 m 0,0,1
 1087 1205 1087 1205 1072 1190.5 c 128,-1,2
 1057 1176 1057 1176 1037 1176 c 0,3,4
 1020 1176 1020 1176 1007 1186 c 0,5,6
 899 1266 899 1266 763 1266 c 0,7,8
 624 1266 624 1266 517.5 1219 c 128,-1,9
 411 1172 411 1172 345 1087.5 c 128,-1,10
 279 1003 279 1003 245.5 891.5 c 128,-1,11
 212 780 212 780 210 645 c 2,12,-1
 210 639 l 2,13,14
 210 523 210 523 250 421 c 128,-1,15
 290 319 290 319 358 248 c 128,-1,16
 426 177 426 177 519 136 c 128,-1,17
 612 95 612 95 716 95 c 0,18,19
 954 95 954 95 1048 190 c 128,-1,20
 1142 285 1142 285 1142 500 c 0,21,22
 1142 563 1142 563 1138 622 c 1,23,24
 1076 615 1076 615 990 615 c 0,25,26
 848 615 848 615 732 636 c 0,27,28
 713 640 713 640 702.5 653 c 128,-1,29
 692 666 692 666 692 683 c 0,30,31
 692 704 692 704 705 719.5 c 128,-1,32
 718 735 718 735 740 735 c 0,33,34
 747 735 747 735 750 734 c 0,35,36
 861 715 861 715 990 715 c 0,37,38
 1096 715 1096 715 1176 728 c 0,39,40
 1178 728 1178 728 1180 728.5 c 128,-1,41
 1182 729 1182 729 1184 729 c 0,42,43
 1203 729 1203 729 1217.5 714.5 c 128,-1,44
 1232 700 1232 700 1234 683 c 0,45,46
 1242 579 1242 579 1242 500 c 0,47,48
 1242 252 1242 252 1115 123.5 c 128,-1,49
 988 -5 988 -5 716 -5 c 0,50,51
 549 -5 549 -5 410 79 c 128,-1,52
 271 163 271 163 190.5 311 c 128,-1,53
 110 459 110 459 110 639 c 2,54,-1
 110 645 l 2,55,56
 111 763 111 763 136 868.5 c 128,-1,57
 161 974 161 974 213.5 1065.5 c 128,-1,58
 266 1157 266 1157 341.5 1223.5 c 128,-1,59
 417 1290 417 1290 525 1328 c 128,-1,60
 633 1366 633 1366 763 1366 c 0,61,62
 933 1366 933 1366 1067 1266 c 0,63,64
 1087 1252 1087 1252 1087 1226 c 0,0,1
EndSplineSet
EndChar

StartChar: H
Encoding: 43 72 43
Width: 1239
GlyphClass: 2
Flags: W
LayerCount: 2
Fore
SplineSet
182 1316 m 0,0,1
 183 1339 183 1339 198 1351.5 c 128,-1,2
 213 1364 213 1364 233 1364 c 128,-1,3
 253 1364 253 1364 267.5 1352 c 128,-1,4
 282 1340 282 1340 282 1317 c 0,5,6
 282 1068 282 1068 268 725 c 1,7,8
 645 721 645 721 944 710 c 1,9,-1
 917 1314 l 2,10,11
 916 1337 916 1337 931 1350.5 c 128,-1,12
 946 1364 946 1364 967 1364 c 0,13,14
 987 1364 987 1364 1001.5 1352 c 128,-1,15
 1016 1340 1016 1340 1017 1318 c 2,16,-1
 1044 706 l 1,17,18
 1050 706 1050 706 1062.5 705.5 c 128,-1,19
 1075 705 1075 705 1081 704 c 0,20,21
 1103 703 1103 703 1115 688.5 c 128,-1,22
 1127 674 1127 674 1127 654 c 128,-1,23
 1127 634 1127 634 1115 619 c 128,-1,24
 1103 604 1103 604 1080 604 c 2,25,-1
 1077 604 l 2,26,27
 1073 604 1073 604 1063 604.5 c 128,-1,28
 1053 605 1053 605 1048 605 c 1,29,-1
 1076 -19 l 2,30,31
 1077 -42 1077 -42 1062 -55.5 c 128,-1,32
 1047 -69 1047 -69 1026 -69 c 0,33,34
 1006 -69 1006 -69 991.5 -57 c 128,-1,35
 977 -45 977 -45 976 -23 c 2,36,-1
 948 609 l 1,37,38
 610 621 610 621 263 625 c 1,39,40
 247 275 247 275 218 -5 c 0,41,42
 216 -26 216 -26 202 -37 c 128,-1,43
 188 -48 188 -48 169 -48 c 0,44,45
 148 -48 148 -48 133 -35 c 128,-1,46
 118 -22 118 -22 118 0 c 2,47,-1
 118 5 l 1,48,49
 148 308 148 308 163 626 c 1,50,-1
 160 626 l 2,51,52
 140 626 140 626 125 641 c 128,-1,53
 110 656 110 656 110 676 c 128,-1,54
 110 696 110 696 125 711 c 128,-1,55
 140 726 140 726 160 726 c 2,56,-1
 168 726 l 1,57,58
 179 987 179 987 182 1316 c 0,0,1
EndSplineSet
EndChar

StartChar: I
Encoding: 44 73 44
Width: 355
GlyphClass: 2
Flags: W
LayerCount: 2
Fore
SplineSet
210 -1 m 2,0,1
 209 -24 209 -24 194 -36 c 128,-1,2
 179 -48 179 -48 159 -48 c 128,-1,3
 139 -48 139 -48 124 -35 c 128,-1,4
 109 -22 109 -22 110 1 c 2,5,-1
 145 1362 l 2,6,7
 146 1385 146 1385 161 1397 c 128,-1,8
 176 1409 176 1409 196 1409 c 128,-1,9
 216 1409 216 1409 231 1396 c 128,-1,10
 246 1383 246 1383 245 1360 c 2,11,-1
 210 -1 l 2,0,1
EndSplineSet
EndChar

StartChar: J
Encoding: 45 74 45
Width: 680
GlyphClass: 2
Flags: W
LayerCount: 2
Fore
SplineSet
233 -5 m 2,0,-1
 217 -5 l 2,1,2
 184 -5 184 -5 164.5 -3 c 128,-1,3
 145 -1 145 -1 127.5 11 c 128,-1,4
 110 23 110 23 110 46 c 2,5,-1
 110 52 l 2,6,7
 112 78 112 78 129 87.5 c 128,-1,8
 146 97 146 97 176 97 c 0,9,10
 185 97 185 97 204 96 c 128,-1,11
 223 95 223 95 233 95 c 0,12,13
 343 95 343 95 384 148.5 c 128,-1,14
 425 202 425 202 425 330 c 0,15,16
 425 867 425 867 375 1267 c 1,17,-1
 173 1267 l 2,18,19
 153 1267 153 1267 138 1282 c 128,-1,20
 123 1297 123 1297 123 1317 c 128,-1,21
 123 1337 123 1337 138 1352 c 128,-1,22
 153 1367 153 1367 173 1367 c 2,23,-1
 520 1367 l 2,24,25
 543 1367 543 1367 555.5 1352 c 128,-1,26
 568 1337 568 1337 568 1317 c 128,-1,27
 568 1297 568 1297 555.5 1282 c 128,-1,28
 543 1267 543 1267 520 1267 c 2,29,-1
 476 1267 l 1,30,31
 525 875 525 875 525 330 c 0,32,33
 525 176 525 176 456 85.5 c 128,-1,34
 387 -5 387 -5 233 -5 c 2,0,-1
EndSplineSet
EndChar

StartChar: K
Encoding: 46 75 46
Width: 1177
GlyphClass: 2
Flags: W
LayerCount: 2
Fore
SplineSet
946 1411 m 0,0,1
 967 1411 967 1411 981.5 1396 c 128,-1,2
 996 1381 996 1381 996 1361 c 0,3,4
 996 1344 996 1344 986 1331 c 0,5,6
 740 999 740 999 239 706 c 1,7,8
 505 398 505 398 1044 49 c 0,9,10
 1066 35 1066 35 1066 10 c 0,11,12
 1066 -11 1066 -11 1051.5 -27 c 128,-1,13
 1037 -43 1037 -43 1017 -43 c 0,14,15
 1002 -43 1002 -43 990 -35 c 0,16,17
 502 280 502 280 225 573 c 1,18,-1
 210 -1 l 2,19,20
 209 -24 209 -24 194 -36 c 128,-1,21
 179 -48 179 -48 159 -48 c 128,-1,22
 139 -48 139 -48 124 -35 c 128,-1,23
 109 -22 109 -22 110 1 c 2,24,-1
 128 684 l 1,25,26
 114 698 114 698 114 721 c 0,27,28
 114 743 114 743 129 757 c 1,29,-1
 145 1361 l 2,30,31
 146 1384 146 1384 161 1396 c 128,-1,32
 176 1408 176 1408 196 1408 c 128,-1,33
 216 1408 216 1408 231 1395 c 128,-1,34
 246 1382 246 1382 245 1359 c 2,35,-1
 231 818 l 1,36,37
 684 1091 684 1091 906 1391 c 0,38,39
 920 1411 920 1411 946 1411 c 0,0,1
EndSplineSet
EndChar

StartChar: L
Encoding: 47 76 47
Width: 1126
GlyphClass: 2
Flags: W
LayerCount: 2
Fore
SplineSet
128 1317 m 0,0,1
 128 1339 128 1339 143.5 1351.5 c 128,-1,2
 159 1364 159 1364 179 1364 c 0,3,4
 198 1364 198 1364 212.5 1352.5 c 128,-1,5
 227 1341 227 1341 228 1319 c 0,6,7
 244 1075 244 1075 244 830 c 0,8,9
 244 501 244 501 214 93 c 1,10,-1
 967 72 l 2,11,12
 990 71 990 71 1002 56 c 128,-1,13
 1014 41 1014 41 1014 21 c 128,-1,14
 1014 1 1014 1 1002 -13.5 c 128,-1,15
 990 -28 990 -28 967 -28 c 2,16,-1
 965 -28 l 1,17,-1
 159 -5 l 2,18,19
 140 -4 140 -4 125 11 c 128,-1,20
 110 26 110 26 110 46 c 2,21,-1
 110 49 l 1,22,23
 144 496 144 496 144 830 c 0,24,25
 144 908 144 908 136 1070 c 128,-1,26
 128 1232 128 1232 128 1317 c 0,0,1
EndSplineSet
EndChar

StartChar: M
Encoding: 48 77 48
Width: 1539
GlyphClass: 2
Flags: W
LayerCount: 2
Fore
SplineSet
210 -5 m 2,0,1
 208 -26 208 -26 194 -37 c 128,-1,2
 180 -48 180 -48 161 -48 c 0,3,4
 141 -48 141 -48 125.5 -35 c 128,-1,5
 110 -22 110 -22 110 -1 c 2,6,-1
 110 5 l 1,7,-1
 247 1305 l 2,8,9
 249 1326 249 1326 263 1337 c 128,-1,10
 277 1348 277 1348 296 1348 c 0,11,12
 313 1348 313 1348 327 1338.5 c 128,-1,13
 341 1329 341 1329 345 1313 c 0,14,15
 390 1150 390 1150 478.5 948 c 128,-1,16
 567 746 567 746 651 602 c 0,17,18
 677 557 677 557 701.5 527 c 128,-1,19
 726 497 726 497 738.5 488 c 128,-1,20
 751 479 751 479 757 479 c 128,-1,21
 763 479 763 479 774 486 c 128,-1,22
 785 493 785 493 807.5 519 c 128,-1,23
 830 545 830 545 854 586 c 0,24,25
 942 734 942 734 1032.5 960.5 c 128,-1,26
 1123 1187 1123 1187 1151 1326 c 0,27,28
 1155 1343 1155 1343 1169 1354.5 c 128,-1,29
 1183 1366 1183 1366 1200 1366 c 0,30,31
 1221 1366 1221 1366 1235 1350.5 c 128,-1,32
 1249 1335 1249 1335 1250 1318 c 0,33,34
 1263 951 1263 951 1304 663 c 128,-1,35
 1345 375 1345 375 1428 23 c 0,36,37
 1430 15 1430 15 1430 10 c 0,38,39
 1430 -11 1430 -11 1414.5 -24 c 128,-1,40
 1399 -37 1399 -37 1378 -37 c 0,41,42
 1339 -37 1339 -37 1330 1 c 0,43,44
 1263 289 1263 289 1223.5 525.5 c 128,-1,45
 1184 762 1184 762 1165 1027 c 1,46,47
 1059 735 1059 735 940 536 c 0,48,49
 894 459 894 459 852 419 c 128,-1,50
 810 379 810 379 757 379 c 0,51,52
 699 379 699 379 656.5 423 c 128,-1,53
 614 467 614 467 565 552 c 0,54,55
 431 782 431 782 323 1065 c 1,56,-1
 210 -5 l 2,0,1
EndSplineSet
EndChar

StartChar: N
Encoding: 49 78 49
Width: 1227
GlyphClass: 2
Flags: W
LayerCount: 2
Fore
SplineSet
210 -2 m 0,0,1
 209 -24 209 -24 194.5 -36 c 128,-1,2
 180 -48 180 -48 160 -48 c 128,-1,3
 140 -48 140 -48 125 -36 c 128,-1,4
 110 -24 110 -24 110 -1 c 0,5,6
 110 237 110 237 131 674 c 128,-1,7
 152 1111 152 1111 155 1317 c 0,8,9
 156 1339 156 1339 171 1352 c 128,-1,10
 186 1365 186 1365 206 1365 c 0,11,12
 230 1365 230 1365 245 1346 c 0,13,14
 636 834 636 834 1004 191 c 1,15,-1
 1017 1362 l 2,16,17
 1017 1385 1017 1385 1032 1397 c 128,-1,18
 1047 1409 1047 1409 1067 1409 c 0,19,20
 1088 1409 1088 1409 1103 1396 c 128,-1,21
 1118 1383 1118 1383 1117 1360 c 2,22,-1
 1102 3 l 2,23,24
 1101 -18 1101 -18 1085.5 -31.5 c 128,-1,25
 1070 -45 1070 -45 1050 -45 c 0,26,27
 1023 -45 1023 -45 1008 -20 c 0,28,29
 641 640 641 640 253 1169 c 1,30,31
 245 769 245 769 210 -2 c 0,0,1
EndSplineSet
EndChar

StartChar: O
Encoding: 50 79 50
Width: 1485
GlyphClass: 2
Flags: W
LayerCount: 2
Fore
SplineSet
713 95 m 0,0,1
 959 95 959 95 1117 256 c 128,-1,2
 1275 417 1275 417 1275 684 c 0,3,4
 1275 847 1275 847 1217 979 c 128,-1,5
 1159 1111 1159 1111 1050 1188.5 c 128,-1,6
 941 1266 941 1266 799 1266 c 0,7,8
 633 1266 633 1266 497.5 1179 c 128,-1,9
 362 1092 362 1092 286 942.5 c 128,-1,10
 210 793 210 793 210 613 c 0,11,12
 210 371 210 371 349 233 c 128,-1,13
 488 95 488 95 713 95 c 0,0,1
713 -5 m 0,14,15
 540 -5 540 -5 403.5 69.5 c 128,-1,16
 267 144 267 144 188.5 285.5 c 128,-1,17
 110 427 110 427 110 613 c 0,18,19
 110 765 110 765 161.5 902.5 c 128,-1,20
 213 1040 213 1040 302.5 1142.5 c 128,-1,21
 392 1245 392 1245 521.5 1305.5 c 128,-1,22
 651 1366 651 1366 799 1366 c 0,23,24
 931 1366 931 1366 1041 1310.5 c 128,-1,25
 1151 1255 1151 1255 1223.5 1160.5 c 128,-1,26
 1296 1066 1296 1066 1335.5 943 c 128,-1,27
 1375 820 1375 820 1375 684 c 0,28,29
 1375 532 1375 532 1324.5 402.5 c 128,-1,30
 1274 273 1274 273 1185.5 184 c 128,-1,31
 1097 95 1097 95 975 45 c 128,-1,32
 853 -5 853 -5 713 -5 c 0,14,15
EndSplineSet
EndChar

StartChar: P
Encoding: 51 80 51
Width: 1269
GlyphClass: 2
Flags: W
LayerCount: 2
Fore
SplineSet
159 1087 m 0,0,1
 139 1087 139 1087 124.5 1102.5 c 128,-1,2
 110 1118 110 1118 110 1138 c 0,3,4
 110 1156 110 1156 122 1170 c 0,5,6
 200 1259 200 1259 346 1312.5 c 128,-1,7
 492 1366 492 1366 636 1366 c 0,8,9
 782 1366 782 1366 901 1303 c 128,-1,10
 1020 1240 1020 1240 1089.5 1124 c 128,-1,11
 1159 1008 1159 1008 1159 862 c 0,12,13
 1159 750 1159 750 1105.5 653.5 c 128,-1,14
 1052 557 1052 557 965.5 493.5 c 128,-1,15
 879 430 879 430 773 394.5 c 128,-1,16
 667 359 667 359 560 359 c 0,17,18
 445 359 445 359 342 378 c 1,19,-1
 308 -4 l 2,20,21
 306 -25 306 -25 291.5 -36.5 c 128,-1,22
 277 -48 277 -48 258 -48 c 0,23,24
 238 -48 238 -48 223 -35 c 128,-1,25
 208 -22 208 -22 208 -1 c 2,26,-1
 208 4 l 1,27,-1
 244 409 l 1,28,29
 228 422 228 422 228 445 c 0,30,31
 228 474 228 474 251 490 c 1,32,-1
 306 1105 l 2,33,34
 308 1126 308 1126 322.5 1137.5 c 128,-1,35
 337 1149 337 1149 356 1149 c 0,36,37
 376 1149 376 1149 391 1136 c 128,-1,38
 406 1123 406 1123 406 1102 c 2,39,-1
 406 1097 l 1,40,-1
 351 479 l 1,41,42
 461 459 461 459 560 459 c 0,43,44
 685 459 685 459 799 510.5 c 128,-1,45
 913 562 913 562 986 656 c 128,-1,46
 1059 750 1059 750 1059 862 c 0,47,48
 1059 1041 1059 1041 940 1153.5 c 128,-1,49
 821 1266 821 1266 636 1266 c 0,50,51
 514 1266 514 1266 385.5 1218.5 c 128,-1,52
 257 1171 257 1171 198 1104 c 0,53,54
 183 1087 183 1087 159 1087 c 0,0,1
EndSplineSet
EndChar

StartChar: Q
Encoding: 52 81 52
Width: 1485
GlyphClass: 2
Flags: W
LayerCount: 2
Fore
SplineSet
833 438 m 0,0,1
 833 458 833 458 847 473.5 c 128,-1,2
 861 489 861 489 882 489 c 0,3,4
 909 489 909 489 924 468 c 0,5,6
 1027 326 1027 326 1123 217.5 c 128,-1,7
 1219 109 1219 109 1341 3 c 0,8,9
 1358 -12 1358 -12 1358 -36 c 0,10,11
 1358 -56 1358 -56 1342.5 -70.5 c 128,-1,12
 1327 -85 1327 -85 1307 -85 c 0,13,14
 1288 -85 1288 -85 1275 -73 c 0,15,16
 1148 39 1148 39 1047 152.5 c 128,-1,17
 946 266 946 266 842 410 c 0,18,19
 833 422 833 422 833 438 c 0,0,1
713 95 m 0,20,21
 959 95 959 95 1117 256 c 128,-1,22
 1275 417 1275 417 1275 684 c 0,23,24
 1275 847 1275 847 1217 979 c 128,-1,25
 1159 1111 1159 1111 1050 1188.5 c 128,-1,26
 941 1266 941 1266 799 1266 c 0,27,28
 633 1266 633 1266 497.5 1179 c 128,-1,29
 362 1092 362 1092 286 942.5 c 128,-1,30
 210 793 210 793 210 613 c 0,31,32
 210 371 210 371 349 233 c 128,-1,33
 488 95 488 95 713 95 c 0,20,21
713 -5 m 0,34,35
 540 -5 540 -5 403.5 69.5 c 128,-1,36
 267 144 267 144 188.5 285.5 c 128,-1,37
 110 427 110 427 110 613 c 0,38,39
 110 765 110 765 161.5 902.5 c 128,-1,40
 213 1040 213 1040 302.5 1142.5 c 128,-1,41
 392 1245 392 1245 521.5 1305.5 c 128,-1,42
 651 1366 651 1366 799 1366 c 0,43,44
 931 1366 931 1366 1041 1310.5 c 128,-1,45
 1151 1255 1151 1255 1223.5 1160.5 c 128,-1,46
 1296 1066 1296 1066 1335.5 943 c 128,-1,47
 1375 820 1375 820 1375 684 c 0,48,49
 1375 532 1375 532 1324.5 402.5 c 128,-1,50
 1274 273 1274 273 1185.5 184 c 128,-1,51
 1097 95 1097 95 975 45 c 128,-1,52
 853 -5 853 -5 713 -5 c 0,34,35
EndSplineSet
EndChar

StartChar: R
Encoding: 53 82 53
Width: 1270
GlyphClass: 2
Flags: W
LayerCount: 2
Fore
SplineSet
261 431 m 1,0,1
 221 454 221 454 221 482 c 0,2,3
 221 502 221 502 234 517 c 128,-1,4
 247 532 247 532 268 533 c 1,5,-1
 306 1105 l 2,6,7
 307 1127 307 1127 321.5 1138.5 c 128,-1,8
 336 1150 336 1150 355 1150 c 0,9,10
 376 1150 376 1150 391.5 1136 c 128,-1,11
 407 1122 407 1122 406 1099 c 2,12,-1
 365 494 l 1,13,14
 463 457 463 457 560 457 c 0,15,16
 686 457 686 457 794 512 c 128,-1,17
 902 567 902 567 964.5 660.5 c 128,-1,18
 1027 754 1027 754 1027 862 c 0,19,20
 1027 1044 1027 1044 915.5 1155 c 128,-1,21
 804 1266 804 1266 622 1266 c 0,22,23
 501 1266 501 1266 379.5 1219 c 128,-1,24
 258 1172 258 1172 198 1104 c 0,25,26
 183 1087 183 1087 159 1087 c 0,27,28
 139 1087 139 1087 124.5 1102.5 c 128,-1,29
 110 1118 110 1118 110 1138 c 0,30,31
 110 1156 110 1156 122 1170 c 0,32,33
 201 1260 201 1260 340 1313 c 128,-1,34
 479 1366 479 1366 622 1366 c 0,35,36
 843 1366 843 1366 985 1224.5 c 128,-1,37
 1127 1083 1127 1083 1127 862 c 0,38,39
 1127 727 1127 727 1052.5 612.5 c 128,-1,40
 978 498 978 498 854.5 431 c 128,-1,41
 731 364 731 364 588 358 c 1,42,-1
 1135 43 l 2,43,44
 1159 29 1159 29 1159 3 c 0,45,46
 1159 -17 1159 -17 1144.5 -33.5 c 128,-1,47
 1130 -50 1130 -50 1110 -50 c 0,48,49
 1098 -50 1098 -50 1085 -43 c 2,50,-1
 357 375 l 1,51,-1
 332 -3 l 2,52,53
 331 -25 331 -25 316.5 -36.5 c 128,-1,54
 302 -48 302 -48 283 -48 c 0,55,56
 262 -48 262 -48 246.5 -34 c 128,-1,57
 231 -20 231 -20 232 3 c 2,58,-1
 261 431 l 1,0,1
EndSplineSet
EndChar

StartChar: S
Encoding: 54 83 54
Width: 1182
GlyphClass: 2
Flags: W
LayerCount: 2
Fore
SplineSet
985 1274 m 0,0,1
 1010 1260 1010 1260 1010 1233 c 0,2,3
 1010 1212 1010 1212 995.5 1195.5 c 128,-1,4
 981 1179 981 1179 961 1179 c 0,5,6
 948 1179 948 1179 937 1186 c 0,7,8
 792 1266 792 1266 619 1266 c 0,9,10
 451 1266 451 1266 333 1178.5 c 128,-1,11
 215 1091 215 1091 215 960 c 0,12,13
 215 918 215 918 241.5 882.5 c 128,-1,14
 268 847 268 847 324 817.5 c 128,-1,15
 380 788 380 788 441 765 c 128,-1,16
 502 742 502 742 596 714 c 0,17,18
 783 658 783 658 860 621 c 0,19,20
 1061 524 1061 524 1071 362 c 0,21,22
 1072 353 1072 353 1072 343 c 0,23,24
 1072 248 1072 248 1028 177.5 c 128,-1,25
 984 107 984 107 910 69 c 128,-1,26
 836 31 836 31 753 13 c 128,-1,27
 670 -5 670 -5 578 -5 c 0,28,29
 455 -5 455 -5 337.5 21.5 c 128,-1,30
 220 48 220 48 136 94 c 0,31,32
 111 108 111 108 111 135 c 0,33,34
 111 156 111 156 125.5 172.5 c 128,-1,35
 140 189 140 189 160 189 c 0,36,37
 173 189 173 189 184 182 c 0,38,39
 253 144 253 144 361 119.5 c 128,-1,40
 469 95 469 95 578 95 c 0,41,42
 756 95 756 95 864 157 c 128,-1,43
 972 219 972 219 972 343 c 0,44,45
 972 384 972 384 951 418.5 c 128,-1,46
 930 453 930 453 897.5 479 c 128,-1,47
 865 505 865 505 808.5 531 c 128,-1,48
 752 557 752 557 699.5 575.5 c 128,-1,49
 647 594 647 594 568 618 c 0,50,51
 387 672 387 672 316 705 c 0,52,53
 126 794 126 794 116 941 c 0,54,55
 115 950 115 950 115 960 c 0,56,57
 115 1035 115 1035 143.5 1100.5 c 128,-1,58
 172 1166 172 1166 221 1214 c 128,-1,59
 270 1262 270 1262 334 1297 c 128,-1,60
 398 1332 398 1332 471 1349 c 128,-1,61
 544 1366 544 1366 619 1366 c 0,62,63
 822 1366 822 1366 985 1274 c 0,0,1
EndSplineSet
EndChar

StartChar: T
Encoding: 55 84 55
Width: 1423
GlyphClass: 2
Flags: W
LayerCount: 2
Fore
SplineSet
159 1266 m 2,0,1
 136 1266 136 1266 124 1281 c 128,-1,2
 112 1296 112 1296 112 1316 c 128,-1,3
 112 1336 112 1336 124.5 1351 c 128,-1,4
 137 1366 137 1366 160 1366 c 2,5,-1
 161 1366 l 1,6,-1
 1264 1347 l 2,7,8
 1287 1347 1287 1347 1299 1332 c 128,-1,9
 1311 1317 1311 1317 1311 1297 c 128,-1,10
 1311 1277 1311 1277 1298.5 1262 c 128,-1,11
 1286 1247 1286 1247 1263 1247 c 2,12,-1
 1262 1247 l 1,13,-1
 764 1256 l 1,14,15
 748 914 748 914 748 551 c 0,16,17
 748 460 748 460 753 277.5 c 128,-1,18
 758 95 758 95 758 3 c 0,19,20
 758 -20 758 -20 742.5 -32.5 c 128,-1,21
 727 -45 727 -45 707 -45 c 128,-1,22
 687 -45 687 -45 673 -33 c 128,-1,23
 659 -21 659 -21 658 1 c 0,24,25
 648 306 648 306 648 551 c 0,26,27
 648 915 648 915 664 1257 c 1,28,-1
 159 1266 l 2,0,1
EndSplineSet
EndChar

StartChar: U
Encoding: 56 85 56
Width: 1230
GlyphClass: 2
Flags: W
LayerCount: 2
Fore
SplineSet
185 1345 m 0,0,1
 194 1383 194 1383 232 1383 c 0,2,3
 253 1383 253 1383 268.5 1369.5 c 128,-1,4
 284 1356 284 1356 284 1335 c 0,5,6
 284 1327 284 1327 283 1323 c 0,7,8
 210 989 210 989 210 734 c 0,9,10
 210 617 210 617 219.5 526 c 128,-1,11
 229 435 229 435 254.5 351.5 c 128,-1,12
 280 268 280 268 322 213.5 c 128,-1,13
 364 159 364 159 432 127 c 128,-1,14
 500 95 500 95 591 95 c 0,15,16
 672 95 672 95 736.5 128 c 128,-1,17
 801 161 801 161 845.5 214.5 c 128,-1,18
 890 268 890 268 922.5 349 c 128,-1,19
 955 430 955 430 973.5 513 c 128,-1,20
 992 596 992 596 1002.5 702.5 c 128,-1,21
 1013 809 1013 809 1016.5 898 c 128,-1,22
 1020 987 1020 987 1020 1095 c 0,23,24
 1020 1140 1020 1140 1016 1229 c 128,-1,25
 1012 1318 1012 1318 1012 1362 c 0,26,27
 1012 1384 1012 1384 1027 1396.5 c 128,-1,28
 1042 1409 1042 1409 1062 1409 c 128,-1,29
 1082 1409 1082 1409 1096.5 1397 c 128,-1,30
 1111 1385 1111 1385 1112 1363 c 0,31,32
 1120 1189 1120 1189 1120 1095 c 0,33,34
 1120 984 1120 984 1118 903.5 c 128,-1,35
 1116 823 1116 823 1104.5 700 c 128,-1,36
 1093 577 1093 577 1073 489 c 128,-1,37
 1053 401 1053 401 1013.5 301.5 c 128,-1,38
 974 202 974 202 919.5 140 c 128,-1,39
 865 78 865 78 781 36.5 c 128,-1,40
 697 -5 697 -5 591 -5 c 0,41,42
 506 -5 506 -5 436.5 17.5 c 128,-1,43
 367 40 367 40 317.5 78 c 128,-1,44
 268 116 268 116 231 172.5 c 128,-1,45
 194 229 194 229 171 291 c 128,-1,46
 148 353 148 353 134 430 c 128,-1,47
 120 507 120 507 115 579 c 128,-1,48
 110 651 110 651 110 734 c 0,49,50
 110 999 110 999 185 1345 c 0,0,1
EndSplineSet
EndChar

StartChar: V
Encoding: 57 86 57
Width: 1368
GlyphClass: 2
Flags: W
LayerCount: 2
Fore
SplineSet
114 1297 m 2,0,1
 110 1306 110 1306 110 1317 c 0,2,3
 110 1338 110 1338 126 1351.5 c 128,-1,4
 142 1365 142 1365 163 1365 c 0,5,6
 193 1365 193 1365 206 1335 c 2,7,-1
 670 176 l 1,8,-1
 1162 1336 l 2,9,10
 1175 1365 1175 1365 1204 1365 c 0,11,12
 1225 1365 1225 1365 1241.5 1351 c 128,-1,13
 1258 1337 1258 1337 1258 1316 c 0,14,15
 1258 1305 1258 1305 1254 1296 c 2,16,-1
 715 25 l 2,17,18
 702 -5 702 -5 668 -5 c 0,19,20
 635 -5 635 -5 623 26 c 2,21,-1
 114 1297 l 2,0,1
EndSplineSet
EndChar

StartChar: W
Encoding: 58 87 58
Width: 2006
GlyphClass: 2
Flags: W
LayerCount: 2
Fore
SplineSet
112 1335 m 2,0,1
 110 1340 110 1340 110 1351 c 0,2,3
 110 1372 110 1372 125.5 1385 c 128,-1,4
 141 1398 141 1398 162 1398 c 0,5,6
 198 1398 198 1398 208 1363 c 2,7,-1
 561 192 l 1,8,-1
 984 1198 l 2,9,10
 997 1228 997 1228 1029 1228 c 0,11,12
 1066 1228 1066 1228 1077 1195 c 2,13,-1
 1415 201 l 1,14,-1
 1799 1332 l 2,15,16
 1810 1365 1810 1365 1844 1365 c 0,17,18
 1864 1365 1864 1365 1880 1351.5 c 128,-1,19
 1896 1338 1896 1338 1896 1317 c 0,20,21
 1896 1309 1896 1309 1893 1300 c 2,22,-1
 1462 29 l 2,23,24
 1457 14 1457 14 1443.5 5 c 128,-1,25
 1430 -4 1430 -4 1414 -4 c 0,26,27
 1380 -4 1380 -4 1368 29 c 2,28,-1
 1025 1038 l 1,29,-1
 599 26 l 2,30,31
 587 -3 587 -3 552 -3 c 0,32,33
 515 -3 515 -3 505 31 c 2,34,-1
 112 1335 l 2,0,1
EndSplineSet
EndChar

StartChar: X
Encoding: 59 88 59
Width: 1267
GlyphClass: 2
Flags: W
LayerCount: 2
Fore
SplineSet
153 1276 m 0,0,1
 153 1296 153 1296 167 1311.5 c 128,-1,2
 181 1327 181 1327 202 1327 c 0,3,4
 229 1327 229 1327 244 1306 c 2,5,-1
 623 769 l 1,6,-1
 1029 1366 l 2,7,8
 1043 1388 1043 1388 1069 1388 c 0,9,10
 1090 1388 1090 1388 1105 1373.5 c 128,-1,11
 1120 1359 1120 1359 1120 1339 c 0,12,13
 1120 1324 1120 1324 1111 1310 c 2,14,-1
 684 682 l 1,15,-1
 1148 25 l 2,16,17
 1157 13 1157 13 1157 -3 c 0,18,19
 1157 -23 1157 -23 1143 -38.5 c 128,-1,20
 1129 -54 1129 -54 1108 -54 c 0,21,22
 1081 -54 1081 -54 1066 -33 c 2,23,-1
 624 594 l 1,24,-1
 201 -28 l 2,25,26
 187 -50 187 -50 161 -50 c 0,27,28
 140 -50 140 -50 125 -35.5 c 128,-1,29
 110 -21 110 -21 110 -1 c 0,30,31
 110 14 110 14 119 28 c 2,32,-1
 563 681 l 1,33,-1
 162 1248 l 2,34,35
 153 1260 153 1260 153 1276 c 0,0,1
EndSplineSet
EndChar

StartChar: Y
Encoding: 60 89 60
Width: 1267
GlyphClass: 2
Flags: W
LayerCount: 2
Fore
SplineSet
1108 1387 m 0,0,1
 1129 1387 1129 1387 1142.5 1372 c 128,-1,2
 1156 1357 1156 1357 1156 1337 c 0,3,4
 1156 1321 1156 1321 1148 1310 c 2,5,-1
 675 618 l 1,6,-1
 686 1 l 2,7,8
 687 -22 687 -22 671.5 -35 c 128,-1,9
 656 -48 656 -48 635 -48 c 0,10,11
 615 -48 615 -48 600.5 -36 c 128,-1,12
 586 -24 586 -24 586 -1 c 2,13,-1
 575 617 l 1,14,-1
 119 1258 l 2,15,16
 110 1270 110 1270 110 1286 c 0,17,18
 110 1306 110 1306 124 1321.5 c 128,-1,19
 138 1337 138 1337 159 1337 c 0,20,21
 186 1337 186 1337 201 1316 c 2,22,-1
 624 720 l 1,23,-1
 1066 1366 l 2,24,25
 1080 1387 1080 1387 1108 1387 c 0,0,1
EndSplineSet
EndChar

StartChar: Z
Encoding: 61 90 61
Width: 1422
GlyphClass: 2
Flags: W
LayerCount: 2
Fore
SplineSet
172 1191 m 0,0,1
 162 1189 162 1189 159 1189 c 0,2,3
 138 1189 138 1189 124.5 1205 c 128,-1,4
 111 1221 111 1221 111 1242 c 0,5,6
 111 1280 111 1280 148 1289 c 0,7,8
 454 1366 454 1366 745 1366 c 2,9,-1
 777 1366 l 2,10,11
 1150 1366 1150 1366 1150 1211 c 0,12,13
 1150 1158 1150 1158 1100 1105 c 0,14,15
 821 797 821 797 642 578.5 c 128,-1,16
 463 360 463 360 303 108 c 1,17,18
 749 154 749 154 1197 154 c 2,19,-1
 1262 154 l 2,20,21
 1282 154 1282 154 1297 139 c 128,-1,22
 1312 124 1312 124 1312 104 c 128,-1,23
 1312 84 1312 84 1297 69 c 128,-1,24
 1282 54 1282 54 1262 54 c 2,25,-1
 1197 54 l 2,26,27
 719 54 719 54 212 -3 c 1,28,-1
 206 -3 l 2,29,30
 184 -3 184 -3 170 12.5 c 128,-1,31
 156 28 156 28 156 48 c 0,32,33
 156 62 156 62 163 73 c 0,34,35
 339 362 339 362 532 602 c 128,-1,36
 725 842 725 842 1026 1173 c 0,37,38
 1050 1199 1050 1199 1050 1211 c 0,39,40
 1050 1220 1050 1220 1008.5 1232.5 c 128,-1,41
 967 1245 967 1245 893.5 1255.5 c 128,-1,42
 820 1266 820 1266 745 1266 c 0,43,44
 474 1266 474 1266 172 1191 c 0,0,1
EndSplineSet
EndChar

StartChar: bracketleft
Encoding: 62 91 62
Width: 562
GlyphClass: 2
Flags: W
LayerCount: 2
Fore
SplineSet
84 266 m 0,0,1
 84 380 84 380 96 617 c 128,-1,2
 108 854 108 854 108 972 c 0,3,4
 108 1029 108 1029 98 1145 c 128,-1,5
 88 1261 88 1261 88 1319 c 0,6,7
 88 1337 88 1337 102 1354 c 128,-1,8
 116 1371 116 1371 138 1371 c 2,9,-1
 142 1371 l 1,10,11
 206 1366 206 1366 295 1366 c 0,12,13
 385 1366 385 1366 445 1371 c 1,14,-1
 450 1371 l 2,15,16
 472 1371 472 1371 484.5 1355.5 c 128,-1,17
 497 1340 497 1340 497 1320 c 0,18,19
 497 1301 497 1301 485.5 1286.5 c 128,-1,20
 474 1272 474 1272 453 1271 c 0,21,22
 388 1266 388 1266 295 1266 c 0,23,24
 258 1266 258 1266 194 1268 c 1,25,26
 208 1127 208 1127 208 972 c 0,27,28
 208 853 208 853 196 616.5 c 128,-1,29
 184 380 184 380 184 266 c 0,30,31
 184 222 184 222 193 193 c 128,-1,32
 202 164 202 164 218 145.5 c 128,-1,33
 234 127 234 127 268.5 117 c 128,-1,34
 303 107 303 107 341 102.5 c 128,-1,35
 379 98 379 98 446 95 c 0,36,37
 468 94 468 94 480 79.5 c 128,-1,38
 492 65 492 65 492 45 c 128,-1,39
 492 25 492 25 480 10 c 128,-1,40
 468 -5 468 -5 445 -5 c 2,41,-1
 442 -5 l 2,42,43
 376 -2 376 -2 328 5 c 128,-1,44
 280 12 280 12 231 29.5 c 128,-1,45
 182 47 182 47 152 75.5 c 128,-1,46
 122 104 122 104 103 152 c 128,-1,47
 84 200 84 200 84 266 c 0,0,1
EndSplineSet
EndChar

StartChar: backslash
Encoding: 63 92 63
Width: 967
GlyphClass: 2
Flags: W
LayerCount: 2
Fore
SplineSet
94 1316 m 0,0,1
 94 1336 94 1336 108.5 1351 c 128,-1,2
 123 1366 123 1366 144 1366 c 0,3,4
 170 1366 170 1366 184 1346 c 0,5,6
 321 1162 321 1162 410 1032.5 c 128,-1,7
 499 903 499 903 601 735.5 c 128,-1,8
 703 568 703 568 784.5 392 c 128,-1,9
 866 216 866 216 936 17 c 0,10,11
 939 8 939 8 939 0 c 0,12,13
 939 -21 939 -21 922.5 -35 c 128,-1,14
 906 -49 906 -49 886 -49 c 0,15,16
 853 -49 853 -49 842 -17 c 0,17,18
 773 179 773 179 694 350 c 128,-1,19
 615 521 615 521 516 684 c 128,-1,20
 417 847 417 847 328 976 c 128,-1,21
 239 1105 239 1105 104 1286 c 0,22,23
 94 1299 94 1299 94 1316 c 0,0,1
EndSplineSet
EndChar

StartChar: bracketright
Encoding: 64 93 64
Width: 735
GlyphClass: 2
Flags: W
LayerCount: 2
Fore
SplineSet
376 285 m 0,0,1
 376 380 376 380 349 578 c 128,-1,2
 322 776 322 776 322 875 c 0,3,4
 322 1017 322 1017 326.5 1095.5 c 128,-1,5
 331 1174 331 1174 349 1268 c 1,6,7
 212 1274 212 1274 92 1294 c 0,8,9
 52 1300 52 1300 52 1341 c 0,10,11
 52 1361 52 1361 64.5 1377 c 128,-1,12
 77 1393 77 1393 99 1393 c 0,13,14
 100 1393 100 1393 103 1392.5 c 128,-1,15
 106 1392 106 1392 108 1392 c 0,16,17
 250 1369 250 1369 411 1366 c 0,18,19
 432 1365 432 1365 446 1349.5 c 128,-1,20
 460 1334 460 1334 460 1314 c 0,21,22
 460 1308 460 1308 459 1305 c 0,23,24
 434 1192 434 1192 428 1111 c 128,-1,25
 422 1030 422 1030 422 875 c 0,26,27
 422 779 422 779 449 581 c 128,-1,28
 476 383 476 383 476 285 c 0,29,30
 476 199 476 199 445.5 139.5 c 128,-1,31
 415 80 415 80 360 50 c 128,-1,32
 305 20 305 20 244.5 7.5 c 128,-1,33
 184 -5 184 -5 107 -5 c 0,34,35
 87 -5 87 -5 72 10 c 128,-1,36
 57 25 57 25 57 45 c 128,-1,37
 57 65 57 65 72 80 c 128,-1,38
 87 95 87 95 107 95 c 0,39,40
 251 95 251 95 313.5 133.5 c 128,-1,41
 376 172 376 172 376 285 c 0,0,1
EndSplineSet
EndChar

StartChar: asciicircum
Encoding: 65 94 65
Width: 703
GlyphClass: 2
Flags: W
LayerCount: 2
Fore
SplineSet
208 1143 m 2,0,1
 194 1120 194 1120 168 1120 c 0,2,3
 147 1120 147 1120 130.5 1134.5 c 128,-1,4
 114 1149 114 1149 114 1169 c 0,5,6
 114 1181 114 1181 122 1195 c 2,7,-1
 288 1464 l 2,8,9
 303 1487 303 1487 331 1487 c 0,10,11
 351 1487 351 1487 363 1476 c 0,12,13
 494 1366 494 1366 578 1191 c 0,14,15
 583 1181 583 1181 583 1169 c 0,16,17
 583 1149 583 1149 566.5 1134.5 c 128,-1,18
 550 1120 550 1120 530 1120 c 0,19,20
 501 1120 501 1120 488 1147 c 0,21,22
 427 1277 427 1277 342 1360 c 1,23,-1
 208 1143 l 2,0,1
EndSplineSet
EndChar

StartChar: underscore
Encoding: 66 95 66
Width: 667
GlyphClass: 2
Flags: W
LayerCount: 2
Fore
SplineSet
718 45 m 128,-1,1
 718 25 718 25 703 10 c 128,-1,2
 688 -5 688 -5 668 -5 c 2,3,-1
 0 -5 l 2,4,5
 -20 -5 -20 -5 -35 10 c 128,-1,6
 -50 25 -50 25 -50 45 c 128,-1,7
 -50 65 -50 65 -35 80 c 128,-1,8
 -20 95 -20 95 0 95 c 2,9,-1
 668 95 l 2,10,11
 688 95 688 95 703 80 c 128,-1,0
 718 65 718 65 718 45 c 128,-1,1
EndSplineSet
EndChar

StartChar: grave
Encoding: 67 96 67
Width: 525
GlyphClass: 2
Flags: W
LayerCount: 2
Fore
SplineSet
131 1481 m 0,0,1
 131 1501 131 1501 145.5 1516.5 c 128,-1,2
 160 1532 160 1532 180 1532 c 0,3,4
 204 1532 204 1532 220 1513 c 0,5,6
 311 1398 311 1398 406 1190 c 0,7,8
 411 1178 411 1178 411 1169 c 0,9,10
 411 1148 411 1148 394.5 1134 c 128,-1,11
 378 1120 378 1120 357 1120 c 0,12,13
 328 1120 328 1120 315 1148 c 0,14,15
 226 1343 226 1343 142 1451 c 0,16,17
 131 1465 131 1465 131 1481 c 0,0,1
EndSplineSet
EndChar

StartChar: a
Encoding: 68 97 68
Width: 1229
GlyphClass: 2
Flags: W
LayerCount: 2
Fore
SplineSet
882 876 m 0,0,1
 882 855 882 855 867.5 841 c 128,-1,2
 853 827 853 827 833 827 c 0,3,4
 814 827 814 827 800 839 c 0,5,6
 716 913 716 913 605 913 c 0,7,8
 498 913 498 913 405.5 839.5 c 128,-1,9
 313 766 313 766 261.5 652.5 c 128,-1,10
 210 539 210 539 210 419 c 0,11,12
 210 271 210 271 283.5 183 c 128,-1,13
 357 95 357 95 480 95 c 0,14,15
 564 95 564 95 636.5 129.5 c 128,-1,16
 709 164 709 164 760.5 224.5 c 128,-1,17
 812 285 812 285 847.5 362 c 128,-1,18
 883 439 883 439 900 528 c 0,19,20
 920 637 920 637 962 961 c 0,21,22
 968 1003 968 1003 1011 1003 c 0,23,24
 1032 1003 1032 1003 1047 990 c 128,-1,25
 1062 977 1062 977 1062 956 c 2,26,-1
 1062 949 l 1,27,-1
 1000 459 l 1,28,29
 990 329 990 329 990 293 c 0,30,31
 990 95 990 95 1069 95 c 0,32,33
 1089 95 1089 95 1104 80 c 128,-1,34
 1119 65 1119 65 1119 45 c 128,-1,35
 1119 25 1119 25 1104 10 c 128,-1,36
 1089 -5 1089 -5 1069 -5 c 0,37,38
 1030 -5 1030 -5 999 10.5 c 128,-1,39
 968 26 968 26 949.5 49.5 c 128,-1,40
 931 73 931 73 918 106.5 c 128,-1,41
 905 140 905 140 899.5 170.5 c 128,-1,42
 894 201 894 201 892 235 c 1,43,44
 822 125 822 125 717.5 60 c 128,-1,45
 613 -5 613 -5 480 -5 c 0,46,47
 311 -5 311 -5 210.5 116.5 c 128,-1,48
 110 238 110 238 110 419 c 0,49,50
 110 523 110 523 145.5 628 c 128,-1,51
 181 733 181 733 243.5 819 c 128,-1,52
 306 905 306 905 401 959 c 128,-1,53
 496 1013 496 1013 605 1013 c 0,54,55
 753 1013 753 1013 866 913 c 0,56,57
 882 898 882 898 882 876 c 0,0,1
EndSplineSet
EndChar

StartChar: b
Encoding: 69 98 69
Width: 1123
GlyphClass: 2
Flags: W
LayerCount: 2
Fore
SplineSet
152 1363 m 2,0,1
 153 1385 153 1385 167 1397 c 128,-1,2
 181 1409 181 1409 201 1409 c 0,3,4
 222 1409 222 1409 237.5 1395.5 c 128,-1,5
 253 1382 253 1382 252 1359 c 2,6,-1
 233 773 l 1,7,8
 358 1021 358 1021 611 1021 c 0,9,10
 713 1021 713 1021 792 976.5 c 128,-1,11
 871 932 871 932 918 856 c 128,-1,12
 965 780 965 780 989 688.5 c 128,-1,13
 1013 597 1013 597 1013 495 c 0,14,15
 1013 278 1013 278 858.5 136.5 c 128,-1,16
 704 -5 704 -5 475 -5 c 0,17,18
 398 -5 398 -5 321 15 c 0,19,20
 286 23 286 23 286 60 c 0,21,22
 286 81 286 81 299 97 c 128,-1,23
 312 113 312 113 333 113 c 0,24,25
 337 113 337 113 347 111 c 0,26,27
 408 95 408 95 475 95 c 0,28,29
 667 95 667 95 790 208 c 128,-1,30
 913 321 913 321 913 495 c 0,31,32
 913 685 913 685 834 803 c 128,-1,33
 755 921 755 921 611 921 c 0,34,35
 554 921 554 921 505.5 903 c 128,-1,36
 457 885 457 885 420.5 855 c 128,-1,37
 384 825 384 825 354 777.5 c 128,-1,38
 324 730 324 730 303.5 681.5 c 128,-1,39
 283 633 283 633 267 566 c 128,-1,40
 251 499 251 499 241.5 441.5 c 128,-1,41
 232 384 232 384 225.5 308 c 128,-1,42
 219 232 219 232 216 174.5 c 128,-1,43
 213 117 213 117 210 43 c 0,44,45
 209 21 209 21 195 9 c 128,-1,46
 181 -3 181 -3 161 -3 c 0,47,48
 140 -3 140 -3 124.5 10.5 c 128,-1,49
 109 24 109 24 110 47 c 2,50,-1
 152 1363 l 2,0,1
EndSplineSet
EndChar

StartChar: c
Encoding: 70 99 70
Width: 1031
GlyphClass: 2
Flags: W
LayerCount: 2
Fore
SplineSet
905 877 m 0,0,1
 905 856 905 856 890 841.5 c 128,-1,2
 875 827 875 827 855 827 c 0,3,4
 837 827 837 827 822 839 c 0,5,6
 727 921 727 921 611 921 c 0,7,8
 525 921 525 921 448.5 875.5 c 128,-1,9
 372 830 372 830 320.5 757.5 c 128,-1,10
 269 685 269 685 239.5 594 c 128,-1,11
 210 503 210 503 210 411 c 0,12,13
 210 95 210 95 528 95 c 0,14,15
 694 95 694 95 845 186 c 0,16,17
 856 193 856 193 870 193 c 0,18,19
 890 193 890 193 905.5 179 c 128,-1,20
 921 165 921 165 921 144 c 0,21,22
 921 114 921 114 897 100 c 0,23,24
 721 -5 721 -5 528 -5 c 0,25,26
 418 -5 418 -5 335.5 29 c 128,-1,27
 253 63 253 63 205 122.5 c 128,-1,28
 157 182 157 182 133.5 254.5 c 128,-1,29
 110 327 110 327 110 411 c 0,30,31
 110 494 110 494 131 579 c 128,-1,32
 152 664 152 664 194.5 743.5 c 128,-1,33
 237 823 237 823 295.5 885 c 128,-1,34
 354 947 354 947 436 984 c 128,-1,35
 518 1021 518 1021 611 1021 c 0,36,37
 765 1021 765 1021 888 915 c 0,38,39
 905 900 905 900 905 877 c 0,0,1
EndSplineSet
EndChar

StartChar: d
Encoding: 71 100 71
Width: 1177
GlyphClass: 2
Flags: W
LayerCount: 2
Fore
SplineSet
885 842 m 0,0,1
 885 821 885 821 871 806 c 128,-1,2
 857 791 857 791 836 791 c 0,3,4
 813 791 813 791 798 807 c 0,5,6
 693 919 693 919 567 919 c 0,7,8
 462 919 462 919 379 855.5 c 128,-1,9
 296 792 296 792 253 689 c 128,-1,10
 210 586 210 586 210 465 c 0,11,12
 210 285 210 285 294 190 c 128,-1,13
 378 95 378 95 534 95 c 0,14,15
 625 95 625 95 695.5 137 c 128,-1,16
 766 179 766 179 809 252 c 128,-1,17
 852 325 852 325 874.5 415.5 c 128,-1,18
 897 506 897 506 900 611 c 0,19,20
 904 736 904 736 910 986.5 c 128,-1,21
 916 1237 916 1237 920 1362 c 0,22,23
 921 1385 921 1385 935.5 1397 c 128,-1,24
 950 1409 950 1409 970 1409 c 128,-1,25
 990 1409 990 1409 1005.5 1396 c 128,-1,26
 1021 1383 1021 1383 1020 1360 c 2,27,-1
 1001 510 l 1,28,29
 1001 284 1001 284 1011.5 201 c 128,-1,30
 1022 118 1022 118 1056 77 c 0,31,32
 1067 63 1067 63 1067 45 c 0,33,34
 1067 25 1067 25 1053 10 c 128,-1,35
 1039 -5 1039 -5 1018 -5 c 0,36,37
 994 -5 994 -5 979 13 c 0,38,39
 920 84 920 84 908 224 c 1,40,41
 850 119 850 119 756 57 c 128,-1,42
 662 -5 662 -5 534 -5 c 0,43,44
 336 -5 336 -5 223 123.5 c 128,-1,45
 110 252 110 252 110 465 c 0,46,47
 110 568 110 568 140.5 666 c 128,-1,48
 171 764 171 764 227 843 c 128,-1,49
 283 922 283 922 371.5 970.5 c 128,-1,50
 460 1019 460 1019 567 1019 c 0,51,52
 738 1019 738 1019 872 875 c 0,53,54
 885 862 885 862 885 842 c 0,0,1
EndSplineSet
EndChar

StartChar: e
Encoding: 72 101 72
Width: 1141
GlyphClass: 2
Flags: W
LayerCount: 2
Fore
SplineSet
982 231 m 0,0,1
 1002 231 1002 231 1016.5 216.5 c 128,-1,2
 1031 202 1031 202 1031 181 c 0,3,4
 1031 157 1031 157 1015 144 c 0,5,6
 936 73 936 73 836 34 c 128,-1,7
 736 -5 736 -5 630 -5 c 0,8,9
 466 -5 466 -5 345 79.5 c 128,-1,10
 224 164 224 164 188 309 c 0,11,12
 186 309 186 309 181 308.5 c 128,-1,13
 176 308 176 308 173 308 c 0,14,15
 110 308 110 308 110 359 c 0,16,17
 110 402 110 402 175 408 c 1,18,19
 175 522 175 522 214.5 632 c 128,-1,20
 254 742 254 742 322.5 828.5 c 128,-1,21
 391 915 391 915 493.5 968 c 128,-1,22
 596 1021 596 1021 713 1021 c 0,23,24
 784 1021 784 1021 848 994 c 128,-1,25
 912 967 912 967 955.5 909 c 128,-1,26
 999 851 999 851 999 775 c 0,27,28
 999 725 999 725 980.5 680.5 c 128,-1,29
 962 636 962 636 928 602.5 c 128,-1,30
 894 569 894 569 867 548.5 c 128,-1,31
 840 528 840 528 804 507 c 0,32,33
 566 365 566 365 289 321 c 1,34,35
 320 218 320 218 410.5 156.5 c 128,-1,36
 501 95 501 95 630 95 c 0,37,38
 717 95 717 95 800 127 c 128,-1,39
 883 159 883 159 948 218 c 0,40,41
 961 231 961 231 982 231 c 0,0,1
275 420 m 1,42,43
 531 461 531 461 752 593 c 0,44,45
 899 680 899 680 899 775 c 0,46,47
 899 838 899 838 845.5 879.5 c 128,-1,48
 792 921 792 921 713 921 c 0,49,50
 623 921 623 921 541.5 879 c 128,-1,51
 460 837 460 837 403 768 c 128,-1,52
 346 699 346 699 311.5 608 c 128,-1,53
 277 517 277 517 275 420 c 1,42,43
EndSplineSet
EndChar

StartChar: f
Encoding: 73 102 73
Width: 773
GlyphClass: 2
Flags: W
LayerCount: 2
Fore
SplineSet
661 1273 m 0,0,1
 661 1253 661 1253 647 1238.5 c 128,-1,2
 633 1224 633 1224 612 1224 c 0,3,4
 590 1224 590 1224 575 1240 c 0,5,6
 540 1278 540 1278 519 1278 c 0,7,8
 504 1278 504 1278 483 1250 c 128,-1,9
 462 1222 462 1222 440.5 1160.5 c 128,-1,10
 419 1099 419 1099 413 1024 c 0,11,12
 394 820 394 820 385 602 c 1,13,14
 494 599 494 599 619 585 c 0,15,16
 640 583 640 583 650.5 569 c 128,-1,17
 661 555 661 555 661 536 c 0,18,19
 661 515 661 515 648.5 500 c 128,-1,20
 636 485 636 485 614 485 c 2,21,-1
 607 485 l 1,22,23
 485 499 485 499 381 502 c 1,24,25
 373 279 373 279 373 -4 c 0,26,27
 373 -27 373 -27 358 -39.5 c 128,-1,28
 343 -52 343 -52 323 -52 c 128,-1,29
 303 -52 303 -52 288 -39.5 c 128,-1,30
 273 -27 273 -27 273 -4 c 0,31,32
 273 280 273 280 281 503 c 1,33,34
 217 503 217 503 164 499 c 1,35,-1
 159 499 l 2,36,37
 137 499 137 499 124.5 514.5 c 128,-1,38
 112 530 112 530 112 550 c 0,39,40
 112 569 112 569 123.5 583.5 c 128,-1,41
 135 598 135 598 156 599 c 0,42,43
 216 603 216 603 285 603 c 1,44,45
 294 824 294 824 313 1032 c 0,46,47
 318 1093 318 1093 331 1149.5 c 128,-1,48
 344 1206 344 1206 367 1260 c 128,-1,49
 390 1314 390 1314 429.5 1346 c 128,-1,50
 469 1378 469 1378 519 1378 c 0,51,52
 585 1378 585 1378 649 1306 c 0,53,54
 661 1292 661 1292 661 1273 c 0,0,1
EndSplineSet
EndChar

StartChar: g
Encoding: 74 103 74
Width: 1137
GlyphClass: 2
Flags: W
LayerCount: 2
Fore
SplineSet
800 967 m 0,0,1
 823 953 823 953 823 927 c 0,2,3
 823 906 823 906 808.5 889.5 c 128,-1,4
 794 873 794 873 774 873 c 0,5,6
 762 873 762 873 748 881 c 0,7,8
 682 921 682 921 593 921 c 0,9,10
 511 921 511 921 439.5 878 c 128,-1,11
 368 835 368 835 320.5 765 c 128,-1,12
 273 695 273 695 246 605 c 128,-1,13
 219 515 219 515 219 420 c 0,14,15
 219 283 219 283 305.5 189 c 128,-1,16
 392 95 392 95 516 95 c 0,17,18
 589 95 589 95 648.5 121.5 c 128,-1,19
 708 148 708 148 750 193 c 128,-1,20
 792 238 792 238 823.5 305.5 c 128,-1,21
 855 373 855 373 874 446 c 128,-1,22
 893 519 893 519 904.5 611 c 128,-1,23
 916 703 916 703 920 787.5 c 128,-1,24
 924 872 924 872 924 971 c 0,25,26
 924 992 924 992 939 1006.5 c 128,-1,27
 954 1021 954 1021 974 1021 c 2,28,-1
 978 1021 l 2,29,30
 997 1020 997 1020 1010 1005 c 128,-1,31
 1023 990 1023 990 1024 973 c 0,32,33
 1027 900 1027 900 1027 764 c 2,34,-1
 1027 713 l 2,35,36
 1027 609 1027 609 1026 544 c 128,-1,37
 1025 479 1025 479 1020.5 374.5 c 128,-1,38
 1016 270 1016 270 1007 201.5 c 128,-1,39
 998 133 998 133 980 42.5 c 128,-1,40
 962 -48 962 -48 937 -107 c 128,-1,41
 912 -166 912 -166 873.5 -230 c 128,-1,42
 835 -294 835 -294 786 -330.5 c 128,-1,43
 737 -367 737 -367 669.5 -391 c 128,-1,44
 602 -415 602 -415 521 -415 c 0,45,46
 384 -415 384 -415 278 -352.5 c 128,-1,47
 172 -290 172 -290 117 -196 c 0,48,49
 110 -183 110 -183 110 -171 c 0,50,51
 110 -151 110 -151 126.5 -136.5 c 128,-1,52
 143 -122 143 -122 163 -122 c 0,53,54
 189 -122 189 -122 203 -146 c 0,55,56
 245 -217 245 -217 328.5 -266 c 128,-1,57
 412 -315 412 -315 521 -315 c 0,58,59
 616 -315 616 -315 686 -275 c 128,-1,60
 756 -235 756 -235 800.5 -157.5 c 128,-1,61
 845 -80 845 -80 871 19 c 128,-1,62
 897 118 897 118 910 251 c 1,63,64
 852 133 852 133 753.5 64 c 128,-1,65
 655 -5 655 -5 516 -5 c 0,66,67
 348 -5 348 -5 233.5 119.5 c 128,-1,68
 119 244 119 244 119 420 c 0,69,70
 119 504 119 504 138 588.5 c 128,-1,71
 157 673 157 673 196.5 751 c 128,-1,72
 236 829 236 829 291 889 c 128,-1,73
 346 949 346 949 424.5 985 c 128,-1,74
 503 1021 503 1021 593 1021 c 0,75,76
 711 1021 711 1021 800 967 c 0,0,1
EndSplineSet
EndChar

StartChar: h
Encoding: 75 104 75
Width: 1003
GlyphClass: 2
Flags: W
LayerCount: 2
Fore
SplineSet
833 -49 m 0,0,1
 816 -49 816 -49 803.5 -37.5 c 128,-1,2
 791 -26 791 -26 785 -11 c 128,-1,3
 779 4 779 4 775.5 29.5 c 128,-1,4
 772 55 772 55 771.5 71 c 128,-1,5
 771 87 771 87 771 113 c 2,6,-1
 771 119 l 2,7,8
 771 186 771 186 782 363 c 128,-1,9
 793 540 793 540 793 609 c 0,10,11
 793 756 793 756 748 838 c 128,-1,12
 703 920 703 920 615 920 c 0,13,14
 528 920 528 920 453.5 830.5 c 128,-1,15
 379 741 379 741 330.5 599.5 c 128,-1,16
 282 458 282 458 251 303 c 128,-1,17
 220 148 220 148 210 -3 c 0,18,19
 209 -25 209 -25 194.5 -36.5 c 128,-1,20
 180 -48 180 -48 161 -48 c 0,21,22
 140 -48 140 -48 124.5 -34 c 128,-1,23
 109 -20 109 -20 110 3 c 2,24,-1
 200 1374 l 2,25,26
 201 1396 201 1396 215.5 1407.5 c 128,-1,27
 230 1419 230 1419 249 1419 c 0,28,29
 270 1419 270 1419 285.5 1405 c 128,-1,30
 301 1391 301 1391 300 1368 c 2,31,-1
 256 692 l 1,32,33
 394 1020 394 1020 615 1020 c 0,34,35
 691 1020 691 1020 747.5 984 c 128,-1,36
 804 948 804 948 834.5 886.5 c 128,-1,37
 865 825 865 825 879 756 c 128,-1,38
 893 687 893 687 893 609 c 0,39,40
 893 539 893 539 882 362.5 c 128,-1,41
 871 186 871 186 871 119 c 0,42,43
 871 44 871 44 882 20 c 0,44,45
 886 11 886 11 886 0 c 0,46,47
 886 -21 886 -21 869.5 -35 c 128,-1,48
 853 -49 853 -49 833 -49 c 0,0,1
EndSplineSet
EndChar

StartChar: j
Encoding: 77 106 77
Width: 630
GlyphClass: 2
Flags: W
LayerCount: 2
Fore
SplineSet
159 -360 m 0,0,1
 166 -360 166 -360 182.5 -362 c 128,-1,2
 199 -364 199 -364 208 -364 c 0,3,4
 364 -364 364 -364 364 581 c 0,5,6
 364 637 364 637 362.5 777 c 128,-1,7
 361 917 361 917 361 972 c 0,8,9
 361 994 361 994 376 1006.5 c 128,-1,10
 391 1019 391 1019 411 1019 c 128,-1,11
 431 1019 431 1019 445.5 1007 c 128,-1,12
 460 995 460 995 461 972 c 0,13,14
 464 860 464 860 464 581 c 2,15,-1
 464 403 l 2,16,17
 464 318 464 318 463 252.5 c 128,-1,18
 462 187 462 187 458 103 c 128,-1,19
 454 19 454 19 446 -44.5 c 128,-1,20
 438 -108 438 -108 426 -176.5 c 128,-1,21
 414 -245 414 -245 394.5 -293.5 c 128,-1,22
 375 -342 375 -342 349.5 -382.5 c 128,-1,23
 324 -423 324 -423 288 -443.5 c 128,-1,24
 252 -464 252 -464 208 -464 c 0,25,26
 176 -464 176 -464 151 -459 c 0,27,28
 132 -455 132 -455 122 -441.5 c 128,-1,29
 112 -428 112 -428 112 -411 c 0,30,31
 112 -391 112 -391 125 -375.5 c 128,-1,32
 138 -360 138 -360 159 -360 c 0,0,1
302 1383 m 0,33,34
 302 1415 302 1415 329.5 1437 c 128,-1,35
 357 1459 357 1459 394 1459 c 0,36,37
 430 1459 430 1459 450 1437 c 128,-1,38
 470 1415 470 1415 470 1378 c 0,39,40
 470 1340 470 1340 447.5 1313 c 128,-1,41
 425 1286 425 1286 389 1286 c 128,-1,42
 353 1286 353 1286 327.5 1316 c 128,-1,43
 302 1346 302 1346 302 1383 c 0,33,34
EndSplineSet
EndChar

StartChar: k
Encoding: 78 107 78
Width: 979
GlyphClass: 2
Flags: W
LayerCount: 2
Fore
SplineSet
734 1021 m 0,0,1
 755 1021 755 1021 769.5 1006.5 c 128,-1,2
 784 992 784 992 784 971 c 0,3,4
 784 953 784 953 773 939 c 0,5,6
 569 690 569 690 270 523 c 1,7,8
 396 386 396 386 549 256.5 c 128,-1,9
 702 127 702 127 844 43 c 0,10,11
 868 29 868 29 868 2 c 0,12,13
 868 -18 868 -18 853.5 -34 c 128,-1,14
 839 -50 839 -50 819 -50 c 0,15,16
 807 -50 807 -50 794 -43 c 0,17,18
 652 40 652 40 503.5 163 c 128,-1,19
 355 286 355 286 228 420 c 1,20,-1
 210 2 l 2,21,22
 209 -20 209 -20 194.5 -32 c 128,-1,23
 180 -44 180 -44 160 -44 c 0,24,25
 139 -44 139 -44 124 -30.5 c 128,-1,26
 109 -17 109 -17 110 6 c 2,27,-1
 170 1363 l 2,28,29
 171 1385 171 1385 185.5 1397 c 128,-1,30
 200 1409 200 1409 220 1409 c 0,31,32
 241 1409 241 1409 256 1395.5 c 128,-1,33
 271 1382 271 1382 270 1359 c 2,34,-1
 237 620 l 1,35,36
 368 696 368 696 488 796 c 128,-1,37
 608 896 608 896 695 1003 c 0,38,39
 710 1021 710 1021 734 1021 c 0,0,1
EndSplineSet
EndChar

StartChar: l
Encoding: 79 108 79
Width: 379
GlyphClass: 2
Flags: W
LayerCount: 2
Fore
SplineSet
149 1352 m 0,0,1
 150 1374 150 1374 164.5 1386 c 128,-1,2
 179 1398 179 1398 199 1398 c 128,-1,3
 219 1398 219 1398 234 1386 c 128,-1,4
 249 1374 249 1374 249 1351 c 0,5,6
 249 1187 249 1187 239.5 695.5 c 128,-1,7
 230 204 230 204 230 0 c 0,8,9
 230 -23 230 -23 215 -35.5 c 128,-1,10
 200 -48 200 -48 180 -48 c 128,-1,11
 160 -48 160 -48 145 -35.5 c 128,-1,12
 130 -23 130 -23 130 0 c 0,13,14
 130 942 130 942 149 1352 c 0,0,1
EndSplineSet
EndChar

StartChar: m
Encoding: 80 109 80
Width: 1482
GlyphClass: 2
Flags: W
LayerCount: 2
Fore
SplineSet
1251 184 m 0,0,1
 1251 251 1251 251 1259 417 c 128,-1,2
 1267 583 1267 583 1267 651 c 0,3,4
 1267 921 1267 921 1072 921 c 0,5,6
 1026 921 1026 921 988.5 900.5 c 128,-1,7
 951 880 951 880 923.5 840 c 128,-1,8
 896 800 896 800 875 752 c 128,-1,9
 854 704 854 704 839.5 638.5 c 128,-1,10
 825 573 825 573 815 512.5 c 128,-1,11
 805 452 805 452 798.5 375.5 c 128,-1,12
 792 299 792 299 788 241 c 128,-1,13
 784 183 784 183 779.5 110.5 c 128,-1,14
 775 38 775 38 771 -4 c 0,15,16
 769 -25 769 -25 755 -36.5 c 128,-1,17
 741 -48 741 -48 722 -48 c 0,18,19
 702 -48 702 -48 686.5 -35.5 c 128,-1,20
 671 -23 671 -23 671 -1 c 0,21,22
 671 82 671 82 684 271 c 128,-1,23
 697 460 697 460 697 549 c 0,24,25
 697 623 697 623 696 658 c 128,-1,26
 695 693 695 693 690 746 c 128,-1,27
 685 799 685 799 672.5 823 c 128,-1,28
 660 847 660 847 638.5 874 c 128,-1,29
 617 901 617 901 582.5 911 c 128,-1,30
 548 921 548 921 500 921 c 0,31,32
 410 921 410 921 360 865.5 c 128,-1,33
 310 810 310 810 282 699 c 0,34,35
 262 620 262 620 250 504 c 2,36,-1
 210 4 l 2,37,38
 209 -17 209 -17 194.5 -28.5 c 128,-1,39
 180 -40 180 -40 161 -40 c 0,40,41
 140 -40 140 -40 125 -27.5 c 128,-1,42
 110 -15 110 -15 110 7 c 2,43,-1
 110 12 l 1,44,-1
 143 437 l 1,45,46
 168 691 168 691 168 824 c 0,47,48
 168 916 168 916 159 982 c 1,49,-1
 159 989 l 2,50,51
 159 1010 159 1010 174 1023 c 128,-1,52
 189 1036 189 1036 210 1036 c 0,53,54
 253 1036 253 1036 259 994 c 0,55,56
 262 964 262 964 266 907 c 1,57,58
 353 1021 353 1021 500 1021 c 0,59,60
 625 1021 625 1021 693.5 958 c 128,-1,61
 762 895 762 895 783 791 c 1,62,63
 878 1021 878 1021 1072 1021 c 0,64,65
 1150 1021 1150 1021 1209 989.5 c 128,-1,66
 1268 958 1268 958 1301.5 904.5 c 128,-1,67
 1335 851 1335 851 1351 787.5 c 128,-1,68
 1367 724 1367 724 1367 651 c 0,69,70
 1367 576 1367 576 1360 400 c 128,-1,71
 1353 224 1353 224 1352 168 c 2,72,-1
 1352 156 l 2,73,74
 1352 79 1352 79 1370 13 c 0,75,76
 1372 3 1372 3 1372 -1 c 0,77,78
 1372 -22 1372 -22 1356.5 -35 c 128,-1,79
 1341 -48 1341 -48 1320 -48 c 0,80,81
 1284 -48 1284 -48 1274 -13 c 0,82,83
 1251 72 1251 72 1251 184 c 0,0,1
EndSplineSet
EndChar

StartChar: n
Encoding: 81 110 81
Width: 1003
GlyphClass: 2
Flags: W
LayerCount: 2
Fore
SplineSet
833 -49 m 0,0,1
 816 -49 816 -49 803.5 -37.5 c 128,-1,2
 791 -26 791 -26 785 -11 c 128,-1,3
 779 4 779 4 775.5 29.5 c 128,-1,4
 772 55 772 55 771.5 71 c 128,-1,5
 771 87 771 87 771 113 c 2,6,-1
 771 119 l 2,7,8
 771 187 771 187 782 363.5 c 128,-1,9
 793 540 793 540 793 609 c 0,10,11
 793 766 793 766 758.5 843 c 128,-1,12
 724 920 724 920 641 920 c 0,13,14
 554 920 554 920 475 829.5 c 128,-1,15
 396 739 396 739 342.5 598.5 c 128,-1,16
 289 458 289 458 254.5 301 c 128,-1,17
 220 144 220 144 210 -3 c 0,18,19
 209 -24 209 -24 194 -36 c 128,-1,20
 179 -48 179 -48 160 -48 c 0,21,22
 139 -48 139 -48 124 -34 c 128,-1,23
 109 -20 109 -20 110 3 c 2,24,-1
 168 969 l 2,25,26
 169 991 169 991 183.5 1002.5 c 128,-1,27
 198 1014 198 1014 217 1014 c 0,28,29
 238 1014 238 1014 253.5 1000 c 128,-1,30
 269 986 269 986 268 963 c 2,31,-1
 249 641 l 1,32,33
 401 1020 401 1020 641 1020 c 0,34,35
 893 1020 893 1020 893 609 c 0,36,37
 893 539 893 539 882 362 c 128,-1,38
 871 185 871 185 871 119 c 0,39,40
 871 44 871 44 882 20 c 0,41,42
 886 11 886 11 886 0 c 0,43,44
 886 -21 886 -21 869.5 -35 c 128,-1,45
 853 -49 853 -49 833 -49 c 0,0,1
EndSplineSet
EndChar

StartChar: o
Encoding: 82 111 82
Width: 1109
GlyphClass: 2
Flags: W
LayerCount: 2
Fore
SplineSet
567 921 m 0,0,1
 399 921 399 921 304.5 798.5 c 128,-1,2
 210 676 210 676 210 486 c 0,3,4
 210 309 210 309 293 202 c 128,-1,5
 376 95 376 95 520 95 c 0,6,7
 679 95 679 95 789 226 c 128,-1,8
 899 357 899 357 899 538 c 0,9,10
 899 703 899 703 810 812 c 128,-1,11
 721 921 721 921 567 921 c 0,0,1
567 1021 m 0,12,13
 701 1021 701 1021 801.5 951 c 128,-1,14
 902 881 902 881 950.5 773 c 128,-1,15
 999 665 999 665 999 538 c 0,16,17
 999 434 999 434 963.5 336 c 128,-1,18
 928 238 928 238 866.5 162.5 c 128,-1,19
 805 87 805 87 714.5 41 c 128,-1,20
 624 -5 624 -5 520 -5 c 0,21,22
 392 -5 392 -5 297 63.5 c 128,-1,23
 202 132 202 132 156 242 c 128,-1,24
 110 352 110 352 110 486 c 0,25,26
 110 591 110 591 139.5 686 c 128,-1,27
 169 781 169 781 224.5 856.5 c 128,-1,28
 280 932 280 932 368.5 976.5 c 128,-1,29
 457 1021 457 1021 567 1021 c 0,12,13
EndSplineSet
EndChar

StartChar: p
Encoding: 83 112 83
Width: 1167
GlyphClass: 2
Flags: W
LayerCount: 2
Fore
SplineSet
223 -435 m 2,0,1
 222 -457 222 -457 207.5 -469 c 128,-1,2
 193 -481 193 -481 173 -481 c 0,3,4
 152 -481 152 -481 137 -467.5 c 128,-1,5
 122 -454 122 -454 123 -431 c 2,6,-1
 155 256 l 2,7,8
 170 498 170 498 170 603 c 0,9,10
 170 839 170 839 115 949 c 0,11,12
 110 959 110 959 110 971 c 0,13,14
 110 991 110 991 126.5 1005.5 c 128,-1,15
 143 1020 143 1020 163 1020 c 0,16,17
 191 1020 191 1020 205 993 c 0,18,19
 252 899 252 899 265 735 c 1,20,21
 337 873 337 873 446.5 947 c 128,-1,22
 556 1021 556 1021 678 1021 c 0,23,24
 840 1021 840 1021 948.5 889 c 128,-1,25
 1057 757 1057 757 1057 538 c 0,26,27
 1057 457 1057 457 1036 381 c 128,-1,28
 1015 305 1015 305 966 234 c 128,-1,29
 917 163 917 163 845 110.5 c 128,-1,30
 773 58 773 58 662.5 26.5 c 128,-1,31
 552 -5 552 -5 416 -5 c 0,32,33
 396 -5 396 -5 381 10 c 128,-1,34
 366 25 366 25 366 45 c 128,-1,35
 366 65 366 65 381 80 c 128,-1,36
 396 95 396 95 416 95 c 0,37,38
 538 95 538 95 633.5 121 c 128,-1,39
 729 147 729 147 788.5 189.5 c 128,-1,40
 848 232 848 232 887 290.5 c 128,-1,41
 926 349 926 349 941.5 409.5 c 128,-1,42
 957 470 957 470 957 538 c 0,43,44
 957 724 957 724 875.5 822.5 c 128,-1,45
 794 921 794 921 678 921 c 0,46,47
 622 921 622 921 566 898.5 c 128,-1,48
 510 876 510 876 456 825.5 c 128,-1,49
 402 775 402 775 360 703 c 128,-1,50
 318 631 318 631 290.5 524 c 128,-1,51
 263 417 263 417 258 289 c 1,52,-1
 255 250 l 1,53,-1
 223 -435 l 2,0,1
EndSplineSet
EndChar

StartChar: q
Encoding: 84 113 84
Width: 1123
GlyphClass: 2
Flags: W
LayerCount: 2
Fore
SplineSet
830 865 m 0,0,1
 830 845 830 845 815.5 829.5 c 128,-1,2
 801 814 801 814 781 814 c 0,3,4
 757 814 757 814 741 833 c 0,5,6
 664 930 664 930 532 930 c 0,7,8
 431 930 431 930 356.5 867.5 c 128,-1,9
 282 805 282 805 246 705.5 c 128,-1,10
 210 606 210 606 210 484 c 0,11,12
 210 94 210 94 490 94 c 0,13,14
 555 94 555 94 611 120.5 c 128,-1,15
 667 147 667 147 708 195.5 c 128,-1,16
 749 244 749 244 781.5 304 c 128,-1,17
 814 364 814 364 836.5 439 c 128,-1,18
 859 514 859 514 873.5 586 c 128,-1,19
 888 658 888 658 897 738 c 1,20,21
 901 819 901 819 913 981 c 0,22,23
 915 998 915 998 928 1012 c 128,-1,24
 941 1026 941 1026 960 1027 c 2,25,-1
 963 1027 l 2,26,27
 987 1027 987 1027 1000 1009 c 128,-1,28
 1013 991 1013 991 1013 963 c 0,29,30
 1013 873 1013 873 997 729 c 1,31,32
 979 389 979 389 979 87 c 0,33,34
 979 2 979 2 984.5 -169 c 128,-1,35
 990 -340 990 -340 990 -426 c 0,36,37
 990 -448 990 -448 975 -460.5 c 128,-1,38
 960 -473 960 -473 940 -473 c 128,-1,39
 920 -473 920 -473 905.5 -461 c 128,-1,40
 891 -449 891 -449 890 -427 c 0,41,42
 879 -157 879 -157 879 87 c 0,43,44
 879 150 879 150 881 276 c 1,45,46
 820 149 820 149 722.5 71.5 c 128,-1,47
 625 -6 625 -6 490 -6 c 0,48,49
 390 -6 390 -6 315 33 c 128,-1,50
 240 72 240 72 196 141 c 128,-1,51
 152 210 152 210 131 295.5 c 128,-1,52
 110 381 110 381 110 484 c 0,53,54
 110 563 110 563 125.5 639.5 c 128,-1,55
 141 716 141 716 174.5 787 c 128,-1,56
 208 858 208 858 256 912 c 128,-1,57
 304 966 304 966 375.5 998 c 128,-1,58
 447 1030 447 1030 532 1030 c 0,59,60
 711 1030 711 1030 819 895 c 0,61,62
 830 881 830 881 830 865 c 0,0,1
EndSplineSet
EndChar

StartChar: r
Encoding: 85 114 85
Width: 865
GlyphClass: 2
Flags: W
LayerCount: 2
Fore
SplineSet
151 532 m 0,0,1
 151 825 151 825 112 957 c 0,2,3
 110 962 110 962 110 972 c 0,4,5
 110 993 110 993 126 1006.5 c 128,-1,6
 142 1020 142 1020 162 1020 c 0,7,8
 198 1020 198 1020 208 985 c 0,9,10
 240 876 240 876 248 675 c 1,11,12
 375 958 375 958 696 1020 c 0,13,14
 700 1021 700 1021 706 1021 c 0,15,16
 727 1021 727 1021 740 1005.5 c 128,-1,17
 753 990 753 990 753 970 c 0,18,19
 753 953 753 953 743 939.5 c 128,-1,20
 733 926 733 926 714 922 c 0,21,22
 636 907 636 907 572.5 876.5 c 128,-1,23
 509 846 509 846 463.5 807.5 c 128,-1,24
 418 769 418 769 382.5 712 c 128,-1,25
 347 655 347 655 324 598 c 128,-1,26
 301 541 301 541 283.5 463 c 128,-1,27
 266 385 266 385 256 314.5 c 128,-1,28
 246 244 246 244 237 150 c 0,29,30
 230 50 230 50 224 -5 c 0,31,32
 222 -26 222 -26 208 -37 c 128,-1,33
 194 -48 194 -48 175 -48 c 0,34,35
 155 -48 155 -48 139.5 -35.5 c 128,-1,36
 124 -23 124 -23 124 -1 c 0,37,38
 124 82 124 82 137.5 258.5 c 128,-1,39
 151 435 151 435 151 532 c 0,0,1
EndSplineSet
EndChar

StartChar: s
Encoding: 86 115 86
Width: 980
GlyphClass: 2
Flags: W
LayerCount: 2
Fore
SplineSet
110 171 m 0,0,1
 110 191 110 191 124.5 206 c 128,-1,2
 139 221 139 221 160 221 c 0,3,4
 188 221 188 221 202 199 c 0,5,6
 227 162 227 162 311.5 128.5 c 128,-1,7
 396 95 396 95 488 95 c 0,8,9
 614 95 614 95 692 134.5 c 128,-1,10
 770 174 770 174 770 239 c 0,11,12
 770 282 770 282 750 316 c 128,-1,13
 730 350 730 350 692.5 373.5 c 128,-1,14
 655 397 655 397 613 413 c 128,-1,15
 571 429 571 429 514 443 c 0,16,17
 366 480 366 480 297 517 c 0,18,19
 137 601 137 601 137 760 c 2,20,-1
 137 764 l 1,21,22
 142 828 142 828 177 878.5 c 128,-1,23
 212 929 212 929 264.5 959.5 c 128,-1,24
 317 990 317 990 378 1006 c 128,-1,25
 439 1022 439 1022 501 1022 c 0,26,27
 620 1022 620 1022 716 965.5 c 128,-1,28
 812 909 812 909 837 796 c 0,29,30
 838 792 838 792 838 784 c 0,31,32
 838 762 838 762 822.5 749 c 128,-1,33
 807 736 807 736 786 736 c 0,34,35
 748 736 748 736 739 774 c 0,36,37
 724 844 724 844 659 883 c 128,-1,38
 594 922 594 922 501 922 c 0,39,40
 396 922 396 922 320 875 c 128,-1,41
 244 828 244 828 237 758 c 1,42,43
 238 719 238 719 256 687.5 c 128,-1,44
 274 656 274 656 300 635 c 128,-1,45
 326 614 326 614 369.5 595 c 128,-1,46
 413 576 413 576 449 565 c 128,-1,47
 485 554 485 554 538 541 c 0,48,49
 586 529 586 529 623 517 c 128,-1,50
 660 505 660 505 709.5 480 c 128,-1,51
 759 455 759 455 791.5 424.5 c 128,-1,52
 824 394 824 394 847 346 c 128,-1,53
 870 298 870 298 870 239 c 0,54,55
 870 172 870 172 834.5 122 c 128,-1,56
 799 72 799 72 740.5 45.5 c 128,-1,57
 682 19 682 19 619 7 c 128,-1,58
 556 -5 556 -5 488 -5 c 0,59,60
 372 -5 372 -5 267.5 35 c 128,-1,61
 163 75 163 75 118 143 c 0,62,63
 110 155 110 155 110 171 c 0,0,1
EndSplineSet
EndChar

StartChar: t
Encoding: 87 116 87
Width: 775
GlyphClass: 2
Flags: W
LayerCount: 2
Fore
SplineSet
600 95 m 2,0,1
 663 95 663 95 663 47 c 0,2,3
 663 31 663 31 652 17 c 128,-1,4
 641 3 641 3 624 -2 c 0,5,6
 611 -5 611 -5 576 -5 c 0,7,8
 514 -5 514 -5 464.5 15.5 c 128,-1,9
 415 36 415 36 383.5 69.5 c 128,-1,10
 352 103 352 103 331 150 c 128,-1,11
 310 197 310 197 301.5 247.5 c 128,-1,12
 293 298 293 298 293 355 c 0,13,14
 293 555 293 555 309 781 c 1,15,16
 225 777 225 777 166 770 c 1,17,-1
 159 770 l 2,18,19
 138 770 138 770 125 785 c 128,-1,20
 112 800 112 800 112 821 c 0,21,22
 112 864 112 864 154 870 c 0,23,24
 235 879 235 879 317 882 c 1,25,26
 330 1033 330 1033 352 1222 c 0,27,28
 354 1243 354 1243 367.5 1253.5 c 128,-1,29
 381 1264 381 1264 400 1264 c 0,30,31
 421 1264 421 1264 436.5 1251 c 128,-1,32
 452 1238 452 1238 452 1216 c 2,33,-1
 452 1210 l 1,34,35
 435 1065 435 1065 418 883 c 1,36,37
 528 881 528 881 621 870 c 0,38,39
 663 864 663 864 663 821 c 0,40,41
 663 800 663 800 650 785 c 128,-1,42
 637 770 637 770 616 770 c 2,43,-1
 609 770 l 1,44,45
 519 781 519 781 410 783 c 1,46,47
 393 564 393 564 393 355 c 0,48,49
 393 225 393 225 436 160 c 128,-1,50
 479 95 479 95 576 95 c 2,51,-1
 600 95 l 2,0,1
EndSplineSet
EndChar

StartChar: u
Encoding: 88 117 88
Width: 1003
GlyphClass: 2
Flags: W
LayerCount: 2
Fore
SplineSet
864 639 m 0,0,1
 864 340 864 340 893 53 c 1,2,-1
 893 48 l 2,3,4
 893 26 893 26 878 13 c 128,-1,5
 863 0 863 0 842 0 c 0,6,7
 823 0 823 0 809 11 c 128,-1,8
 795 22 795 22 793 43 c 0,9,10
 783 151 783 151 775 267 c 1,11,12
 672 -5 672 -5 450 -5 c 0,13,14
 396 -5 396 -5 350.5 8 c 128,-1,15
 305 21 305 21 272 41 c 128,-1,16
 239 61 239 61 213 95.5 c 128,-1,17
 187 130 187 130 170.5 161.5 c 128,-1,18
 154 193 154 193 142 241 c 128,-1,19
 130 289 130 289 124 325 c 128,-1,20
 118 361 118 361 114.5 414.5 c 128,-1,21
 111 468 111 468 110.5 500.5 c 128,-1,22
 110 533 110 533 110 584 c 0,23,24
 110 757 110 757 159 982 c 0,25,26
 168 1020 168 1020 206 1020 c 0,27,28
 227 1020 227 1020 242.5 1007 c 128,-1,29
 258 994 258 994 258 972 c 0,30,31
 258 964 258 964 257 960 c 0,32,33
 210 748 210 748 210 584 c 0,34,35
 210 518 210 518 211.5 472.5 c 128,-1,36
 213 427 213 427 218.5 371.5 c 128,-1,37
 224 316 224 316 233.5 279 c 128,-1,38
 243 242 243 242 261 204.5 c 128,-1,39
 279 167 279 167 304 145 c 128,-1,40
 329 123 329 123 366 109 c 128,-1,41
 403 95 403 95 450 95 c 0,42,43
 674 95 674 95 741 549 c 0,44,45
 748 599 748 599 753.5 659 c 128,-1,46
 759 719 759 719 761.5 753.5 c 128,-1,47
 764 788 764 788 768 869.5 c 128,-1,48
 772 951 772 951 773 974 c 0,49,50
 774 995 774 995 788.5 1007 c 128,-1,51
 803 1019 803 1019 823 1019 c 128,-1,52
 843 1019 843 1019 858 1006.5 c 128,-1,53
 873 994 873 994 873 971 c 0,54,55
 873 920 873 920 868.5 808 c 128,-1,56
 864 696 864 696 864 639 c 0,0,1
EndSplineSet
EndChar

StartChar: v
Encoding: 89 118 89
Width: 1084
GlyphClass: 2
Flags: W
LayerCount: 2
Fore
SplineSet
115 950 m 0,0,1
 110 962 110 962 110 971 c 0,2,3
 110 991 110 991 126.5 1005.5 c 128,-1,4
 143 1020 143 1020 163 1020 c 0,5,6
 192 1020 192 1020 205 992 c 0,7,8
 441 493 441 493 523 177 c 1,9,10
 759 583 759 583 876 985 c 0,11,12
 886 1020 886 1020 922 1020 c 0,13,14
 942 1020 942 1020 958 1006.5 c 128,-1,15
 974 993 974 993 974 972 c 0,16,17
 974 962 974 962 972 957 c 0,18,19
 836 490 836 490 545 19 c 0,20,21
 531 -4 531 -4 502 -4 c 0,22,23
 484 -4 484 -4 470.5 6 c 128,-1,24
 457 16 457 16 453 35 c 0,25,26
 412 244 412 244 325 466.5 c 128,-1,27
 238 689 238 689 115 950 c 0,0,1
EndSplineSet
EndChar

StartChar: w
Encoding: 90 119 90
Width: 1501
GlyphClass: 2
Flags: W
LayerCount: 2
Fore
SplineSet
258 979 m 0,0,1
 272 1003 272 1003 299 1003 c 0,2,3
 320 1003 320 1003 336.5 988.5 c 128,-1,4
 353 974 353 974 353 953 c 0,5,6
 353 940 353 940 346 929 c 0,7,8
 300 847 300 847 255 680 c 128,-1,9
 210 513 210 513 210 374 c 0,10,11
 210 238 210 238 256 166.5 c 128,-1,12
 302 95 302 95 406 95 c 0,13,14
 474 95 474 95 536 157 c 128,-1,15
 598 219 598 219 639 310 c 128,-1,16
 680 401 680 401 704.5 501 c 128,-1,17
 729 601 729 601 729 681 c 0,18,19
 729 704 729 704 744 716.5 c 128,-1,20
 759 729 759 729 779 729 c 128,-1,21
 799 729 799 729 814 716.5 c 128,-1,22
 829 704 829 704 829 682 c 0,23,24
 830 616 830 616 832.5 563 c 128,-1,25
 835 510 835 510 841 447 c 128,-1,26
 847 384 847 384 856 336 c 128,-1,27
 865 288 865 288 881 241 c 128,-1,28
 897 194 897 194 918 163.5 c 128,-1,29
 939 133 939 133 969.5 114 c 128,-1,30
 1000 95 1000 95 1038 95 c 0,31,32
 1165 95 1165 95 1228 207.5 c 128,-1,33
 1291 320 1291 320 1291 513 c 0,34,35
 1291 627 1291 627 1267.5 740.5 c 128,-1,36
 1244 854 1244 854 1206 929 c 0,37,38
 1200 941 1200 941 1200 951 c 0,39,40
 1200 971 1200 971 1216.5 985.5 c 128,-1,41
 1233 1000 1233 1000 1254 1000 c 0,42,43
 1282 1000 1282 1000 1296 973 c 0,44,45
 1340 884 1340 884 1365.5 762 c 128,-1,46
 1391 640 1391 640 1391 513 c 0,47,48
 1391 434 1391 434 1380.5 363 c 128,-1,49
 1370 292 1370 292 1344 223.5 c 128,-1,50
 1318 155 1318 155 1279 105.5 c 128,-1,51
 1240 56 1240 56 1178 25.5 c 128,-1,52
 1116 -5 1116 -5 1038 -5 c 0,53,54
 814 -5 814 -5 755 321 c 1,55,56
 730 257 730 257 698.5 203 c 128,-1,57
 667 149 667 149 624.5 100 c 128,-1,58
 582 51 582 51 525.5 23 c 128,-1,59
 469 -5 469 -5 406 -5 c 0,60,61
 340 -5 340 -5 288.5 16.5 c 128,-1,62
 237 38 237 38 204 74 c 128,-1,63
 171 110 171 110 149.5 160 c 128,-1,64
 128 210 128 210 119 262.5 c 128,-1,65
 110 315 110 315 110 374 c 0,66,67
 110 532 110 532 157 707.5 c 128,-1,68
 204 883 204 883 258 979 c 0,0,1
EndSplineSet
EndChar

StartChar: x
Encoding: 91 120 91
Width: 1137
GlyphClass: 2
Flags: W
LayerCount: 2
Fore
SplineSet
160 -50 m 0,0,1
 139 -50 139 -50 124.5 -35.5 c 128,-1,2
 110 -21 110 -21 110 0 c 0,3,4
 110 18 110 18 121 32 c 2,5,-1
 486 478 l 1,6,7
 295 725 295 725 190 935 c 0,8,9
 184 947 184 947 184 958 c 0,10,11
 184 978 184 978 201 992 c 128,-1,12
 218 1006 218 1006 238 1006 c 0,13,14
 266 1006 266 1006 280 979 c 0,15,16
 374 788 374 788 551 557 c 1,17,-1
 916 1003 l 2,18,19
 931 1021 931 1021 955 1021 c 0,20,21
 976 1021 976 1021 990.5 1006.5 c 128,-1,22
 1005 992 1005 992 1005 971 c 0,23,24
 1005 953 1005 953 994 939 c 2,25,-1
 615 476 l 1,26,27
 794 253 794 253 1012 35 c 0,28,29
 1026 21 1026 21 1026 0 c 0,30,31
 1026 -20 1026 -20 1011.5 -34.5 c 128,-1,32
 997 -49 997 -49 977 -49 c 0,33,34
 956 -49 956 -49 942 -35 c 0,35,36
 729 178 729 178 550 397 c 1,37,-1
 199 -32 l 2,38,39
 184 -50 184 -50 160 -50 c 0,0,1
EndSplineSet
EndChar

StartChar: y
Encoding: 92 121 92
Width: 1093
GlyphClass: 2
Flags: W
LayerCount: 2
Fore
SplineSet
974 538 m 0,0,1
 972 424 972 424 968.5 345 c 128,-1,2
 965 266 965 266 952.5 158 c 128,-1,3
 940 50 940 50 919.5 -23.5 c 128,-1,4
 899 -97 899 -97 861.5 -177 c 128,-1,5
 824 -257 824 -257 772.5 -304.5 c 128,-1,6
 721 -352 721 -352 643.5 -383.5 c 128,-1,7
 566 -415 566 -415 469 -415 c 0,8,9
 211 -415 211 -415 115 -221 c 0,10,11
 110 -211 110 -211 110 -199 c 0,12,13
 110 -179 110 -179 126.5 -164.5 c 128,-1,14
 143 -150 143 -150 163 -150 c 0,15,16
 191 -150 191 -150 205 -177 c 0,17,18
 237 -242 237 -242 297.5 -278.5 c 128,-1,19
 358 -315 358 -315 469 -315 c 0,20,21
 548 -315 548 -315 609.5 -290 c 128,-1,22
 671 -265 671 -265 713 -221 c 128,-1,23
 755 -177 755 -177 784.5 -109 c 128,-1,24
 814 -41 814 -41 831 36.5 c 128,-1,25
 848 114 848 114 858 215 c 1,26,27
 746 -5 746 -5 531 -5 c 0,28,29
 460 -5 460 -5 403 14.5 c 128,-1,30
 346 34 346 34 307.5 65 c 128,-1,31
 269 96 269 96 240 144.5 c 128,-1,32
 211 193 211 193 195 242 c 128,-1,33
 179 291 179 291 170 354.5 c 128,-1,34
 161 418 161 418 158 471 c 128,-1,35
 155 524 155 524 155 589 c 0,36,37
 155 785 155 785 176 977 c 0,38,39
 178 998 178 998 191.5 1008.5 c 128,-1,40
 205 1019 205 1019 224 1019 c 0,41,42
 245 1019 245 1019 260.5 1006 c 128,-1,43
 276 993 276 993 276 971 c 2,44,-1
 276 965 l 1,45,46
 255 779 255 779 255 589 c 0,47,48
 255 512 255 512 259 453.5 c 128,-1,49
 263 395 263 395 273 335.5 c 128,-1,50
 283 276 283 276 302.5 235 c 128,-1,51
 322 194 322 194 352 161 c 128,-1,52
 382 128 382 128 427 111.5 c 128,-1,53
 472 95 472 95 531 95 c 0,54,55
 622 95 622 95 688 153 c 128,-1,56
 754 211 754 211 791.5 306.5 c 128,-1,57
 829 402 829 402 851 541 c 128,-1,58
 873 680 873 680 883 959 c 0,59,60
 884 981 884 981 899 993.5 c 128,-1,61
 914 1006 914 1006 933 1006 c 0,62,63
 953 1006 953 1006 968 993.5 c 128,-1,64
 983 981 983 981 983 958 c 0,65,66
 983 881 983 881 979 736.5 c 128,-1,67
 975 592 975 592 974 538 c 0,0,1
EndSplineSet
EndChar

StartChar: z
Encoding: 93 122 93
Width: 1054
GlyphClass: 2
Flags: W
LayerCount: 2
Fore
SplineSet
246 -67 m 0,0,1
 195 -67 195 -67 158 -40 c 128,-1,2
 121 -13 121 -13 121 37 c 0,3,4
 121 83 121 83 157 129 c 0,5,6
 313 321 313 321 446 466 c 128,-1,7
 579 611 579 611 745 764 c 0,8,9
 772 788 772 788 772 813 c 0,10,11
 772 821 772 821 750.5 832.5 c 128,-1,12
 729 844 729 844 672.5 854 c 128,-1,13
 616 864 616 864 538 864 c 0,14,15
 350 864 350 864 168 833 c 0,16,17
 165 832 165 832 158 832 c 0,18,19
 137 832 137 832 124.5 847.5 c 128,-1,20
 112 863 112 863 112 883 c 0,21,22
 112 924 112 924 152 931 c 0,23,24
 355 964 355 964 538 964 c 0,25,26
 573 964 573 964 598.5 963.5 c 128,-1,27
 624 963 624 963 661 959.5 c 128,-1,28
 698 956 698 956 725 950 c 128,-1,29
 752 944 752 944 781.5 933 c 128,-1,30
 811 922 811 922 829.5 906 c 128,-1,31
 848 890 848 890 860 866.5 c 128,-1,32
 872 843 872 843 872 813 c 0,33,34
 872 745 872 745 811 690 c 0,35,36
 648 540 648 540 518 398 c 128,-1,37
 388 256 388 256 235 67 c 0,38,39
 221 49 221 49 221 37 c 1,40,41
 233 33 233 33 246 33 c 0,42,43
 247 33 247 33 274 36 c 0,44,45
 364 50 364 50 548 63 c 128,-1,46
 732 76 732 76 893 79 c 2,47,-1
 894 79 l 2,48,49
 917 79 917 79 929.5 63.5 c 128,-1,50
 942 48 942 48 942 28 c 128,-1,51
 942 8 942 8 930 -6.5 c 128,-1,52
 918 -21 918 -21 895 -21 c 0,53,54
 741 -24 741 -24 558 -36.5 c 128,-1,55
 375 -49 375 -49 291 -62 c 0,56,57
 264 -67 264 -67 246 -67 c 0,0,1
EndSplineSet
EndChar

StartChar: braceleft
Encoding: 94 123 94
Width: 564
GlyphClass: 2
Flags: W
LayerCount: 2
Fore
SplineSet
311 1186 m 0,0,1
 311 1161 311 1161 314 1110.5 c 128,-1,2
 317 1060 317 1060 317 1028 c 2,3,-1
 317 983 l 2,4,5
 317 890 317 890 308 829.5 c 128,-1,6
 299 769 299 769 269 730 c 1,7,8
 322 627 322 627 322 413 c 0,9,10
 322 375 322 375 315 310.5 c 128,-1,11
 308 246 308 246 308 215 c 0,12,13
 308 147 308 147 337 121 c 128,-1,14
 366 95 366 95 458 95 c 0,15,16
 478 95 478 95 493 80 c 128,-1,17
 508 65 508 65 508 45 c 128,-1,18
 508 25 508 25 493 10 c 128,-1,19
 478 -5 478 -5 458 -5 c 0,20,21
 336 -5 336 -5 272 52 c 128,-1,22
 208 109 208 109 208 215 c 0,23,24
 208 247 208 247 215 310.5 c 128,-1,25
 222 374 222 374 222 413 c 0,26,27
 222 496 222 496 209.5 577 c 128,-1,28
 197 658 197 658 178 690 c 1,29,30
 113 700 113 700 113 746 c 0,31,32
 113 770 113 770 132 784.5 c 128,-1,33
 151 799 151 799 175 799 c 0,34,35
 182 799 182 799 194 797 c 1,36,37
 217 840 217 840 217 983 c 0,38,39
 217 1022 217 1022 214 1090.5 c 128,-1,40
 211 1159 211 1159 211 1186 c 0,41,42
 211 1290 211 1290 272 1350.5 c 128,-1,43
 333 1411 333 1411 455 1411 c 0,44,45
 475 1411 475 1411 490 1396 c 128,-1,46
 505 1381 505 1381 505 1361 c 128,-1,47
 505 1341 505 1341 490 1326 c 128,-1,48
 475 1311 475 1311 455 1311 c 0,49,50
 366 1311 366 1311 338.5 1283.5 c 128,-1,51
 311 1256 311 1256 311 1186 c 0,0,1
EndSplineSet
EndChar

StartChar: bar
Encoding: 95 124 95
Width: 356
GlyphClass: 2
Flags: W
LayerCount: 2
Fore
SplineSet
176 1509 m 128,-1,1
 196 1509 196 1509 211 1494 c 128,-1,2
 226 1479 226 1479 226 1459 c 0,3,4
 226 890 226 890 209 -1 c 0,5,6
 209 -24 209 -24 194 -36 c 128,-1,7
 179 -48 179 -48 159 -48 c 128,-1,8
 139 -48 139 -48 124 -35.5 c 128,-1,9
 109 -23 109 -23 109 0 c 0,10,11
 109 177 109 177 117.5 710.5 c 128,-1,12
 126 1244 126 1244 126 1459 c 0,13,14
 126 1479 126 1479 141 1494 c 128,-1,0
 156 1509 156 1509 176 1509 c 128,-1,1
EndSplineSet
EndChar

StartChar: asciitilde
Encoding: 97 126 97
Width: 870
GlyphClass: 2
Flags: W
LayerCount: 2
Fore
SplineSet
164 1144 m 0,0,1
 158 1104 158 1104 116 1104 c 0,2,3
 96 1104 96 1104 80.5 1117 c 128,-1,4
 65 1130 65 1130 65 1151 c 0,5,6
 65 1152 65 1152 65.5 1155 c 128,-1,7
 66 1158 66 1158 66 1160 c 0,8,9
 79 1241 79 1241 139 1291 c 128,-1,10
 199 1341 199 1341 279 1341 c 0,11,12
 378 1341 378 1341 480 1265 c 0,13,14
 549 1214 549 1214 602 1214 c 0,15,16
 633 1214 633 1214 661 1238.5 c 128,-1,17
 689 1263 689 1263 715 1335 c 0,18,19
 727 1367 727 1367 760 1367 c 0,20,21
 780 1367 780 1367 796 1353.5 c 128,-1,22
 812 1340 812 1340 812 1319 c 0,23,24
 812 1310 812 1310 809 1301 c 0,25,26
 775 1209 775 1209 722 1161.5 c 128,-1,27
 669 1114 669 1114 602 1114 c 0,28,29
 518 1114 518 1114 420 1185 c 0,30,31
 343 1241 343 1241 279 1241 c 0,32,33
 234 1241 234 1241 202.5 1215 c 128,-1,34
 171 1189 171 1189 164 1144 c 0,0,1
EndSplineSet
EndChar

StartChar: cent
Encoding: 100 162 100
Width: 1031
GlyphClass: 2
Flags: W
LayerCount: 2
Fore
SplineSet
547 -415 m 128,-1,1
 527 -415 527 -415 512 -400 c 128,-1,2
 497 -385 497 -385 497 -365 c 2,3,-1
 497 45 l 2,4,5
 497 65 497 65 512 80 c 128,-1,6
 527 95 527 95 547 95 c 128,-1,7
 567 95 567 95 582 80 c 128,-1,8
 597 65 597 65 597 45 c 2,9,-1
 597 -365 l 2,10,11
 597 -385 597 -385 582 -400 c 128,-1,0
 567 -415 567 -415 547 -415 c 128,-1,1
547 921 m 128,-1,13
 527 921 527 921 512 936 c 128,-1,14
 497 951 497 951 497 971 c 2,15,-1
 497 1316 l 2,16,17
 497 1336 497 1336 512 1351 c 128,-1,18
 527 1366 527 1366 547 1366 c 128,-1,19
 567 1366 567 1366 582 1351 c 128,-1,20
 597 1336 597 1336 597 1316 c 2,21,-1
 597 971 l 2,22,23
 597 951 597 951 582 936 c 128,-1,12
 567 921 567 921 547 921 c 128,-1,13
905 877 m 0,24,25
 905 856 905 856 890 841.5 c 128,-1,26
 875 827 875 827 855 827 c 0,27,28
 837 827 837 827 822 839 c 0,29,30
 727 921 727 921 611 921 c 0,31,32
 525 921 525 921 448.5 875.5 c 128,-1,33
 372 830 372 830 320.5 757.5 c 128,-1,34
 269 685 269 685 239.5 594 c 128,-1,35
 210 503 210 503 210 411 c 0,36,37
 210 95 210 95 528 95 c 0,38,39
 694 95 694 95 845 186 c 0,40,41
 856 193 856 193 870 193 c 0,42,43
 890 193 890 193 905.5 179 c 128,-1,44
 921 165 921 165 921 144 c 0,45,46
 921 114 921 114 897 100 c 0,47,48
 721 -5 721 -5 528 -5 c 0,49,50
 418 -5 418 -5 335.5 29 c 128,-1,51
 253 63 253 63 205 122.5 c 128,-1,52
 157 182 157 182 133.5 254.5 c 128,-1,53
 110 327 110 327 110 411 c 0,54,55
 110 494 110 494 131 579 c 128,-1,56
 152 664 152 664 194.5 743.5 c 128,-1,57
 237 823 237 823 295.5 885 c 128,-1,58
 354 947 354 947 436 984 c 128,-1,59
 518 1021 518 1021 611 1021 c 0,60,61
 765 1021 765 1021 888 915 c 0,62,63
 905 900 905 900 905 877 c 0,24,25
EndSplineSet
EndChar

StartChar: sterling
Encoding: 101 163 101
Width: 1360
GlyphClass: 2
Flags: W
LayerCount: 2
Fore
SplineSet
169 17 m 0,0,1
 119 17 119 17 81.5 41.5 c 128,-1,2
 44 66 44 66 44 110 c 0,3,4
 44 155 44 155 80.5 174.5 c 128,-1,5
 117 194 117 194 163 194 c 0,6,7
 218 194 218 194 298 174 c 1,8,9
 383 276 383 276 392 610 c 1,10,11
 338 616 338 616 281 630 c 0,12,13
 245 640 245 640 245 677 c 0,14,15
 245 697 245 697 257.5 712.5 c 128,-1,16
 270 728 270 728 291 728 c 0,17,18
 295 728 295 728 305 726 c 0,19,20
 343 716 343 716 393 710 c 1,21,-1
 393 939 l 2,22,23
 393 993 393 993 393.5 1023.5 c 128,-1,24
 394 1054 394 1054 397.5 1106 c 128,-1,25
 401 1158 401 1158 407 1188.5 c 128,-1,26
 413 1219 413 1219 425.5 1257 c 128,-1,27
 438 1295 438 1295 456 1316 c 128,-1,28
 474 1337 474 1337 501.5 1351.5 c 128,-1,29
 529 1366 529 1366 565 1366 c 0,30,31
 639 1366 639 1366 679.5 1308 c 128,-1,32
 720 1250 720 1250 720 1166 c 0,33,34
 720 1146 720 1146 705 1131 c 128,-1,35
 690 1116 690 1116 670 1116 c 128,-1,36
 650 1116 650 1116 635 1131 c 128,-1,37
 620 1146 620 1146 620 1166 c 0,38,39
 620 1266 620 1266 565 1266 c 0,40,41
 550 1266 550 1266 537.5 1248 c 128,-1,42
 525 1230 525 1230 514.5 1192 c 128,-1,43
 504 1154 504 1154 498.5 1089.5 c 128,-1,44
 493 1025 493 1025 493 939 c 2,45,-1
 493 703 l 1,46,-1
 522 703 l 2,47,48
 670 703 670 703 834 734 c 0,49,50
 838 735 838 735 844 735 c 0,51,52
 866 735 866 735 879 719.5 c 128,-1,53
 892 704 892 704 892 683 c 0,54,55
 892 643 892 643 853 636 c 0,56,57
 686 603 686 603 522 603 c 2,58,-1
 492 603 l 1,59,60
 489 451 489 451 469.5 337.5 c 128,-1,61
 450 224 450 224 400 144 c 1,62,63
 552 95 552 95 772 95 c 0,64,65
 887 95 887 95 975.5 114.5 c 128,-1,66
 1064 134 1064 134 1125 179.5 c 128,-1,67
 1186 225 1186 225 1199 294 c 0,68,69
 1203 313 1203 313 1216.5 323 c 128,-1,70
 1230 333 1230 333 1247 333 c 0,71,72
 1267 333 1267 333 1282.5 320 c 128,-1,73
 1298 307 1298 307 1298 286 c 0,74,75
 1298 280 1298 280 1297 276 c 0,76,77
 1282 194 1282 194 1229.5 136 c 128,-1,78
 1177 78 1177 78 1099.5 48.5 c 128,-1,79
 1022 19 1022 19 942.5 7 c 128,-1,80
 863 -5 863 -5 772 -5 c 0,81,82
 542 -5 542 -5 377 46 c 0,83,84
 341 58 341 58 324 63 c 1,85,86
 258 17 258 17 169 17 c 0,0,1
EndSplineSet
EndChar

StartChar: currency
Encoding: 102 164 102
Width: 1109
GlyphClass: 2
Flags: W
LayerCount: 2
Fore
SplineSet
1009 45 m 0,0,1
 1009 25 1009 25 994.5 10 c 128,-1,2
 980 -5 980 -5 959 -5 c 0,3,4
 936 -5 936 -5 921 12 c 2,5,-1
 791 162 l 2,6,7
 779 177 779 177 779 195 c 0,8,9
 779 215 779 215 793.5 230 c 128,-1,10
 808 245 808 245 829 245 c 0,11,12
 852 245 852 245 867 228 c 2,13,-1
 997 78 l 2,14,15
 1009 63 1009 63 1009 45 c 0,0,1
320 835 m 0,16,17
 320 815 320 815 305.5 799.5 c 128,-1,18
 291 784 291 784 271 784 c 0,19,20
 247 784 247 784 232 801 c 2,21,-1
 113 937 l 2,22,23
 101 950 101 950 101 969 c 0,24,25
 101 989 101 989 115.5 1004.5 c 128,-1,26
 130 1020 130 1020 150 1020 c 0,27,28
 174 1020 174 1020 189 1003 c 2,29,-1
 308 867 l 2,30,31
 320 854 320 854 320 835 c 0,16,17
959 1020 m 0,32,33
 980 1020 980 1020 994.5 1005 c 128,-1,34
 1009 990 1009 990 1009 970 c 0,35,36
 1009 952 1009 952 997 937 c 2,37,-1
 886 809 l 2,38,39
 871 792 871 792 848 792 c 0,40,41
 827 792 827 792 812.5 807 c 128,-1,42
 798 822 798 822 798 842 c 0,43,44
 798 860 798 860 810 875 c 2,45,-1
 921 1003 l 2,46,47
 936 1020 936 1020 959 1020 c 0,32,33
258 218 m 0,48,49
 279 218 279 218 293.5 203 c 128,-1,50
 308 188 308 188 308 168 c 0,51,52
 308 150 308 150 296 135 c 2,53,-1
 189 12 l 2,54,55
 174 -5 174 -5 151 -5 c 0,56,57
 130 -5 130 -5 115.5 10 c 128,-1,58
 101 25 101 25 101 45 c 0,59,60
 101 63 101 63 113 78 c 2,61,-1
 220 201 l 2,62,63
 235 218 235 218 258 218 c 0,48,49
567 921 m 0,64,65
 399 921 399 921 304.5 798.5 c 128,-1,66
 210 676 210 676 210 486 c 0,67,68
 210 309 210 309 293 202 c 128,-1,69
 376 95 376 95 520 95 c 0,70,71
 679 95 679 95 789 226 c 128,-1,72
 899 357 899 357 899 538 c 0,73,74
 899 703 899 703 810 812 c 128,-1,75
 721 921 721 921 567 921 c 0,64,65
567 1021 m 0,76,77
 701 1021 701 1021 801.5 951 c 128,-1,78
 902 881 902 881 950.5 773 c 128,-1,79
 999 665 999 665 999 538 c 0,80,81
 999 434 999 434 963.5 336 c 128,-1,82
 928 238 928 238 866.5 162.5 c 128,-1,83
 805 87 805 87 714.5 41 c 128,-1,84
 624 -5 624 -5 520 -5 c 0,85,86
 392 -5 392 -5 297 63.5 c 128,-1,87
 202 132 202 132 156 242 c 128,-1,88
 110 352 110 352 110 486 c 0,89,90
 110 591 110 591 139.5 686 c 128,-1,91
 169 781 169 781 224.5 856.5 c 128,-1,92
 280 932 280 932 368.5 976.5 c 128,-1,93
 457 1021 457 1021 567 1021 c 0,76,77
EndSplineSet
EndChar

StartChar: brokenbar
Encoding: 104 166 104
Width: 414
GlyphClass: 2
Flags: W
LayerCount: 2
Fore
SplineSet
211 1411 m 128,-1,1
 231 1411 231 1411 246 1396 c 128,-1,2
 261 1381 261 1381 261 1361 c 0,3,4
 261 1111 261 1111 257 894 c 0,5,6
 257 871 257 871 242 859 c 128,-1,7
 227 847 227 847 207 847 c 128,-1,8
 187 847 187 847 172 859.5 c 128,-1,9
 157 872 157 872 157 895 c 0,10,11
 157 979 157 979 159 1135 c 128,-1,12
 161 1291 161 1291 161 1361 c 0,13,14
 161 1381 161 1381 176 1396 c 128,-1,0
 191 1411 191 1411 211 1411 c 128,-1,1
176 498 m 0,15,16
 176 521 176 521 191 533 c 128,-1,17
 206 545 206 545 226 545 c 128,-1,18
 246 545 246 545 261 532.5 c 128,-1,19
 276 520 276 520 276 497 c 0,20,21
 276 328 276 328 258 -3 c 0,22,23
 257 -25 257 -25 243 -36.5 c 128,-1,24
 229 -48 229 -48 209 -48 c 128,-1,25
 189 -48 189 -48 173.5 -35.5 c 128,-1,26
 158 -23 158 -23 158 0 c 0,27,28
 158 79 158 79 166 249 c 128,-1,29
 174 419 174 419 176 498 c 0,15,16
EndSplineSet
EndChar

StartChar: section
Encoding: 105 167 105
Width: 920
GlyphClass: 2
Flags: W
LayerCount: 2
Fore
SplineSet
448 546 m 1,0,1
 715 548 715 548 715 655 c 0,2,3
 715 705 715 705 642 754.5 c 128,-1,4
 569 804 569 804 467 822 c 1,5,6
 351 822 351 822 282.5 790 c 128,-1,7
 214 758 214 758 207 694 c 1,8,9
 208 570 208 570 448 546 c 1,0,1
100 154 m 0,10,11
 100 174 100 174 115.5 188.5 c 128,-1,12
 131 203 131 203 151 203 c 0,13,14
 167 203 167 203 181 192 c 0,15,16
 302 95 302 95 457 95 c 0,17,18
 581 95 581 95 648.5 121 c 128,-1,19
 716 147 716 147 716 209 c 0,20,21
 716 295 716 295 627 365.5 c 128,-1,22
 538 436 538 436 438 446 c 0,23,24
 107 481 107 481 107 696 c 2,25,-1
 107 700 l 1,26,27
 118 826 118 826 242 881 c 1,28,29
 109 948 109 948 109 1104 c 2,30,-1
 109 1108 l 1,31,32
 116 1192 116 1192 174 1252.5 c 128,-1,33
 232 1313 232 1313 309.5 1339.5 c 128,-1,34
 387 1366 387 1366 472 1366 c 0,35,36
 548 1366 548 1366 615.5 1344 c 128,-1,37
 683 1322 683 1322 737.5 1269.5 c 128,-1,38
 792 1217 792 1217 809 1140 c 0,39,40
 810 1136 810 1136 810 1128 c 0,41,42
 810 1106 810 1106 794.5 1093 c 128,-1,43
 779 1080 779 1080 758 1080 c 0,44,45
 720 1080 720 1080 711 1118 c 0,46,47
 696 1188 696 1188 630.5 1227 c 128,-1,48
 565 1266 565 1266 472 1266 c 0,49,50
 367 1266 367 1266 291.5 1219 c 128,-1,51
 216 1172 216 1172 209 1102 c 0,52,53
 209 1063 209 1063 222.5 1034.5 c 128,-1,54
 236 1006 236 1006 254.5 989 c 128,-1,55
 273 972 273 972 311.5 958.5 c 128,-1,56
 350 945 350 945 381.5 938 c 128,-1,57
 413 931 413 931 471 922 c 0,58,59
 474 922 474 922 482 920 c 0,60,61
 540 910 540 910 595 890 c 128,-1,62
 650 870 650 870 701 838.5 c 128,-1,63
 752 807 752 807 783.5 759.5 c 128,-1,64
 815 712 815 712 815 655 c 0,65,66
 815 515 815 515 658 469 c 1,67,68
 729 423 729 423 772.5 357 c 128,-1,69
 816 291 816 291 816 209 c 0,70,71
 816 -5 816 -5 457 -5 c 0,72,73
 270 -5 270 -5 119 114 c 0,74,75
 100 130 100 130 100 154 c 0,10,11
EndSplineSet
EndChar

StartChar: dieresis
Encoding: 106 168 106
Width: 667
GlyphClass: 2
Flags: W
LayerCount: 2
Fore
SplineSet
562 1214 m 0,0,1
 562 1175 562 1175 534 1147 c 128,-1,2
 506 1119 506 1119 467 1119 c 0,3,4
 427 1119 427 1119 400 1147 c 128,-1,5
 373 1175 373 1175 373 1214 c 128,-1,6
 373 1253 373 1253 400.5 1280.5 c 128,-1,7
 428 1308 428 1308 467 1308 c 128,-1,8
 506 1308 506 1308 534 1281 c 128,-1,9
 562 1254 562 1254 562 1214 c 0,0,1
295 1214 m 0,10,11
 295 1175 295 1175 267 1147 c 128,-1,12
 239 1119 239 1119 200 1119 c 0,13,14
 160 1119 160 1119 133 1147 c 128,-1,15
 106 1175 106 1175 106 1214 c 128,-1,16
 106 1253 106 1253 133.5 1280.5 c 128,-1,17
 161 1308 161 1308 200 1308 c 128,-1,18
 239 1308 239 1308 267 1281 c 128,-1,19
 295 1254 295 1254 295 1214 c 0,10,11
EndSplineSet
EndChar

StartChar: copyright
Encoding: 107 169 107
Width: 1693
GlyphClass: 2
Flags: W
LayerCount: 2
Fore
SplineSet
1094 1004 m 0,0,1
 1094 984 1094 984 1078.5 969.5 c 128,-1,2
 1063 955 1063 955 1043 955 c 0,3,4
 1024 955 1024 955 1011 967 c 0,5,6
 948 1022 948 1022 868 1022 c 0,7,8
 744 1022 744 1022 655.5 920.5 c 128,-1,9
 567 819 567 819 567 687 c 0,10,11
 567 572 567 572 627 506 c 128,-1,12
 687 440 687 440 809 440 c 0,13,14
 925 440 925 440 1030 504 c 0,15,16
 1041 511 1041 511 1055 511 c 0,17,18
 1075 511 1075 511 1090.5 497 c 128,-1,19
 1106 483 1106 483 1106 462 c 0,20,21
 1106 432 1106 432 1082 418 c 0,22,23
 952 340 952 340 809 340 c 0,24,25
 646 340 646 340 556.5 439 c 128,-1,26
 467 538 467 538 467 687 c 0,27,28
 467 796 467 796 517 895 c 128,-1,29
 567 994 567 994 660.5 1058 c 128,-1,30
 754 1122 754 1122 868 1122 c 0,31,32
 987 1122 987 1122 1077 1043 c 0,33,34
 1094 1028 1094 1028 1094 1004 c 0,0,1
210 616 m 0,35,36
 210 518 210 518 259 421.5 c 128,-1,37
 308 325 308 325 384.5 254 c 128,-1,38
 461 183 461 183 559 139 c 128,-1,39
 657 95 657 95 752 95 c 0,40,41
 1092 95 1092 95 1287.5 272 c 128,-1,42
 1483 449 1483 449 1483 760 c 0,43,44
 1483 865 1483 865 1436 964 c 128,-1,45
 1389 1063 1389 1063 1306 1140.5 c 128,-1,46
 1223 1218 1223 1218 1099 1264.5 c 128,-1,47
 975 1311 975 1311 831 1311 c 0,48,49
 715 1311 715 1311 604 1262 c 128,-1,50
 493 1213 493 1213 405 1125.5 c 128,-1,51
 317 1038 317 1038 263.5 905 c 128,-1,52
 210 772 210 772 210 616 c 0,35,36
110 616 m 0,53,54
 110 757 110 757 149.5 883.5 c 128,-1,55
 189 1010 189 1010 258.5 1105 c 128,-1,56
 328 1200 328 1200 419 1269.5 c 128,-1,57
 510 1339 510 1339 616 1375 c 128,-1,58
 722 1411 722 1411 831 1411 c 0,59,60
 993 1411 993 1411 1134.5 1357.5 c 128,-1,61
 1276 1304 1276 1304 1373.5 1214.5 c 128,-1,62
 1471 1125 1471 1125 1527 1006.5 c 128,-1,63
 1583 888 1583 888 1583 760 c 0,64,65
 1583 527 1583 527 1478.5 352.5 c 128,-1,66
 1374 178 1374 178 1186 86.5 c 128,-1,67
 998 -5 998 -5 752 -5 c 0,68,69
 637 -5 637 -5 520.5 46 c 128,-1,70
 404 97 404 97 314 180 c 128,-1,71
 224 263 224 263 167 379 c 128,-1,72
 110 495 110 495 110 616 c 0,53,54
EndSplineSet
EndChar

StartChar: ordfeminine
Encoding: 108 170 108
Width: 778
GlyphClass: 2
Flags: W
LayerCount: 2
Fore
SplineSet
536 1247 m 0,0,1
 536 1424 536 1424 370 1424 c 0,2,3
 275 1424 275 1424 211.5 1347.5 c 128,-1,4
 148 1271 148 1271 148 1156 c 0,5,6
 148 1055 148 1055 198.5 993 c 128,-1,7
 249 931 249 931 327 931 c 0,8,9
 427 931 427 931 481.5 1024 c 128,-1,10
 536 1117 536 1117 536 1247 c 0,0,1
598 1474 m 0,11,12
 608 1493 608 1493 628 1493 c 0,13,14
 643 1493 643 1493 654.5 1483.5 c 128,-1,15
 666 1474 666 1474 666 1460 c 0,16,17
 666 1451 666 1451 662 1444 c 0,18,19
 641 1400 641 1400 620.5 1306 c 128,-1,20
 600 1212 600 1212 600 1134 c 0,21,22
 600 1046 600 1046 624.5 988.5 c 128,-1,23
 649 931 649 931 689 931 c 0,24,25
 703 931 703 931 713.5 920.5 c 128,-1,26
 724 910 724 910 724 896 c 128,-1,27
 724 882 724 882 713.5 871.5 c 128,-1,28
 703 861 703 861 689 861 c 0,29,30
 583 861 583 861 546 996 c 1,31,32
 471 861 471 861 327 861 c 0,33,34
 217 861 217 861 147.5 946 c 128,-1,35
 78 1031 78 1031 78 1156 c 0,36,37
 78 1294 78 1294 160.5 1394 c 128,-1,38
 243 1494 243 1494 370 1494 c 0,39,40
 507 1494 507 1494 569 1395 c 1,41,42
 582 1443 582 1443 598 1474 c 0,11,12
EndSplineSet
EndChar

StartChar: logicalnot
Encoding: 110 172 110
Width: 867
GlyphClass: 2
Flags: W
LayerCount: 2
Fore
SplineSet
39 661 m 128,-1,1
 39 681 39 681 54 696 c 128,-1,2
 69 711 69 711 89 711 c 2,3,-1
 734 711 l 2,4,5
 755 711 755 711 769.5 694.5 c 128,-1,6
 784 678 784 678 784 661 c 2,7,-1
 784 388 l 2,8,9
 784 368 784 368 769 353 c 128,-1,10
 754 338 754 338 734 338 c 128,-1,11
 714 338 714 338 699 353 c 128,-1,12
 684 368 684 368 684 388 c 2,13,-1
 684 611 l 1,14,-1
 89 611 l 2,15,16
 69 611 69 611 54 626 c 128,-1,0
 39 641 39 641 39 661 c 128,-1,1
EndSplineSet
EndChar

StartChar: registered
Encoding: 112 174 112
Width: 1667
GlyphClass: 2
Flags: W
LayerCount: 2
Fore
SplineSet
210 685 m 0,0,1
 210 536 210 536 255 422 c 128,-1,2
 300 308 300 308 381.5 237 c 128,-1,3
 463 166 463 166 573.5 130.5 c 128,-1,4
 684 95 684 95 820 95 c 0,5,6
 991 95 991 95 1138.5 182.5 c 128,-1,7
 1286 270 1286 270 1371.5 416 c 128,-1,8
 1457 562 1457 562 1457 727 c 0,9,10
 1457 860 1457 860 1409.5 963.5 c 128,-1,11
 1362 1067 1362 1067 1276.5 1132.5 c 128,-1,12
 1191 1198 1191 1198 1076.5 1232 c 128,-1,13
 962 1266 962 1266 825 1266 c 0,14,15
 713 1266 713 1266 603 1223 c 128,-1,16
 493 1180 493 1180 405.5 1105.5 c 128,-1,17
 318 1031 318 1031 264 920.5 c 128,-1,18
 210 810 210 810 210 685 c 0,0,1
110 685 m 0,19,20
 110 805 110 805 151 913.5 c 128,-1,21
 192 1022 192 1022 262.5 1103 c 128,-1,22
 333 1184 333 1184 424 1244 c 128,-1,23
 515 1304 515 1304 618.5 1335 c 128,-1,24
 722 1366 722 1366 825 1366 c 0,25,26
 975 1366 975 1366 1106 1326 c 128,-1,27
 1237 1286 1237 1286 1338.5 1209 c 128,-1,28
 1440 1132 1440 1132 1498.5 1008 c 128,-1,29
 1557 884 1557 884 1557 727 c 0,30,31
 1557 583 1557 583 1498.5 448 c 128,-1,32
 1440 313 1440 313 1341.5 214 c 128,-1,33
 1243 115 1243 115 1106 55 c 128,-1,34
 969 -5 969 -5 820 -5 c 0,35,36
 668 -5 668 -5 540 38.5 c 128,-1,37
 412 82 412 82 315.5 165.5 c 128,-1,38
 219 249 219 249 164.5 382 c 128,-1,39
 110 515 110 515 110 685 c 0,19,20
563 872 m 0,40,41
 542 872 542 872 527.5 887 c 128,-1,42
 513 902 513 902 513 922 c 0,43,44
 513 939 513 939 523 952 c 0,45,46
 570 1015 570 1015 641.5 1050 c 128,-1,47
 713 1085 713 1085 791 1085 c 0,48,49
 868 1085 868 1085 940 1052.5 c 128,-1,50
 1012 1020 1012 1020 1060 955.5 c 128,-1,51
 1108 891 1108 891 1108 809 c 0,52,53
 1108 719 1108 719 1053 653 c 128,-1,54
 998 587 998 587 907 563 c 1,55,56
 999 478 999 478 1128 407 c 0,57,58
 1153 393 1153 393 1153 366 c 0,59,60
 1153 345 1153 345 1138.5 328.5 c 128,-1,61
 1124 312 1124 312 1104 312 c 0,62,63
 1091 312 1091 312 1080 319 c 0,64,65
 871 435 871 435 764 568 c 0,66,67
 753 582 753 582 753 598 c 0,68,69
 753 618 753 618 767.5 634 c 128,-1,70
 782 650 782 650 803 650 c 0,71,72
 901 650 901 650 954.5 694.5 c 128,-1,73
 1008 739 1008 739 1008 809 c 0,74,75
 1008 881 1008 881 943 933 c 128,-1,76
 878 985 878 985 791 985 c 0,77,78
 737 985 737 985 686 960 c 128,-1,79
 635 935 635 935 603 892 c 0,80,81
 589 872 589 872 563 872 c 0,40,41
635 899 m 0,82,83
 636 921 636 921 650.5 933 c 128,-1,84
 665 945 665 945 685 945 c 128,-1,85
 705 945 705 945 720 933 c 128,-1,86
 735 921 735 921 735 898 c 0,87,88
 735 861 735 861 734 822 c 128,-1,89
 733 783 733 783 730 739 c 128,-1,90
 727 695 727 695 724.5 663.5 c 128,-1,91
 722 632 722 632 717.5 580.5 c 128,-1,92
 713 529 713 529 710.5 505.5 c 128,-1,93
 708 482 708 482 702 425 c 128,-1,94
 696 368 696 368 694 351 c 0,95,96
 692 330 692 330 678 319 c 128,-1,97
 664 308 664 308 645 308 c 0,98,99
 625 308 625 308 609.5 321 c 128,-1,100
 594 334 594 334 594 355 c 2,101,-1
 594 361 l 1,102,103
 623 640 623 640 635 899 c 0,82,83
EndSplineSet
EndChar

StartChar: degree
Encoding: 114 176 114
Width: 648
GlyphClass: 2
Flags: W
LayerCount: 2
Fore
SplineSet
594 1398 m 128,-1,1
 594 1290 594 1290 509 1212 c 128,-1,2
 424 1134 424 1134 309 1134 c 0,3,4
 207 1134 207 1134 130.5 1211 c 128,-1,5
 54 1288 54 1288 54 1391 c 0,6,7
 54 1502 54 1502 136 1588 c 128,-1,8
 218 1674 218 1674 323 1674 c 0,9,10
 434 1674 434 1674 514 1590 c 128,-1,0
 594 1506 594 1506 594 1398 c 128,-1,1
524 1398 m 0,11,12
 524 1478 524 1478 464 1541 c 128,-1,13
 404 1604 404 1604 323 1604 c 0,14,15
 250 1604 250 1604 187 1538 c 128,-1,16
 124 1472 124 1472 124 1391 c 0,17,18
 124 1318 124 1318 180.5 1261 c 128,-1,19
 237 1204 237 1204 309 1204 c 0,20,21
 396 1204 396 1204 460 1262.5 c 128,-1,22
 524 1321 524 1321 524 1398 c 0,11,12
EndSplineSet
EndChar

StartChar: uni00B2
Encoding: 116 178 116
Width: 625
GlyphClass: 2
Flags: W
LayerCount: 2
Fore
SplineSet
134 1263 m 128,-1,1
 120 1263 120 1263 109.5 1273.5 c 128,-1,2
 99 1284 99 1284 99 1298 c 0,3,4
 99 1384 99 1384 154 1448 c 128,-1,5
 209 1512 209 1512 297 1512 c 0,6,7
 376 1512 376 1512 426.5 1458 c 128,-1,8
 477 1404 477 1404 477 1327 c 0,9,10
 477 1280 477 1280 465.5 1241 c 128,-1,11
 454 1202 454 1202 427 1164.5 c 128,-1,12
 400 1127 400 1127 379.5 1105 c 128,-1,13
 359 1083 359 1083 316 1042 c 2,14,-1
 233 961 l 1,15,-1
 490 975 l 1,16,-1
 492 975 l 2,17,18
 508 975 508 975 517 964 c 128,-1,19
 526 953 526 953 526 939 c 128,-1,20
 526 925 526 925 518 915.5 c 128,-1,21
 510 906 510 906 494 905 c 2,22,-1
 143 886 l 1,23,-1
 141 886 l 2,24,25
 127 886 127 886 116.5 897 c 128,-1,26
 106 908 106 908 106 922 c 128,-1,27
 106 936 106 936 117 946 c 2,28,-1
 268 1092 l 2,29,30
 321 1143 321 1143 345.5 1171 c 128,-1,31
 370 1199 370 1199 388.5 1239.5 c 128,-1,32
 407 1280 407 1280 407 1327 c 0,33,34
 407 1378 407 1378 377 1410 c 128,-1,35
 347 1442 347 1442 297 1442 c 0,36,37
 241 1442 241 1442 205 1400.5 c 128,-1,38
 169 1359 169 1359 169 1298 c 0,39,40
 169 1284 169 1284 158.5 1273.5 c 128,-1,0
 148 1263 148 1263 134 1263 c 128,-1,1
EndSplineSet
EndChar

StartChar: uni00B3
Encoding: 117 179 117
Width: 573
GlyphClass: 2
Flags: W
LayerCount: 2
Fore
SplineSet
210 1340 m 0,0,1
 204 1314 204 1314 178 1314 c 0,2,3
 163 1314 163 1314 152 1323 c 128,-1,4
 141 1332 141 1332 141 1347 c 0,5,6
 141 1353 141 1353 142 1356 c 0,7,8
 155 1413 155 1413 200.5 1453.5 c 128,-1,9
 246 1494 246 1494 310 1494 c 0,10,11
 378 1494 378 1494 424 1444 c 128,-1,12
 470 1394 470 1394 470 1326 c 0,13,14
 470 1253 470 1253 400 1205 c 1,15,16
 483 1165 483 1165 486 1077 c 0,17,18
 486 989 486 989 424.5 937 c 128,-1,19
 363 885 363 885 277 885 c 0,20,21
 189 885 189 885 125 937 c 0,22,23
 112 947 112 947 112 962 c 0,24,25
 112 976 112 976 123 987.5 c 128,-1,26
 134 999 134 999 148 999 c 0,27,28
 158 999 158 999 169 991 c 0,29,30
 214 955 214 955 277 955 c 0,31,32
 338 955 338 955 377 988 c 128,-1,33
 416 1021 416 1021 416 1075 c 0,34,35
 414 1112 414 1112 386.5 1133 c 128,-1,36
 359 1154 359 1154 310 1154 c 0,37,38
 298 1154 298 1154 269.5 1149 c 128,-1,39
 241 1144 241 1144 228 1144 c 0,40,41
 194 1144 194 1144 190 1173 c 1,42,-1
 190 1179 l 2,43,44
 190 1191 190 1191 199 1199 c 128,-1,45
 208 1207 208 1207 216.5 1210 c 128,-1,46
 225 1213 225 1213 241 1216 c 0,47,48
 306 1232 306 1232 353 1259.5 c 128,-1,49
 400 1287 400 1287 400 1326 c 0,50,51
 400 1366 400 1366 373 1395 c 128,-1,52
 346 1424 346 1424 310 1424 c 0,53,54
 272 1424 272 1424 245 1400 c 128,-1,55
 218 1376 218 1376 210 1340 c 0,0,1
EndSplineSet
EndChar

StartChar: acute
Encoding: 118 180 118
Width: 518
GlyphClass: 2
Flags: W
LayerCount: 2
Fore
SplineSet
358 1531 m 0,0,1
 378 1531 378 1531 392.5 1515.5 c 128,-1,2
 407 1500 407 1500 407 1480 c 0,3,4
 407 1464 407 1464 396 1450 c 0,5,6
 328 1365 328 1365 283 1298 c 128,-1,7
 238 1231 238 1231 201 1148 c 0,8,9
 188 1120 188 1120 159 1120 c 0,10,11
 138 1120 138 1120 121.5 1134 c 128,-1,12
 105 1148 105 1148 105 1169 c 0,13,14
 105 1178 105 1178 110 1190 c 0,15,16
 138 1253 138 1253 176 1314.5 c 128,-1,17
 214 1376 214 1376 242.5 1414.5 c 128,-1,18
 271 1453 271 1453 318 1512 c 0,19,20
 334 1531 334 1531 358 1531 c 0,0,1
EndSplineSet
EndChar

StartChar: mu
Encoding: 119 181 119
Width: 1019
GlyphClass: 2
Flags: W
LayerCount: 2
Fore
SplineSet
895 1015 m 0,0,1
 895 958 895 958 891 809 c 128,-1,2
 887 660 887 660 887 587 c 0,3,4
 887 264 887 264 909 53 c 1,5,-1
 909 47 l 2,6,7
 909 26 909 26 893.5 13 c 128,-1,8
 878 0 878 0 858 0 c 0,9,10
 839 0 839 0 825 11 c 128,-1,11
 811 22 811 22 809 43 c 0,12,13
 799 149 799 149 795 232 c 1,14,15
 747 124 747 124 666.5 59.5 c 128,-1,16
 586 -5 586 -5 471 -5 c 0,17,18
 305 -5 305 -5 217 97 c 1,19,20
 228 -142 228 -142 258 -442 c 1,21,-1
 258 -447 l 2,22,23
 258 -469 258 -469 243 -482 c 128,-1,24
 228 -495 228 -495 207 -495 c 0,25,26
 188 -495 188 -495 174 -484 c 128,-1,27
 160 -473 160 -473 158 -452 c 0,28,29
 110 30 110 30 110 367 c 0,30,31
 110 439 110 439 115 532 c 1,32,-1
 115 535 l 2,33,34
 115 683 115 683 157 893 c 0,35,36
 170 965 170 965 188 1029 c 0,37,38
 198 1064 198 1064 234 1064 c 0,39,40
 255 1064 255 1064 270.5 1051 c 128,-1,41
 286 1038 286 1038 286 1017 c 0,42,43
 286 1013 286 1013 284 1003 c 0,44,45
 231 795 231 795 215 529 c 1,46,47
 215 395 215 395 229 315 c 0,48,49
 249 203 249 203 302 149 c 128,-1,50
 355 95 355 95 471 95 c 0,51,52
 588 95 588 95 658 192.5 c 128,-1,53
 728 290 728 290 761 471 c 0,54,55
 779 568 779 568 787 698 c 1,56,57
 787 890 787 890 795 1018 c 0,58,59
 796 1034 796 1034 809 1049 c 128,-1,60
 822 1064 822 1064 841 1065 c 2,61,-1
 845 1065 l 2,62,63
 865 1065 865 1065 880 1050.5 c 128,-1,64
 895 1036 895 1036 895 1015 c 0,0,1
EndSplineSet
EndChar

StartChar: paragraph
Encoding: 120 182 120
Width: 1319
GlyphClass: 2
Flags: W
LayerCount: 2
Fore
SplineSet
1209 1117 m 0,0,1
 1209 1097 1209 1097 1194.5 1082 c 128,-1,2
 1180 1067 1180 1067 1159 1067 c 0,3,4
 1136 1067 1136 1067 1121 1084 c 0,5,6
 961 1266 961 1266 715 1266 c 0,7,8
 578 1266 578 1266 462.5 1208 c 128,-1,9
 347 1150 347 1150 278.5 1045 c 128,-1,10
 210 940 210 940 210 811 c 0,11,12
 210 645 210 645 334.5 523 c 128,-1,13
 459 401 459 401 640 368 c 1,14,-1
 640 1090 l 2,15,16
 640 1110 640 1110 655 1125 c 128,-1,17
 670 1140 670 1140 690 1140 c 128,-1,18
 710 1140 710 1140 725 1125 c 128,-1,19
 740 1110 740 1110 740 1090 c 2,20,-1
 740 358 l 1,21,-1
 750 358 l 2,22,23
 826 358 826 358 903 378 c 1,24,-1
 903 1030 l 2,25,26
 903 1050 903 1050 918 1065 c 128,-1,27
 933 1080 933 1080 953 1080 c 128,-1,28
 973 1080 973 1080 988 1065 c 128,-1,29
 1003 1050 1003 1050 1003 1030 c 2,30,-1
 1003 394 l 1,31,32
 1029 378 1029 378 1029 347 c 0,33,34
 1029 318 1029 318 1003 305 c 1,35,-1
 1003 -442 l 2,36,37
 1003 -462 1003 -462 988 -477 c 128,-1,38
 973 -492 973 -492 953 -492 c 128,-1,39
 933 -492 933 -492 918 -477 c 128,-1,40
 903 -462 903 -462 903 -442 c 2,41,-1
 903 275 l 1,42,43
 826 258 826 258 750 258 c 2,44,-1
 740 258 l 1,45,-1
 740 -382 l 2,46,47
 740 -402 740 -402 725 -417 c 128,-1,48
 710 -432 710 -432 690 -432 c 128,-1,49
 670 -432 670 -432 655 -417 c 128,-1,50
 640 -402 640 -402 640 -382 c 2,51,-1
 640 267 l 1,52,53
 536 283 536 283 441 328.5 c 128,-1,54
 346 374 346 374 272 442.5 c 128,-1,55
 198 511 198 511 154 607 c 128,-1,56
 110 703 110 703 110 811 c 0,57,58
 110 932 110 932 159.5 1037 c 128,-1,59
 209 1142 209 1142 292.5 1213.5 c 128,-1,60
 376 1285 376 1285 486 1325.5 c 128,-1,61
 596 1366 596 1366 715 1366 c 0,62,63
 865 1366 865 1366 987.5 1308.5 c 128,-1,64
 1110 1251 1110 1251 1197 1150 c 0,65,66
 1209 1135 1209 1135 1209 1117 c 0,0,1
EndSplineSet
EndChar

StartChar: cedilla
Encoding: 122 184 122
Width: 729
GlyphClass: 2
Flags: W
LayerCount: 2
Fore
SplineSet
277 1 m 0,0,1
 277 21 277 21 292.5 35.5 c 128,-1,2
 308 50 308 50 328 50 c 0,3,4
 344 50 344 50 358 39 c 0,5,6
 412 -5 412 -5 465 -64 c 128,-1,7
 518 -123 518 -123 562.5 -206.5 c 128,-1,8
 607 -290 607 -290 607 -361 c 0,9,10
 607 -451 607 -451 531.5 -501 c 128,-1,11
 456 -551 456 -551 319 -551 c 0,12,13
 220 -551 220 -551 146 -529 c 0,14,15
 111 -519 111 -519 111 -484 c 0,16,17
 111 -463 111 -463 124.5 -447 c 128,-1,18
 138 -431 138 -431 159 -431 c 0,19,20
 169 -431 169 -431 174 -433 c 0,21,22
 240 -451 240 -451 319 -451 c 0,23,24
 432 -451 432 -451 469.5 -426 c 128,-1,25
 507 -401 507 -401 507 -361 c 0,26,27
 507 -298 507 -298 437 -197 c 128,-1,28
 367 -96 367 -96 296 -39 c 0,29,30
 277 -23 277 -23 277 1 c 0,0,1
EndSplineSet
EndChar

StartChar: uni00B9
Encoding: 123 185 123
Width: 438
GlyphClass: 2
Flags: W
LayerCount: 2
Fore
SplineSet
335 831 m 2,0,1
 334 815 334 815 324 807 c 128,-1,2
 314 799 314 799 300 799 c 0,3,4
 285 799 285 799 274.5 809 c 128,-1,5
 264 819 264 819 265 835 c 2,6,-1
 300 1382 l 1,7,8
 225 1327 225 1327 147 1296 c 0,9,10
 140 1293 140 1293 134 1293 c 0,11,12
 120 1293 120 1293 110 1304.5 c 128,-1,13
 100 1316 100 1316 100 1331 c 0,14,15
 100 1354 100 1354 121 1362 c 0,16,17
 229 1405 229 1405 317 1485 c 0,18,19
 328 1494 328 1494 340 1494 c 0,20,21
 355 1494 355 1494 365.5 1483 c 128,-1,22
 376 1472 376 1472 375 1457 c 2,23,-1
 335 831 l 2,0,1
EndSplineSet
EndChar

StartChar: onequarter
Encoding: 126 188 126
Width: 1893
GlyphClass: 2
Flags: W
LayerCount: 2
Fore
SplineSet
459 -5 m 0,0,1
 440 -5 440 -5 424.5 10.5 c 128,-1,2
 409 26 409 26 409 45 c 0,3,4
 409 63 409 63 423 79 c 0,5,6
 693 365 693 365 986 755 c 128,-1,7
 1279 1145 1279 1145 1442 1438 c 0,8,9
 1456 1463 1456 1463 1483 1463 c 0,10,11
 1504 1463 1504 1463 1520.5 1448.5 c 128,-1,12
 1537 1434 1537 1434 1537 1414 c 0,13,14
 1537 1401 1537 1401 1530 1390 c 0,15,16
 1364 1091 1364 1091 1068.5 699 c 128,-1,17
 773 307 773 307 495 11 c 0,18,19
 479 -5 479 -5 459 -5 c 0,0,1
1491 380 m 2,20,21
 1493 401 1493 401 1506.5 411.5 c 128,-1,22
 1520 422 1520 422 1539 422 c 0,23,24
 1560 422 1560 422 1575.5 409 c 128,-1,25
 1591 396 1591 396 1591 374 c 2,26,-1
 1591 368 l 1,27,-1
 1543 -54 l 1,28,29
 1651 -35 1651 -35 1748 -12 c 0,30,31
 1756 -10 1756 -10 1761 -10 c 0,32,33
 1782 -10 1782 -10 1795.5 -26.5 c 128,-1,34
 1809 -43 1809 -43 1809 -64 c 0,35,36
 1809 -101 1809 -101 1772 -110 c 0,37,38
 1657 -138 1657 -138 1531 -158 c 1,39,-1
 1507 -371 l 2,40,41
 1505 -392 1505 -392 1491.5 -402.5 c 128,-1,42
 1478 -413 1478 -413 1459 -413 c 0,43,44
 1438 -413 1438 -413 1422.5 -400 c 128,-1,45
 1407 -387 1407 -387 1407 -365 c 2,46,-1
 1407 -359 l 1,47,-1
 1428 -172 l 1,48,49
 1290 -188 1290 -188 1169 -188 c 0,50,51
 1100 -188 1100 -188 1062 -182 c 0,52,53
 992 -174 992 -174 964 -125 c 0,54,55
 952 -104 952 -104 952 -78 c 0,56,57
 952 -39 952 -39 979 0 c 0,58,59
 1212 340 1212 340 1392 783 c 0,60,61
 1405 813 1405 813 1435 813 c 0,62,63
 1456 813 1456 813 1472 799.5 c 128,-1,64
 1488 786 1488 786 1488 765 c 0,65,66
 1488 754 1488 754 1484 745 c 0,67,68
 1301 292 1301 292 1061 -58 c 0,69,70
 1054 -68 1054 -68 1052 -76 c 1,71,72
 1074 -88 1074 -88 1143 -88 c 2,73,-1
 1169 -88 l 2,74,75
 1298 -88 1298 -88 1440 -69 c 1,76,-1
 1491 380 l 2,20,21
410 517 m 2,77,78
 409 495 409 495 394.5 483.5 c 128,-1,79
 380 472 380 472 361 472 c 0,80,81
 340 472 340 472 324.5 486 c 128,-1,82
 309 500 309 500 310 523 c 2,83,-1
 374 1501 l 1,84,85
 268 1409 268 1409 159 1346 c 0,86,87
 146 1339 146 1339 134 1339 c 0,88,89
 114 1339 114 1339 99.5 1355.5 c 128,-1,90
 85 1372 85 1372 85 1392 c 0,91,92
 85 1418 85 1418 109 1432 c 0,93,94
 229 1501 229 1501 361 1624 c 0,95,96
 374 1637 374 1637 395 1637 c 2,97,-1
 430 1637 l 2,98,99
 451 1637 451 1637 466 1621.5 c 128,-1,100
 481 1606 481 1606 480 1584 c 2,101,-1
 410 517 l 2,77,78
EndSplineSet
EndChar

StartChar: onehalf
Encoding: 127 189 127
Width: 1915
GlyphClass: 2
Flags: W
LayerCount: 2
Fore
SplineSet
1237 320 m 128,-1,1
 1217 320 1217 320 1202 335 c 128,-1,2
 1187 350 1187 350 1187 370 c 0,3,4
 1187 471 1187 471 1229.5 558 c 128,-1,5
 1272 645 1272 645 1354 700 c 128,-1,6
 1436 755 1436 755 1541 755 c 0,7,8
 1683 755 1683 755 1768.5 659.5 c 128,-1,9
 1854 564 1854 564 1854 424 c 0,10,11
 1854 337 1854 337 1829 261 c 128,-1,12
 1804 185 1804 185 1754 119 c 128,-1,13
 1704 53 1704 53 1648 0 c 128,-1,14
 1592 -53 1592 -53 1512 -113 c 1,15,-1
 1335 -274 l 1,16,17
 1443 -268 1443 -268 1548 -268 c 0,18,19
 1669 -268 1669 -268 1847 -277 c 0,20,21
 1869 -278 1869 -278 1881 -292.5 c 128,-1,22
 1893 -307 1893 -307 1893 -327 c 128,-1,23
 1893 -347 1893 -347 1880.5 -362 c 128,-1,24
 1868 -377 1868 -377 1845 -377 c 2,25,-1
 1842 -377 l 1,26,27
 1664 -368 1664 -368 1548 -368 c 0,28,29
 1362 -368 1362 -368 1198 -385 c 1,30,-1
 1194 -385 l 2,31,32
 1174 -385 1174 -385 1158.5 -369 c 128,-1,33
 1143 -353 1143 -353 1143 -333 c 128,-1,34
 1143 -313 1143 -313 1159 -298 c 2,35,-1
 1446 -37 l 2,36,37
 1446 -36 1446 -36 1448 -35 c 2,38,-1
 1450 -34 l 1,39,40
 1606 84 1606 84 1680 187 c 128,-1,41
 1754 290 1754 290 1754 424 c 0,42,43
 1754 527 1754 527 1696.5 591 c 128,-1,44
 1639 655 1639 655 1541 655 c 0,45,46
 1430 655 1430 655 1358.5 572.5 c 128,-1,47
 1287 490 1287 490 1287 370 c 0,48,49
 1287 350 1287 350 1272 335 c 128,-1,0
 1257 320 1257 320 1237 320 c 128,-1,1
459 -5 m 0,50,51
 440 -5 440 -5 424.5 10.5 c 128,-1,52
 409 26 409 26 409 45 c 0,53,54
 409 63 409 63 423 79 c 0,55,56
 694 365 694 365 986.5 754.5 c 128,-1,57
 1279 1144 1279 1144 1442 1438 c 0,58,59
 1456 1463 1456 1463 1483 1463 c 0,60,61
 1504 1463 1504 1463 1520.5 1448.5 c 128,-1,62
 1537 1434 1537 1434 1537 1414 c 0,63,64
 1537 1401 1537 1401 1530 1390 c 0,65,66
 1364 1090 1364 1090 1068.5 698 c 128,-1,67
 773 306 773 306 495 11 c 0,68,69
 479 -5 479 -5 459 -5 c 0,50,51
410 517 m 2,70,71
 409 495 409 495 394.5 483.5 c 128,-1,72
 380 472 380 472 361 472 c 0,73,74
 340 472 340 472 324.5 486 c 128,-1,75
 309 500 309 500 310 523 c 2,76,-1
 374 1501 l 1,77,78
 268 1409 268 1409 159 1346 c 0,79,80
 146 1339 146 1339 134 1339 c 0,81,82
 114 1339 114 1339 99.5 1355.5 c 128,-1,83
 85 1372 85 1372 85 1392 c 0,84,85
 85 1418 85 1418 109 1432 c 0,86,87
 229 1501 229 1501 361 1624 c 0,88,89
 374 1637 374 1637 395 1637 c 2,90,-1
 430 1637 l 2,91,92
 451 1637 451 1637 466 1621.5 c 128,-1,93
 481 1606 481 1606 480 1584 c 2,94,-1
 410 517 l 2,70,71
EndSplineSet
EndChar

StartChar: threequarters
Encoding: 128 190 128
Width: 2014
GlyphClass: 2
Flags: W
LayerCount: 2
Fore
SplineSet
1612 380 m 2,0,1
 1614 401 1614 401 1627.5 411.5 c 128,-1,2
 1641 422 1641 422 1660 422 c 0,3,4
 1681 422 1681 422 1696.5 409 c 128,-1,5
 1712 396 1712 396 1712 374 c 2,6,-1
 1712 368 l 1,7,-1
 1663 -54 l 1,8,9
 1770 -36 1770 -36 1869 -12 c 0,10,11
 1877 -10 1877 -10 1882 -10 c 0,12,13
 1903 -10 1903 -10 1916.5 -26.5 c 128,-1,14
 1930 -43 1930 -43 1930 -64 c 0,15,16
 1930 -101 1930 -101 1893 -110 c 0,17,18
 1777 -138 1777 -138 1651 -158 c 1,19,-1
 1627 -371 l 2,20,21
 1625 -392 1625 -392 1611.5 -402.5 c 128,-1,22
 1598 -413 1598 -413 1579 -413 c 0,23,24
 1558 -413 1558 -413 1542.5 -400 c 128,-1,25
 1527 -387 1527 -387 1527 -365 c 2,26,-1
 1527 -359 l 1,27,-1
 1548 -172 l 1,28,29
 1410 -188 1410 -188 1289 -188 c 0,30,31
 1221 -188 1221 -188 1183 -182 c 0,32,33
 1107 -171 1107 -171 1082 -122 c 0,34,35
 1072 -103 1072 -103 1072 -78 c 0,36,37
 1072 -43 1072 -43 1098 -1 c 0,38,39
 1333 340 1333 340 1512 783 c 0,40,41
 1525 813 1525 813 1555 813 c 0,42,43
 1576 813 1576 813 1592 799.5 c 128,-1,44
 1608 786 1608 786 1608 765 c 0,45,46
 1608 754 1608 754 1604 745 c 0,47,48
 1419 288 1419 288 1182 -57 c 0,49,50
 1173 -71 1173 -71 1172 -76 c 1,51,52
 1195 -88 1195 -88 1263 -88 c 2,53,-1
 1289 -88 l 2,54,55
 1425 -88 1425 -88 1560 -70 c 1,56,-1
 1612 380 l 2,0,1
579 -5 m 0,57,58
 560 -5 560 -5 544.5 10.5 c 128,-1,59
 529 26 529 26 529 45 c 0,60,61
 529 63 529 63 543 79 c 0,62,63
 814 365 814 365 1106.5 754.5 c 128,-1,64
 1399 1144 1399 1144 1562 1438 c 0,65,66
 1576 1463 1576 1463 1603 1463 c 0,67,68
 1624 1463 1624 1463 1640.5 1448.5 c 128,-1,69
 1657 1434 1657 1434 1657 1414 c 0,70,71
 1657 1401 1657 1401 1650 1390 c 0,72,73
 1484 1090 1484 1090 1188.5 698 c 128,-1,74
 893 306 893 306 615 11 c 0,75,76
 599 -5 599 -5 579 -5 c 0,57,58
84 622 m 0,77,78
 84 643 84 643 98.5 657.5 c 128,-1,79
 113 672 113 672 134 672 c 0,80,81
 152 672 152 672 166 661 c 0,82,83
 255 588 255 588 376 588 c 0,84,85
 495 588 495 588 571.5 652.5 c 128,-1,86
 648 717 648 717 649 826 c 0,87,88
 646 902 646 902 589 946 c 128,-1,89
 532 990 532 990 438 990 c 0,90,91
 400 990 400 990 292 965 c 0,92,93
 288 964 288 964 280 964 c 0,94,95
 258 964 258 964 245 979 c 128,-1,96
 232 994 232 994 232 1015 c 0,97,98
 232 1052 232 1052 268 1062 c 0,99,100
 395 1095 395 1095 432 1109 c 0,101,102
 619 1180 619 1180 619 1307 c 0,103,104
 619 1413 619 1413 572 1461 c 128,-1,105
 525 1509 525 1509 453 1509 c 128,-1,106
 381 1509 381 1509 317.5 1462 c 128,-1,107
 254 1415 254 1415 237 1340 c 0,108,109
 228 1302 228 1302 190 1302 c 0,110,111
 169 1302 169 1302 153.5 1315 c 128,-1,112
 138 1328 138 1328 138 1350 c 0,113,114
 138 1358 138 1358 139 1362 c 0,115,116
 164 1474 164 1474 255.5 1541.5 c 128,-1,117
 347 1609 347 1609 453 1609 c 0,118,119
 563 1609 563 1609 641 1529.5 c 128,-1,120
 719 1450 719 1450 719 1307 c 0,121,122
 719 1158 719 1158 573 1067 c 1,123,124
 650 1038 650 1038 698 976 c 128,-1,125
 746 914 746 914 749 828 c 0,126,127
 749 724 749 724 696 645 c 128,-1,128
 643 566 643 566 559.5 527 c 128,-1,129
 476 488 476 488 376 488 c 0,130,131
 218 488 218 488 102 583 c 0,132,133
 84 598 84 598 84 622 c 0,77,78
EndSplineSet
EndChar

StartChar: AE
Encoding: 136 198 136
Width: 1909
GlyphClass: 2
Flags: W
LayerCount: 2
Fore
SplineSet
1771 1423 m 0,0,1
 1779 1425 1779 1425 1784 1425 c 0,2,3
 1805 1425 1805 1425 1818 1409.5 c 128,-1,4
 1831 1394 1831 1394 1831 1373 c 0,5,6
 1831 1334 1831 1334 1793 1325 c 0,7,8
 1546 1267 1546 1267 1258 1267 c 0,9,10
 1178 1267 1178 1267 1110 1268 c 1,11,12
 1111 1222 1111 1222 1111 1119 c 0,13,14
 1111 885 1111 885 1108 761 c 1,15,-1
 1153 761 l 2,16,17
 1478 761 1478 761 1701 743 c 0,18,19
 1722 742 1722 742 1733.5 727.5 c 128,-1,20
 1745 713 1745 713 1745 694 c 0,21,22
 1745 674 1745 674 1732.5 658.5 c 128,-1,23
 1720 643 1720 643 1698 643 c 2,24,-1
 1693 643 l 1,25,26
 1476 661 1476 661 1153 661 c 2,27,-1
 1105 661 l 1,28,29
 1095 370 1095 370 1066 208 c 0,30,31
 1062 189 1062 189 1062 173 c 0,32,33
 1062 120 1062 120 1119.5 88 c 128,-1,34
 1177 56 1177 56 1283 50 c 0,35,36
 1488 37 1488 37 1636 37 c 2,37,-1
 1698 37 l 2,38,39
 1738 37 1738 37 1758 38 c 2,40,-1
 1761 38 l 2,41,42
 1783 38 1783 38 1795.5 23 c 128,-1,43
 1808 8 1808 8 1808 -12 c 128,-1,44
 1808 -32 1808 -32 1796 -46.5 c 128,-1,45
 1784 -61 1784 -61 1762 -62 c 128,-1,46
 1740 -63 1740 -63 1698 -63 c 2,47,-1
 1636 -63 l 2,48,49
 1482 -63 1482 -63 1277 -50 c 0,50,51
 1219 -47 1219 -47 1168 -34.5 c 128,-1,52
 1117 -22 1117 -22 1068 2 c 128,-1,53
 1019 26 1019 26 990.5 70 c 128,-1,54
 962 114 962 114 962 173 c 0,55,56
 962 198 962 198 968 226 c 0,57,58
 995 379 995 379 1005 660 c 1,59,60
 748 657 748 657 566 646 c 1,61,62
 387 223 387 223 172 -32 c 0,63,64
 156 -49 156 -49 136 -49 c 128,-1,65
 116 -49 116 -49 100 -34 c 128,-1,66
 84 -19 84 -19 84 1 c 0,67,68
 84 19 84 19 96 32 c 0,69,70
 291 264 291 264 462 661 c 1,71,72
 453 674 453 674 453 693 c 128,-1,73
 453 712 453 712 464 726 c 128,-1,74
 475 740 475 740 496 742 c 1,75,76
 628 1071 628 1071 676 1334 c 0,77,78
 679 1350 679 1350 693.5 1362.5 c 128,-1,79
 708 1375 708 1375 726 1375 c 2,80,-1
 728 1375 l 1,81,82
 870 1367 870 1367 1258 1367 c 0,83,84
 1532 1367 1532 1367 1771 1423 c 0,0,1
607 749 m 1,85,86
 748 756 748 756 1007 760 c 1,87,88
 1011 925 1011 925 1011 1119 c 0,89,90
 1011 1224 1011 1224 1010 1270 c 1,91,92
 968 1270 968 1270 766 1274 c 1,93,94
 717 1033 717 1033 607 749 c 1,85,86
EndSplineSet
EndChar

StartChar: Eth
Encoding: 146 208 146
Width: 1341
GlyphClass: 2
Flags: W
LayerCount: 2
Fore
SplineSet
93 679 m 1,0,-1
 88 679 l 2,1,2
 66 679 66 679 53.5 694.5 c 128,-1,3
 41 710 41 710 41 730 c 0,4,5
 41 749 41 749 52.5 763.5 c 128,-1,6
 64 778 64 778 85 779 c 0,7,8
 227 790 227 790 371 790 c 128,-1,9
 515 790 515 790 647 779 c 0,10,11
 668 778 668 778 679.5 763.5 c 128,-1,12
 691 749 691 749 691 730 c 0,13,14
 691 710 691 710 678.5 694.5 c 128,-1,15
 666 679 666 679 644 679 c 2,16,-1
 639 679 l 1,17,18
 512 690 512 690 372 690 c 0,19,20
 230 690 230 690 93 679 c 1,0,-1
381 1255 m 1,21,22
 405 1025 405 1025 405 811 c 0,23,24
 405 463 405 463 365 126 c 1,25,26
 464 95 464 95 562 95 c 0,27,28
 738 95 738 95 878.5 171.5 c 128,-1,29
 1019 248 1019 248 1099 386.5 c 128,-1,30
 1179 525 1179 525 1179 701 c 0,31,32
 1179 990 1179 990 1007 1128 c 128,-1,33
 835 1266 835 1266 516 1266 c 0,34,35
 443 1266 443 1266 381 1255 c 1,21,22
316 1344 m 0,36,37
 411 1366 411 1366 516 1366 c 0,38,39
 650 1366 650 1366 765 1341.5 c 128,-1,40
 880 1317 880 1317 975.5 1265 c 128,-1,41
 1071 1213 1071 1213 1138 1135.5 c 128,-1,42
 1205 1058 1205 1058 1242 947.5 c 128,-1,43
 1279 837 1279 837 1279 701 c 0,44,45
 1279 549 1279 549 1224 417 c 128,-1,46
 1169 285 1169 285 1073.5 192.5 c 128,-1,47
 978 100 978 100 845.5 47.5 c 128,-1,48
 713 -5 713 -5 562 -5 c 0,49,50
 422 -5 422 -5 292 45 c 0,51,52
 260 58 260 58 260 92 c 2,53,-1
 260 98 l 1,54,55
 305 446 305 446 305 811 c 0,56,57
 305 910 305 910 291 1054 c 128,-1,58
 277 1198 277 1198 277 1295 c 0,59,60
 277 1312 277 1312 288.5 1326 c 128,-1,61
 300 1340 300 1340 316 1344 c 0,36,37
EndSplineSet
EndChar

StartChar: multiply
Encoding: 153 215 153
Width: 756
GlyphClass: 2
Flags: W
LayerCount: 2
Fore
SplineSet
117 350 m 0,0,1
 97 350 97 350 82.5 365.5 c 128,-1,2
 68 381 68 381 68 401 c 0,3,4
 68 417 68 417 79 431 c 0,5,6
 178 558 178 558 302 688 c 1,7,8
 171 801 171 801 59 872 c 0,9,10
 36 886 36 886 36 911 c 0,11,12
 36 931 36 931 51 947.5 c 128,-1,13
 66 964 66 964 87 964 c 0,14,15
 101 964 101 964 113 956 c 0,16,17
 242 875 242 875 372 760 c 1,18,19
 447 836 447 836 575 955 c 0,20,21
 588 968 588 968 609 968 c 128,-1,22
 630 968 630 968 644.5 953.5 c 128,-1,23
 659 939 659 939 659 918 c 0,24,25
 659 894 659 894 643 881 c 0,26,27
 519 766 519 766 446 692 c 1,28,29
 519 623 519 623 587.5 543.5 c 128,-1,30
 656 464 656 464 683 412 c 0,31,32
 689 400 689 400 689 390 c 0,33,34
 689 370 689 370 672.5 355.5 c 128,-1,35
 656 341 656 341 635 341 c 0,36,37
 607 341 607 341 593 368 c 0,38,39
 556 444 556 444 431 569 c 0,40,41
 415 585 415 585 377 621 c 1,42,43
 259 499 259 499 157 369 c 0,44,45
 141 350 141 350 117 350 c 0,0,1
EndSplineSet
EndChar

StartChar: Oslash
Encoding: 154 216 154
Width: 1485
GlyphClass: 2
Flags: W
LayerCount: 2
Fore
SplineSet
170 -5 m 0,0,1
 149 -5 149 -5 134.5 10 c 128,-1,2
 120 25 120 25 120 45 c 0,3,4
 120 61 120 61 128 73 c 0,5,6
 231 227 231 227 347 374 c 128,-1,7
 463 521 463 521 563.5 634.5 c 128,-1,8
 664 748 664 748 803 885.5 c 128,-1,9
 942 1023 942 1023 1040.5 1114.5 c 128,-1,10
 1139 1206 1139 1206 1301 1353 c 0,11,12
 1314 1366 1314 1366 1335 1366 c 0,13,14
 1355 1366 1355 1366 1369.5 1351.5 c 128,-1,15
 1384 1337 1384 1337 1384 1316 c 0,16,17
 1384 1292 1384 1292 1368 1279 c 0,18,19
 1206 1132 1206 1132 1108.5 1041.5 c 128,-1,20
 1011 951 1011 951 874 815 c 128,-1,21
 737 679 737 679 638.5 568 c 128,-1,22
 540 457 540 457 426.5 312.5 c 128,-1,23
 313 168 313 168 212 17 c 0,24,25
 198 -5 198 -5 170 -5 c 0,0,1
713 95 m 0,26,27
 959 95 959 95 1117 256 c 128,-1,28
 1275 417 1275 417 1275 684 c 0,29,30
 1275 847 1275 847 1217 979 c 128,-1,31
 1159 1111 1159 1111 1050 1188.5 c 128,-1,32
 941 1266 941 1266 799 1266 c 0,33,34
 633 1266 633 1266 497.5 1179 c 128,-1,35
 362 1092 362 1092 286 942.5 c 128,-1,36
 210 793 210 793 210 613 c 0,37,38
 210 371 210 371 349 233 c 128,-1,39
 488 95 488 95 713 95 c 0,26,27
713 -5 m 0,40,41
 540 -5 540 -5 403.5 69.5 c 128,-1,42
 267 144 267 144 188.5 285.5 c 128,-1,43
 110 427 110 427 110 613 c 0,44,45
 110 765 110 765 161.5 902.5 c 128,-1,46
 213 1040 213 1040 302.5 1142.5 c 128,-1,47
 392 1245 392 1245 521.5 1305.5 c 128,-1,48
 651 1366 651 1366 799 1366 c 0,49,50
 931 1366 931 1366 1041 1310.5 c 128,-1,51
 1151 1255 1151 1255 1223.5 1160.5 c 128,-1,52
 1296 1066 1296 1066 1335.5 943 c 128,-1,53
 1375 820 1375 820 1375 684 c 0,54,55
 1375 532 1375 532 1324.5 402.5 c 128,-1,56
 1274 273 1274 273 1185.5 184 c 128,-1,57
 1097 95 1097 95 975 45 c 128,-1,58
 853 -5 853 -5 713 -5 c 0,40,41
EndSplineSet
EndChar

StartChar: germandbls
Encoding: 161 223 161
Width: 1032
GlyphClass: 2
Flags: W
LayerCount: 2
Fore
SplineSet
184 1 m 0,0,1
 183 -21 183 -21 168.5 -32.5 c 128,-1,2
 154 -44 154 -44 135 -44 c 0,3,4
 115 -44 115 -44 99.5 -31.5 c 128,-1,5
 84 -19 84 -19 84 3 c 0,6,7
 84 63 84 63 85.5 123 c 128,-1,8
 87 183 87 183 91 248.5 c 128,-1,9
 95 314 95 314 98 362.5 c 128,-1,10
 101 411 101 411 108 483.5 c 128,-1,11
 115 556 115 556 118.5 592.5 c 128,-1,12
 122 629 122 629 131.5 708 c 128,-1,13
 141 787 141 787 144 811 c 128,-1,14
 147 835 147 835 157.5 919.5 c 128,-1,15
 168 1004 168 1004 170 1017 c 0,16,17
 215 1366 215 1366 495 1366 c 0,18,19
 641 1366 641 1366 728.5 1275 c 128,-1,20
 816 1184 816 1184 816 1060 c 0,21,22
 816 956 816 956 788 898 c 128,-1,23
 760 840 760 840 689 783 c 0,24,25
 647 750 647 750 621 706 c 128,-1,26
 595 662 595 662 595 619 c 0,27,28
 595 581 595 581 618.5 554.5 c 128,-1,29
 642 528 642 528 695 501 c 0,30,31
 733 482 733 482 762.5 464.5 c 128,-1,32
 792 447 792 447 829 417 c 128,-1,33
 866 387 866 387 890 355 c 128,-1,34
 914 323 914 323 931 277.5 c 128,-1,35
 948 232 948 232 948 182 c 0,36,37
 948 136 948 136 926 98.5 c 128,-1,38
 904 61 904 61 869 36.5 c 128,-1,39
 834 12 834 12 788.5 -5 c 128,-1,40
 743 -22 743 -22 697 -29 c 128,-1,41
 651 -36 651 -36 606 -36 c 0,42,43
 484 -36 484 -36 403 9 c 0,44,45
 378 24 378 24 378 50 c 0,46,47
 378 71 378 71 393 87.5 c 128,-1,48
 408 104 408 104 428 104 c 0,49,50
 441 104 441 104 452 97 c 0,51,52
 510 64 510 64 606 64 c 0,53,54
 709 64 709 64 778.5 101 c 128,-1,55
 848 138 848 138 848 182 c 0,56,57
 848 257 848 257 795 310.5 c 128,-1,58
 742 364 742 364 649 411 c 0,59,60
 495 490 495 490 495 619 c 0,61,62
 495 691 495 691 532.5 753.5 c 128,-1,63
 570 816 570 816 627 861 c 0,64,65
 672 897 672 897 687 915 c 128,-1,66
 702 933 702 933 709 963.5 c 128,-1,67
 716 994 716 994 716 1060 c 0,68,69
 716 1145 716 1145 658 1205.5 c 128,-1,70
 600 1266 600 1266 495 1266 c 0,71,72
 447 1266 447 1266 415 1257 c 128,-1,73
 383 1248 383 1248 352 1222 c 128,-1,74
 321 1196 321 1196 301 1142.5 c 128,-1,75
 281 1089 281 1089 270 1005 c 0,76,77
 232 709 232 709 184 1 c 0,0,1
EndSplineSet
EndChar

StartChar: ae
Encoding: 168 230 168
Width: 1832
GlyphClass: 2
Flags: W
LayerCount: 2
Fore
SplineSet
1000 517 m 1,0,1
 1062 510 1062 510 1127 510 c 0,2,3
 1201 510 1201 510 1285.5 530 c 128,-1,4
 1370 550 1370 550 1444.5 584 c 128,-1,5
 1519 618 1519 618 1568 671 c 128,-1,6
 1617 724 1617 724 1617 784 c 0,7,8
 1617 847 1617 847 1563.5 888 c 128,-1,9
 1510 929 1510 929 1431 929 c 0,10,11
 1272 929 1272 929 1152 810 c 128,-1,12
 1032 691 1032 691 1000 517 c 1,0,1
857 875 m 0,13,14
 857 855 857 855 842 841 c 128,-1,15
 827 827 827 827 807 827 c 0,16,17
 788 827 788 827 774 839 c 0,18,19
 690 913 690 913 578 913 c 0,20,21
 471 913 471 913 379 840 c 128,-1,22
 287 767 287 767 235.5 653.5 c 128,-1,23
 184 540 184 540 184 419 c 0,24,25
 184 275 184 275 271.5 185 c 128,-1,26
 359 95 359 95 503 95 c 0,27,28
 592 95 592 95 661.5 126.5 c 128,-1,29
 731 158 731 158 775.5 214.5 c 128,-1,30
 820 271 820 271 847.5 336.5 c 128,-1,31
 875 402 875 402 891 483 c 0,32,33
 920 632 920 632 963 961 c 0,34,35
 969 1003 969 1003 1012 1003 c 0,36,37
 1032 1003 1032 1003 1047 990 c 128,-1,38
 1062 977 1062 977 1062 956 c 2,39,-1
 1062 949 l 2,40,41
 1060 933 1060 933 1055 898.5 c 128,-1,42
 1050 864 1050 864 1048 847 c 1,43,44
 1121 932 1121 932 1219.5 980.5 c 128,-1,45
 1318 1029 1318 1029 1431 1029 c 0,46,47
 1502 1029 1502 1029 1566 1002 c 128,-1,48
 1630 975 1630 975 1673.5 917.5 c 128,-1,49
 1717 860 1717 860 1717 784 c 0,50,51
 1717 717 1717 717 1686.5 659.5 c 128,-1,52
 1656 602 1656 602 1605.5 562.5 c 128,-1,53
 1555 523 1555 523 1493 492.5 c 128,-1,54
 1431 462 1431 462 1363.5 444.5 c 128,-1,55
 1296 427 1296 427 1236.5 418.5 c 128,-1,56
 1177 410 1177 410 1127 410 c 0,57,58
 1065 410 1065 410 991 418 c 1,59,60
 995 273 995 273 1094 184 c 128,-1,61
 1193 95 1193 95 1346 95 c 0,62,63
 1433 95 1433 95 1516.5 127 c 128,-1,64
 1600 159 1600 159 1665 218 c 0,65,66
 1678 231 1678 231 1699 231 c 128,-1,67
 1720 231 1720 231 1734.5 216.5 c 128,-1,68
 1749 202 1749 202 1749 181 c 0,69,70
 1749 157 1749 157 1733 144 c 0,71,72
 1655 72 1655 72 1554 33.5 c 128,-1,73
 1453 -5 1453 -5 1346 -5 c 0,74,75
 1200 -5 1200 -5 1086.5 66.5 c 128,-1,76
 973 138 973 138 923 261 c 1,77,78
 864 142 864 142 759.5 68.5 c 128,-1,79
 655 -5 655 -5 503 -5 c 0,80,81
 318 -5 318 -5 201 116 c 128,-1,82
 84 237 84 237 84 419 c 0,83,84
 84 501 84 501 106 585.5 c 128,-1,85
 128 670 128 670 171.5 746.5 c 128,-1,86
 215 823 215 823 273.5 882.5 c 128,-1,87
 332 942 332 942 411 977.5 c 128,-1,88
 490 1013 490 1013 578 1013 c 0,89,90
 727 1013 727 1013 840 913 c 0,91,92
 857 898 857 898 857 875 c 0,13,14
EndSplineSet
EndChar

StartChar: eth
Encoding: 178 240 178
Width: 1089
GlyphClass: 2
Flags: W
LayerCount: 2
Fore
SplineSet
228 950 m 0,0,1
 207 950 207 950 192.5 964.5 c 128,-1,2
 178 979 178 979 178 1000 c 128,-1,3
 178 1021 178 1021 191 1034 c 0,4,5
 274 1125 274 1125 468 1256 c 1,6,7
 363 1326 363 1326 239 1373 c 0,8,9
 208 1384 208 1384 208 1417 c 0,10,11
 208 1438 208 1438 222 1454.5 c 128,-1,12
 236 1471 236 1471 257 1471 c 0,13,14
 263 1471 263 1471 275 1467 c 0,15,16
 431 1408 431 1408 560 1315 c 1,17,18
 737 1425 737 1425 827 1454 c 0,19,20
 836 1457 836 1457 843 1457 c 0,21,22
 864 1457 864 1457 877 1441 c 128,-1,23
 890 1425 890 1425 890 1404 c 0,24,25
 890 1369 890 1369 857 1358 c 0,26,27
 789 1336 789 1336 645 1247 c 1,28,29
 738 1165 738 1165 807.5 1066.5 c 128,-1,30
 877 968 877 968 915 872 c 128,-1,31
 953 776 953 776 971 689.5 c 128,-1,32
 989 603 989 603 989 525 c 0,33,34
 989 396 989 396 952 293.5 c 128,-1,35
 915 191 915 191 850.5 126.5 c 128,-1,36
 786 62 786 62 702.5 28.5 c 128,-1,37
 619 -5 619 -5 523 -5 c 0,38,39
 346 -5 346 -5 223 118 c 128,-1,40
 100 241 100 241 100 427 c 0,41,42
 100 556 100 556 159.5 665 c 128,-1,43
 219 774 219 774 326.5 839 c 128,-1,44
 434 904 434 904 565 904 c 0,45,46
 585 904 585 904 600 889 c 128,-1,47
 615 874 615 874 615 854 c 128,-1,48
 615 834 615 834 600 819 c 128,-1,49
 585 804 585 804 565 804 c 0,50,51
 408 804 408 804 304 694.5 c 128,-1,52
 200 585 200 585 200 427 c 0,53,54
 200 282 200 282 293 188.5 c 128,-1,55
 386 95 386 95 523 95 c 0,56,57
 600 95 600 95 664.5 120 c 128,-1,58
 729 145 729 145 780 195 c 128,-1,59
 831 245 831 245 860 329.5 c 128,-1,60
 889 414 889 414 889 525 c 0,61,62
 889 596 889 596 872 675 c 128,-1,63
 855 754 855 754 819 843 c 128,-1,64
 783 932 783 932 715.5 1023.5 c 128,-1,65
 648 1115 648 1115 557 1190 c 1,66,67
 334 1043 334 1043 265 966 c 0,68,69
 252 950 252 950 228 950 c 0,0,1
EndSplineSet
EndChar

StartChar: oslash
Encoding: 186 248 186
Width: 1083
GlyphClass: 2
Flags: W
LayerCount: 2
Fore
SplineSet
176 18 m 0,0,1
 162 -4 162 -4 137 -4 c 0,2,3
 116 -4 116 -4 100 10.5 c 128,-1,4
 84 25 84 25 84 45 c 0,5,6
 84 60 84 60 92 72 c 0,7,8
 260 332 260 332 456.5 558 c 128,-1,9
 653 784 653 784 888 1007 c 0,10,11
 902 1021 902 1021 920 1021 c 0,12,13
 940 1021 940 1021 956 1004.5 c 128,-1,14
 972 988 972 988 972 968 c 0,15,16
 972 949 972 949 957 935 c 0,17,18
 723 712 723 712 531.5 492 c 128,-1,19
 340 272 340 272 176 18 c 0,0,1
567 921 m 0,20,21
 399 921 399 921 304.5 798.5 c 128,-1,22
 210 676 210 676 210 486 c 0,23,24
 210 309 210 309 293 202 c 128,-1,25
 376 95 376 95 520 95 c 0,26,27
 679 95 679 95 789 226 c 128,-1,28
 899 357 899 357 899 538 c 0,29,30
 899 703 899 703 810 812 c 128,-1,31
 721 921 721 921 567 921 c 0,20,21
567 1021 m 0,32,33
 701 1021 701 1021 801.5 951 c 128,-1,34
 902 881 902 881 950.5 773 c 128,-1,35
 999 665 999 665 999 538 c 0,36,37
 999 434 999 434 963.5 336 c 128,-1,38
 928 238 928 238 866.5 162.5 c 128,-1,39
 805 87 805 87 714.5 41 c 128,-1,40
 624 -5 624 -5 520 -5 c 0,41,42
 392 -5 392 -5 297 63.5 c 128,-1,43
 202 132 202 132 156 242 c 128,-1,44
 110 352 110 352 110 486 c 0,45,46
 110 591 110 591 139.5 686 c 128,-1,47
 169 781 169 781 224.5 856.5 c 128,-1,48
 280 932 280 932 368.5 976.5 c 128,-1,49
 457 1021 457 1021 567 1021 c 0,32,33
EndSplineSet
EndChar

StartChar: thorn
Encoding: 192 254 192
Width: 1069
GlyphClass: 2
Flags: W
LayerCount: 2
Fore
SplineSet
100 1362 m 2,0,1
 100 1385 100 1385 115 1397 c 128,-1,2
 130 1409 130 1409 150 1409 c 0,3,4
 171 1409 171 1409 186 1396 c 128,-1,5
 201 1383 201 1383 200 1360 c 2,6,-1
 166 -366 l 2,7,8
 166 -389 166 -389 151 -401 c 128,-1,9
 136 -413 136 -413 116 -413 c 0,10,11
 95 -413 95 -413 80 -400 c 128,-1,12
 65 -387 65 -387 66 -364 c 2,13,-1
 100 1362 l 2,0,1
567 921 m 0,14,15
 399 921 399 921 304.5 798.5 c 128,-1,16
 210 676 210 676 210 486 c 0,17,18
 210 309 210 309 293 202 c 128,-1,19
 376 95 376 95 520 95 c 0,20,21
 679 95 679 95 789 226 c 128,-1,22
 899 357 899 357 899 538 c 0,23,24
 899 703 899 703 810 812 c 128,-1,25
 721 921 721 921 567 921 c 0,14,15
567 1021 m 0,26,27
 701 1021 701 1021 801.5 951 c 128,-1,28
 902 881 902 881 950.5 773 c 128,-1,29
 999 665 999 665 999 538 c 0,30,31
 999 434 999 434 963.5 336 c 128,-1,32
 928 238 928 238 866.5 162.5 c 128,-1,33
 805 87 805 87 714.5 41 c 128,-1,34
 624 -5 624 -5 520 -5 c 0,35,36
 392 -5 392 -5 297 63.5 c 128,-1,37
 202 132 202 132 156 242 c 128,-1,38
 110 352 110 352 110 486 c 0,39,40
 110 591 110 591 139.5 686 c 128,-1,41
 169 781 169 781 224.5 856.5 c 128,-1,42
 280 932 280 932 368.5 976.5 c 128,-1,43
 457 1021 457 1021 567 1021 c 0,26,27
EndSplineSet
EndChar

StartChar: dotlessi
Encoding: 194 305 194
Width: 390
GlyphClass: 2
Flags: W
LayerCount: 2
Fore
SplineSet
161 973 m 0,0,1
 162 995 162 995 176.5 1007 c 128,-1,2
 191 1019 191 1019 211 1019 c 128,-1,3
 231 1019 231 1019 246 1007 c 128,-1,4
 261 995 261 995 261 972 c 0,5,6
 261 852 261 852 253.5 477 c 128,-1,7
 246 102 246 102 246 0 c 0,8,9
 246 -23 246 -23 231 -35.5 c 128,-1,10
 216 -48 216 -48 196 -48 c 128,-1,11
 176 -48 176 -48 161 -35.5 c 128,-1,12
 146 -23 146 -23 146 0 c 0,13,14
 146 650 146 650 161 973 c 0,0,1
EndSplineSet
EndChar

StartChar: OE
Encoding: 195 338 195
Width: 2275
GlyphClass: 2
Flags: W
LayerCount: 2
Fore
SplineSet
1037 1151 m 0,0,1
 1037 1131 1037 1131 1022.5 1116 c 128,-1,2
 1008 1101 1008 1101 987 1101 c 0,3,4
 961 1101 961 1101 947 1121 c 0,5,6
 840 1266 840 1266 673 1266 c 0,7,8
 537 1266 537 1266 424 1179.5 c 128,-1,9
 311 1093 311 1093 247.5 950.5 c 128,-1,10
 184 808 184 808 184 643 c 0,11,12
 184 398 184 398 323.5 246.5 c 128,-1,13
 463 95 463 95 670 95 c 0,14,15
 795 95 795 95 889 137.5 c 128,-1,16
 983 180 983 180 1044.5 263 c 128,-1,17
 1106 346 1106 346 1142.5 456 c 128,-1,18
 1179 566 1179 566 1196 714 c 1,19,20
 1188 737 1188 737 1201 759 c 1,21,22
 1214 896 1214 896 1214 1065 c 0,23,24
 1214 1108 1214 1108 1210.5 1197 c 128,-1,25
 1207 1286 1207 1286 1207 1330 c 0,26,27
 1207 1351 1207 1351 1223.5 1365 c 128,-1,28
 1240 1379 1240 1379 1259 1379 c 2,29,-1
 1264 1379 l 1,30,31
 1691 1322 1691 1322 1863 1322 c 0,32,33
 2003 1322 2003 1322 2111 1347 c 0,34,35
 2115 1348 2115 1348 2123 1348 c 0,36,37
 2144 1348 2144 1348 2157.5 1332.5 c 128,-1,38
 2171 1317 2171 1317 2171 1296 c 0,39,40
 2171 1258 2171 1258 2133 1249 c 0,41,42
 2014 1222 2014 1222 1863 1222 c 0,43,44
 1680 1222 1680 1222 1309 1272 c 1,45,46
 1314 1160 1314 1160 1314 1065 c 0,47,48
 1314 898 1314 898 1302 774 c 1,49,50
 1474 754 1474 754 1675 754 c 0,51,52
 1844 754 1844 754 1970 771 c 1,53,-1
 1977 771 l 2,54,55
 1999 771 1999 771 2012 755.5 c 128,-1,56
 2025 740 2025 740 2025 719 c 0,57,58
 2025 677 2025 677 1983 671 c 0,59,60
 1848 654 1848 654 1675 654 c 0,61,62
 1474 654 1474 654 1291 676 c 1,63,64
 1274 554 1274 554 1245 455 c 128,-1,65
 1216 356 1216 356 1166 268.5 c 128,-1,66
 1116 181 1116 181 1048.5 122 c 128,-1,67
 981 63 981 63 885 29 c 128,-1,68
 789 -5 789 -5 670 -5 c 0,69,70
 506 -5 506 -5 372.5 77 c 128,-1,71
 239 159 239 159 161.5 308 c 128,-1,72
 84 457 84 457 84 643 c 0,73,74
 84 780 84 780 126.5 909.5 c 128,-1,75
 169 1039 169 1039 244 1140.5 c 128,-1,76
 319 1242 319 1242 431 1304 c 128,-1,77
 543 1366 543 1366 673 1366 c 0,78,79
 785 1366 785 1366 875.5 1315.5 c 128,-1,80
 966 1265 966 1265 1027 1181 c 0,81,82
 1037 1168 1037 1168 1037 1151 c 0,0,1
1282 57 m 0,83,84
 1244 66 1244 66 1244 104 c 0,85,86
 1244 125 1244 125 1257 140.5 c 128,-1,87
 1270 156 1270 156 1292 156 c 0,88,89
 1300 156 1300 156 1304 155 c 0,90,91
 1559 98 1559 98 1823 98 c 0,92,93
 1989 98 1989 98 2134 120 c 0,94,95
 2136 120 2136 120 2138 120.5 c 128,-1,96
 2140 121 2140 121 2142 121 c 0,97,98
 2163 121 2163 121 2176.5 105.5 c 128,-1,99
 2190 90 2190 90 2190 70 c 0,100,101
 2190 52 2190 52 2179.5 38.5 c 128,-1,102
 2169 25 2169 25 2148 22 c 0,103,104
 1982 -2 1982 -2 1823 -2 c 0,105,106
 1545 -2 1545 -2 1282 57 c 0,83,84
EndSplineSet
EndChar

StartChar: uni060C
Encoding: 197 1548 197
Width: 633
GlyphClass: 2
Flags: W
LayerCount: 2
Fore
SplineSet
212 342 m 1,0,1
 251 392 251 392 321 392 c 0,2,3
 396 392 396 392 441.5 331.5 c 128,-1,4
 487 271 487 271 487 196 c 0,5,6
 487 124 487 124 447.5 67 c 128,-1,7
 408 10 408 10 333 10 c 0,8,9
 242 10 242 10 187 73.5 c 128,-1,10
 132 137 132 137 132 241 c 0,11,12
 132 284 132 284 138 326 c 0,13,14
 168 523 168 523 299 659 c 0,15,16
 309 670 309 670 323 670 c 128,-1,17
 337 670 337 670 348 659 c 128,-1,18
 359 648 359 648 359 634 c 0,19,20
 359 621 359 621 349 611 c 0,21,22
 243 500 243 500 212 342 c 1,0,1
204 290 m 1,23,24
 202 274 202 274 202 241 c 0,25,26
 202 80 202 80 333 80 c 0,27,28
 372 80 372 80 394.5 112 c 128,-1,29
 417 144 417 144 417 196 c 128,-1,30
 417 248 417 248 389 285 c 128,-1,31
 361 322 361 322 321 322 c 0,32,33
 305 322 305 322 287 313.5 c 128,-1,34
 269 305 269 305 264 295 c 0,35,36
 255 276 255 276 233 276 c 0,37,38
 215 276 215 276 204 290 c 1,23,24
EndSplineSet
EndChar

StartChar: uni0615
Encoding: 198 1557 198
Width: 0
GlyphClass: 4
Flags: W
AnchorPoint: "Anchor-4" 247 1347 basemark 0
AnchorPoint: "Anchor-4" 256 768 mark 0
AnchorPoint: "Anchor-2" 256 768 mark 0
AnchorPoint: "Anchor-1" 256 768 mark 0
LayerCount: 2
Fore
SplineSet
198 1194 m 1,0,1
 238 1192 238 1192 258 1192 c 0,2,3
 353 1192 353 1192 416.5 1221.5 c 128,-1,4
 480 1251 480 1251 480 1309 c 0,5,6
 480 1342 480 1342 455.5 1364.5 c 128,-1,7
 431 1387 431 1387 393 1387 c 0,8,9
 329 1387 329 1387 279 1333 c 128,-1,10
 229 1279 229 1279 198 1194 c 1,0,1
116 1713 m 1,11,-1
 116 1719 l 2,12,13
 116 1734 116 1734 127.5 1743.5 c 128,-1,14
 139 1753 139 1753 153 1753 c 0,15,16
 182 1753 182 1753 186 1725 c 0,17,18
 209 1584 209 1584 209 1441 c 0,19,20
 209 1413 209 1413 207 1357 c 1,21,22
 286 1457 286 1457 393 1457 c 0,23,24
 457 1457 457 1457 503.5 1415 c 128,-1,25
 550 1373 550 1373 550 1309 c 0,26,27
 550 1254 550 1254 521 1215 c 128,-1,28
 492 1176 492 1176 445 1157 c 128,-1,29
 398 1138 398 1138 352 1130 c 128,-1,30
 306 1122 306 1122 258 1122 c 0,31,32
 128 1122 128 1122 -1 1157 c 0,33,34
 -26 1164 -26 1164 -26 1190 c 0,35,36
 -26 1204 -26 1204 -16.5 1215 c 128,-1,37
 -7 1226 -7 1226 7 1226 c 0,38,39
 13 1226 13 1226 17 1225 c 0,40,41
 87 1207 87 1207 122 1202 c 1,42,43
 139 1329 139 1329 139 1441 c 0,44,45
 139 1578 139 1578 116 1713 c 1,11,-1
EndSplineSet
EndChar

StartChar: uni061F
Encoding: 200 1567 200
Width: 900
GlyphClass: 2
Flags: W
LayerCount: 2
Fore
SplineSet
381 89 m 128,-1,1
 381 128 381 128 408 156 c 128,-1,2
 435 184 435 184 475 184 c 0,3,4
 514 184 514 184 542 156 c 128,-1,5
 570 128 570 128 570 89 c 0,6,7
 570 49 570 49 542 22 c 128,-1,8
 514 -5 514 -5 475 -5 c 128,-1,9
 436 -5 436 -5 408.5 22.5 c 128,-1,0
 381 50 381 50 381 89 c 128,-1,1
709 939 m 0,10,11
 709 954 709 954 713 981 c 128,-1,12
 717 1008 717 1008 717 1020 c 0,13,14
 717 1133 717 1133 645.5 1199.5 c 128,-1,15
 574 1266 574 1266 473 1266 c 0,16,17
 418 1266 418 1266 367.5 1246.5 c 128,-1,18
 317 1227 317 1227 275.5 1190.5 c 128,-1,19
 234 1154 234 1154 209 1092.5 c 128,-1,20
 184 1031 184 1031 184 955 c 0,21,22
 184 872 184 872 224.5 813.5 c 128,-1,23
 265 755 265 755 347 686 c 0,24,25
 389 650 389 650 416.5 623 c 128,-1,26
 444 596 444 596 475 555.5 c 128,-1,27
 506 515 506 515 521.5 467.5 c 128,-1,28
 537 420 537 420 537 366 c 0,29,30
 537 343 537 343 522 330.5 c 128,-1,31
 507 318 507 318 487 318 c 128,-1,32
 467 318 467 318 452 330.5 c 128,-1,33
 437 343 437 343 437 366 c 0,34,35
 437 436 437 436 399.5 490 c 128,-1,36
 362 544 362 544 283 610 c 0,37,38
 240 646 240 646 211.5 674.5 c 128,-1,39
 183 703 183 703 150 746.5 c 128,-1,40
 117 790 117 790 100.5 842.5 c 128,-1,41
 84 895 84 895 84 955 c 0,42,43
 84 1052 84 1052 118 1132.5 c 128,-1,44
 152 1213 152 1213 207.5 1262.5 c 128,-1,45
 263 1312 263 1312 331.5 1339 c 128,-1,46
 400 1366 400 1366 473 1366 c 0,47,48
 612 1366 612 1366 714.5 1270 c 128,-1,49
 817 1174 817 1174 817 1020 c 0,50,51
 817 985 817 985 808 931 c 0,52,53
 804 912 804 912 791 901.5 c 128,-1,54
 778 891 778 891 761 891 c 0,55,56
 740 891 740 891 724.5 904.5 c 128,-1,57
 709 918 709 918 709 939 c 0,10,11
EndSplineSet
EndChar

StartChar: uni0621
Encoding: 201 1569 201
Width: 857
GlyphClass: 2
Flags: W
AnchorPoint: "Anchor-2" 428 736 basechar 0
AnchorPoint: "Anchor-0" 428 175 basechar 0
LayerCount: 2
Fore
SplineSet
655 679 m 0,0,1
 655 659 655 659 640.5 644 c 128,-1,2
 626 629 626 629 605 629 c 0,3,4
 577 629 577 629 563 651 c 0,5,6
 538 689 538 689 506.5 707.5 c 128,-1,7
 475 726 475 726 423 726 c 0,8,9
 328 726 328 726 260 641 c 128,-1,10
 192 556 192 556 192 451 c 0,11,12
 192 366 192 366 242.5 312 c 128,-1,13
 293 258 293 258 404 258 c 0,14,15
 458 258 458 258 574 269 c 128,-1,16
 690 280 690 280 743 280 c 0,17,18
 766 280 766 280 778.5 265.5 c 128,-1,19
 791 251 791 251 791 231 c 0,20,21
 791 213 791 213 781 199 c 128,-1,22
 771 185 771 185 752 181 c 0,23,24
 397 113 397 113 149 -56 c 0,25,26
 138 -64 138 -64 122 -64 c 0,27,28
 102 -64 102 -64 87 -50.5 c 128,-1,29
 72 -37 72 -37 72 -16 c 0,30,31
 72 12 72 12 93 26 c 0,32,33
 211 106 211 106 341 162 c 1,34,35
 220 180 220 180 156 262 c 128,-1,36
 92 344 92 344 92 451 c 0,37,38
 92 540 92 540 131 624.5 c 128,-1,39
 170 709 170 709 248 767.5 c 128,-1,40
 326 826 326 826 423 826 c 0,41,42
 567 826 567 826 647 707 c 0,43,44
 655 695 655 695 655 679 c 0,0,1
EndSplineSet
EndChar

StartChar: uni0622
Encoding: 202 1570 202
Width: 460
GlyphClass: 3
Flags: W
AnchorPoint: "Anchor-2" 339 1953 basechar 0
AnchorPoint: "Anchor-0" 202 0 basechar 0
LayerCount: 2
Fore
SplineSet
-91 1743 m 0,0,1
 -91 1734 -91 1734 -89 1718.5 c 128,-1,2
 -87 1703 -87 1703 -87 1695 c 0,3,4
 -87 1674 -87 1674 -102.5 1661 c 128,-1,5
 -118 1648 -118 1648 -139 1648 c 0,6,7
 -170 1648 -170 1648 -180.5 1673 c 128,-1,8
 -191 1698 -191 1698 -191 1743 c 0,9,10
 -191 1886 -191 1886 -98 1977.5 c 128,-1,11
 -5 2069 -5 2069 130 2069 c 0,12,13
 268 2069 268 2069 410 1979 c 0,14,15
 530 1905 530 1905 628 1905 c 0,16,17
 681 1905 681 1905 718.5 1939.5 c 128,-1,18
 756 1974 756 1974 761 2034 c 0,19,20
 763 2055 763 2055 777 2066.5 c 128,-1,21
 791 2078 791 2078 810 2078 c 0,22,23
 830 2078 830 2078 845 2065 c 128,-1,24
 860 2052 860 2052 860 2031 c 2,25,-1
 860 2026 l 1,26,27
 851 1929 851 1929 785 1867 c 128,-1,28
 719 1805 719 1805 628 1805 c 0,29,30
 502 1805 502 1805 357 1894 c 0,31,32
 299 1931 299 1931 246.5 1950 c 128,-1,33
 194 1969 194 1969 130 1969 c 0,34,35
 35 1969 35 1969 -28 1907 c 128,-1,36
 -91 1845 -91 1845 -91 1743 c 0,0,1
228 1309 m 1,37,-1
 228 1316 l 2,38,39
 228 1338 228 1338 243.5 1351.5 c 128,-1,40
 259 1365 259 1365 280 1365 c 0,41,42
 298 1365 298 1365 311.5 1354.5 c 128,-1,43
 325 1344 325 1344 328 1323 c 0,44,45
 373 981 373 981 373 531 c 0,46,47
 373 248 373 248 352 -3 c 0,48,49
 351 -24 351 -24 336.5 -35.5 c 128,-1,50
 322 -47 322 -47 303 -47 c 0,51,52
 283 -47 283 -47 267.5 -34.5 c 128,-1,53
 252 -22 252 -22 252 0 c 0,54,55
 252 82 252 82 262.5 265 c 128,-1,56
 273 448 273 448 273 531 c 0,57,58
 273 976 273 976 228 1309 c 1,37,-1
EndSplineSet
PairPos2: "'kern' Horizontal Kerning in Arabic lookup 2 per glyph data 1" uni06A0 dx=-200 dy=0 dh=-200 dv=0 dx=0 dy=0 dh=0 dv=0
Ligature2: "'liga' Standard Ligatures in Arabic lookup 11 subtable" uni0627 uni0653
Substitution2: "'fina' Terminal Forms in Arabic lookup 4 subtable" uniFE82
Substitution2: "Single Substitution lookup 1 subtable" uniE00A
PairPos2: "'kern' Horizontal Kerning in Arabic lookup 2 per glyph data 1" uni063A dx=-200 dy=0 dh=-200 dv=0 dx=0 dy=0 dh=0 dv=0
PairPos2: "'kern' Horizontal Kerning in Arabic lookup 2 per glyph data 1" uni0639 dx=-200 dy=0 dh=-200 dv=0 dx=0 dy=0 dh=0 dv=0
PairPos2: "'kern' Horizontal Kerning in Arabic lookup 2 per glyph data 0" uni063A dx=-267 dy=0 dh=-267 dv=0 dx=0 dy=0 dh=0 dv=0
PairPos2: "'kern' Horizontal Kerning in Arabic lookup 2 per glyph data 0" uni0639 dx=-267 dy=0 dh=-267 dv=0 dx=0 dy=0 dh=0 dv=0
EndChar

StartChar: uni0627
Encoding: 207 1575 207
Width: 445
GlyphClass: 2
Flags: W
AnchorPoint: "Anchor-2" 269 1459 basechar 0
AnchorPoint: "Anchor-0" 144 0 basechar 0
LayerCount: 2
Fore
SplineSet
150 1309 m 1,0,-1
 150 1316 l 2,1,2
 150 1338 150 1338 165.5 1351.5 c 128,-1,3
 181 1365 181 1365 202 1365 c 0,4,5
 220 1365 220 1365 233.5 1354.5 c 128,-1,6
 247 1344 247 1344 250 1323 c 0,7,8
 295 981 295 981 295 531 c 0,9,10
 295 248 295 248 274 -3 c 0,11,12
 273 -24 273 -24 258.5 -35.5 c 128,-1,13
 244 -47 244 -47 225 -47 c 0,14,15
 205 -47 205 -47 189.5 -34.5 c 128,-1,16
 174 -22 174 -22 174 0 c 0,17,18
 174 82 174 82 184.5 265 c 128,-1,19
 195 448 195 448 195 531 c 0,20,21
 195 976 195 976 150 1309 c 1,0,-1
EndSplineSet
PairPos2: "'kern' Horizontal Kerning in Arabic lookup 2 per glyph data 1" uni06A0 dx=-200 dy=0 dh=-200 dv=0 dx=0 dy=0 dh=0 dv=0
Substitution2: "'fina' Terminal Forms in Arabic lookup 4 subtable" uniFE8E
PairPos2: "'kern' Horizontal Kerning in Arabic lookup 2 per glyph data 1" uni063A dx=-200 dy=0 dh=-200 dv=0 dx=0 dy=0 dh=0 dv=0
PairPos2: "'kern' Horizontal Kerning in Arabic lookup 2 per glyph data 1" uni0639 dx=-200 dy=0 dh=-200 dv=0 dx=0 dy=0 dh=0 dv=0
PairPos2: "'kern' Horizontal Kerning in Arabic lookup 2 per glyph data 0" uni063A dx=-267 dy=0 dh=-267 dv=0 dx=0 dy=0 dh=0 dv=0
PairPos2: "'kern' Horizontal Kerning in Arabic lookup 2 per glyph data 0" uni0639 dx=-267 dy=0 dh=-267 dv=0 dx=0 dy=0 dh=0 dv=0
EndChar

StartChar: uni062D
Encoding: 213 1581 213
Width: 1232
GlyphClass: 2
Flags: W
AnchorPoint: "Anchor-2" 434 811 basechar 0
AnchorPoint: "Anchor-0" 699 -744 basechar 0
LayerCount: 2
Fore
SplineSet
1055 -482 m 0,0,1
 1067 -476 1067 -476 1078 -476 c 0,2,3
 1098 -476 1098 -476 1112.5 -492.5 c 128,-1,4
 1127 -509 1127 -509 1127 -529 c 0,5,6
 1127 -556 1127 -556 1101 -570 c 0,7,8
 907 -673 907 -673 683 -673 c 0,9,10
 599 -673 599 -673 517.5 -657.5 c 128,-1,11
 436 -642 436 -642 360 -607 c 128,-1,12
 284 -572 284 -572 226.5 -521.5 c 128,-1,13
 169 -471 169 -471 134.5 -396 c 128,-1,14
 100 -321 100 -321 100 -231 c 0,15,16
 100 -140 100 -140 131.5 -55.5 c 128,-1,17
 163 29 163 29 213 95 c 128,-1,18
 263 161 263 161 334.5 221.5 c 128,-1,19
 406 282 406 282 478 326 c 128,-1,20
 550 370 550 370 632.5 409 c 128,-1,21
 715 448 715 448 780 472 c 128,-1,22
 845 496 845 496 910 516 c 1,23,24
 867 536 867 536 783.5 579.5 c 128,-1,25
 700 623 700 623 649.5 647.5 c 128,-1,26
 599 672 599 672 534.5 693.5 c 128,-1,27
 470 715 470 715 423 715 c 0,28,29
 356 715 356 715 305.5 674 c 128,-1,30
 255 633 255 633 218 527 c 0,31,32
 207 494 207 494 173 494 c 0,33,34
 153 494 153 494 137 507.5 c 128,-1,35
 121 521 121 521 121 542 c 0,36,37
 121 550 121 550 124 559 c 0,38,39
 169 689 169 689 246.5 752 c 128,-1,40
 324 815 324 815 423 815 c 0,41,42
 489 815 489 815 566 791.5 c 128,-1,43
 643 768 643 768 714.5 732.5 c 128,-1,44
 786 697 786 697 853 660.5 c 128,-1,45
 920 624 920 624 984.5 594 c 128,-1,46
 1049 564 1049 564 1092 555 c 0,47,48
 1111 551 1111 551 1121 537.5 c 128,-1,49
 1131 524 1131 524 1131 506 c 0,50,51
 1131 487 1131 487 1120 472.5 c 128,-1,52
 1109 458 1109 458 1088 456 c 0,53,54
 1058 453 1058 453 999.5 437.5 c 128,-1,55
 941 422 941 422 857.5 391.5 c 128,-1,56
 774 361 774 361 686 320.5 c 128,-1,57
 598 280 598 280 510.5 222 c 128,-1,58
 423 164 423 164 354.5 98 c 128,-1,59
 286 32 286 32 243 -54 c 128,-1,60
 200 -140 200 -140 200 -231 c 0,61,62
 200 -340 200 -340 268 -419 c 128,-1,63
 336 -498 336 -498 443.5 -535.5 c 128,-1,64
 551 -573 551 -573 683 -573 c 0,65,66
 882 -573 882 -573 1055 -482 c 0,0,1
EndSplineSet
Substitution2: "'init' Initial Forms in Arabic lookup 6 subtable" uniFEA3
Substitution2: "'medi' Medial Forms in Arabic lookup 5 subtable" uniFEA4
Substitution2: "'fina' Terminal Forms in Arabic lookup 4 subtable" uniFEA2
EndChar

StartChar: uni062F
Encoding: 215 1583 215
Width: 880
GlyphClass: 2
Flags: W
AnchorPoint: "Anchor-2" 483 1006 basechar 0
AnchorPoint: "Anchor-0" 367 0 basechar 0
LayerCount: 2
Fore
SplineSet
345 741 m 0,0,1
 316 754 316 754 316 784 c 0,2,3
 316 804 316 804 330 821 c 128,-1,4
 344 838 344 838 364 838 c 0,5,6
 373 838 373 838 385 833 c 0,7,8
 450 805 450 805 517.5 752.5 c 128,-1,9
 585 700 585 700 644.5 631.5 c 128,-1,10
 704 563 704 563 742 474.5 c 128,-1,11
 780 386 780 386 780 299 c 0,12,13
 780 202 780 202 724.5 131.5 c 128,-1,14
 669 61 669 61 581.5 28 c 128,-1,15
 494 -5 494 -5 387 -5 c 0,16,17
 260 -5 260 -5 134 38 c 0,18,19
 101 49 101 49 101 83 c 0,20,21
 101 103 101 103 114.5 119 c 128,-1,22
 128 135 128 135 149 135 c 0,23,24
 157 135 157 135 166 132 c 0,25,26
 277 95 277 95 387 95 c 0,27,28
 524 95 524 95 602 150.5 c 128,-1,29
 680 206 680 206 680 299 c 0,30,31
 680 385 680 385 625 479 c 128,-1,32
 570 573 570 573 494 641 c 128,-1,33
 418 709 418 709 345 741 c 0,0,1
EndSplineSet
PairPos2: "'kern' Horizontal Kerning in Arabic lookup 2 per glyph data 1" uni06A0 dx=-334 dy=0 dh=-334 dv=0 dx=0 dy=0 dh=0 dv=0
Substitution2: "'fina' Terminal Forms in Arabic lookup 4 subtable" uniFEAA
PairPos2: "'kern' Horizontal Kerning in Arabic lookup 2 per glyph data 3" uniFEDB dx=-267 dy=0 dh=-267 dv=0 dx=0 dy=0 dh=0 dv=0
PairPos2: "'kern' Horizontal Kerning in Arabic lookup 2 per glyph data 3" uniFB94 dx=-267 dy=0 dh=-267 dv=0 dx=0 dy=0 dh=0 dv=0
PairPos2: "'kern' Horizontal Kerning in Arabic lookup 2 per glyph data 3" uniFB90 dx=-267 dy=0 dh=-267 dv=0 dx=0 dy=0 dh=0 dv=0
PairPos2: "'kern' Horizontal Kerning in Arabic lookup 2 per glyph data 3" uni06AF dx=-267 dy=0 dh=-267 dv=0 dx=0 dy=0 dh=0 dv=0
PairPos2: "'kern' Horizontal Kerning in Arabic lookup 2 per glyph data 3" uni06A9 dx=-267 dy=0 dh=-267 dv=0 dx=0 dy=0 dh=0 dv=0
PairPos2: "'kern' Horizontal Kerning in Arabic lookup 2 per glyph data 1" uni063A dx=-334 dy=0 dh=-334 dv=0 dx=0 dy=0 dh=0 dv=0
PairPos2: "'kern' Horizontal Kerning in Arabic lookup 2 per glyph data 1" uni0639 dx=-334 dy=0 dh=-334 dv=0 dx=0 dy=0 dh=0 dv=0
EndChar

StartChar: uni0631
Encoding: 217 1585 217
Width: 885
GlyphClass: 2
Flags: W
AnchorPoint: "Anchor-2" 648 624 basechar 0
AnchorPoint: "Anchor-0" 505 -394 basechar 0
LayerCount: 2
Fore
SplineSet
207 -507 m 0,0,1
 206 -507 206 -507 203 -507.5 c 128,-1,2
 200 -508 200 -508 199 -508 c 0,3,4
 178 -508 178 -508 164.5 -492.5 c 128,-1,5
 151 -477 151 -477 151 -456 c 0,6,7
 151 -438 151 -438 162 -424 c 128,-1,8
 173 -410 173 -410 193 -407 c 0,9,10
 438 -373 438 -373 561.5 -232.5 c 128,-1,11
 685 -92 685 -92 685 181 c 0,12,13
 685 366 685 366 627 508 c 0,14,15
 623 517 623 517 623 528 c 0,16,17
 623 548 623 548 639.5 562 c 128,-1,18
 656 576 656 576 676 576 c 0,19,20
 706 576 706 576 719 546 c 0,21,22
 785 386 785 386 785 181 c 0,23,24
 785 -125 785 -125 634.5 -297 c 128,-1,25
 484 -469 484 -469 207 -507 c 0,0,1
EndSplineSet
PairPos2: "'kern' Horizontal Kerning in Arabic lookup 2 per glyph data 1" uni06A0 dx=-134 dy=0 dh=-134 dv=0 dx=0 dy=0 dh=0 dv=0
Substitution2: "'fina' Terminal Forms in Arabic lookup 4 subtable" uniFEAE
PairPos2: "'kern' Horizontal Kerning in Arabic lookup 2 per glyph data 3" uniFEDB dx=-267 dy=0 dh=-267 dv=0 dx=0 dy=0 dh=0 dv=0
PairPos2: "'kern' Horizontal Kerning in Arabic lookup 2 per glyph data 3" uniFB94 dx=-267 dy=0 dh=-267 dv=0 dx=0 dy=0 dh=0 dv=0
PairPos2: "'kern' Horizontal Kerning in Arabic lookup 2 per glyph data 3" uniFB90 dx=-267 dy=0 dh=-267 dv=0 dx=0 dy=0 dh=0 dv=0
PairPos2: "'kern' Horizontal Kerning in Arabic lookup 2 per glyph data 3" uni06AF dx=-267 dy=0 dh=-267 dv=0 dx=0 dy=0 dh=0 dv=0
PairPos2: "'kern' Horizontal Kerning in Arabic lookup 2 per glyph data 3" uni06A9 dx=-267 dy=0 dh=-267 dv=0 dx=0 dy=0 dh=0 dv=0
PairPos2: "'kern' Horizontal Kerning in Arabic lookup 2 per glyph data 2" uniFEFB dx=-334 dy=0 dh=-334 dv=0 dx=0 dy=0 dh=0 dv=0
PairPos2: "'kern' Horizontal Kerning in Arabic lookup 2 per glyph data 2" uniFEF9 dx=-334 dy=0 dh=-334 dv=0 dx=0 dy=0 dh=0 dv=0
PairPos2: "'kern' Horizontal Kerning in Arabic lookup 2 per glyph data 2" uniFEF7 dx=-334 dy=0 dh=-334 dv=0 dx=0 dy=0 dh=0 dv=0
PairPos2: "'kern' Horizontal Kerning in Arabic lookup 2 per glyph data 2" uniFEF5 dx=-334 dy=0 dh=-334 dv=0 dx=0 dy=0 dh=0 dv=0
PairPos2: "'kern' Horizontal Kerning in Arabic lookup 2 per glyph data 2" uniFEF3 dx=-134 dy=0 dh=-134 dv=0 dx=0 dy=0 dh=0 dv=0
PairPos2: "'kern' Horizontal Kerning in Arabic lookup 2 per glyph data 2" uniFEEB dx=-334 dy=0 dh=-334 dv=0 dx=0 dy=0 dh=0 dv=0
PairPos2: "'kern' Horizontal Kerning in Arabic lookup 2 per glyph data 2" uniFEE7 dx=-334 dy=0 dh=-334 dv=0 dx=0 dy=0 dh=0 dv=0
PairPos2: "'kern' Horizontal Kerning in Arabic lookup 2 per glyph data 2" uniFEE3 dx=-334 dy=0 dh=-334 dv=0 dx=0 dy=0 dh=0 dv=0
PairPos2: "'kern' Horizontal Kerning in Arabic lookup 2 per glyph data 2" uniFEDF dx=-334 dy=0 dh=-334 dv=0 dx=0 dy=0 dh=0 dv=0
PairPos2: "'kern' Horizontal Kerning in Arabic lookup 2 per glyph data 2" uniFEDB dx=-601 dy=0 dh=-601 dv=0 dx=0 dy=0 dh=0 dv=0
PairPos2: "'kern' Horizontal Kerning in Arabic lookup 2 per glyph data 2" uniFED7 dx=-334 dy=0 dh=-334 dv=0 dx=0 dy=0 dh=0 dv=0
PairPos2: "'kern' Horizontal Kerning in Arabic lookup 2 per glyph data 2" uniFED3 dx=-334 dy=0 dh=-334 dv=0 dx=0 dy=0 dh=0 dv=0
PairPos2: "'kern' Horizontal Kerning in Arabic lookup 2 per glyph data 2" uniFECF dx=-334 dy=0 dh=-334 dv=0 dx=0 dy=0 dh=0 dv=0
PairPos2: "'kern' Horizontal Kerning in Arabic lookup 2 per glyph data 2" uniFECB dx=-334 dy=0 dh=-334 dv=0 dx=0 dy=0 dh=0 dv=0
PairPos2: "'kern' Horizontal Kerning in Arabic lookup 2 per glyph data 2" uniFEC7 dx=-334 dy=0 dh=-334 dv=0 dx=0 dy=0 dh=0 dv=0
PairPos2: "'kern' Horizontal Kerning in Arabic lookup 2 per glyph data 2" uniFEC3 dx=-334 dy=0 dh=-334 dv=0 dx=0 dy=0 dh=0 dv=0
PairPos2: "'kern' Horizontal Kerning in Arabic lookup 2 per glyph data 2" uniFEBF dx=-334 dy=0 dh=-334 dv=0 dx=0 dy=0 dh=0 dv=0
PairPos2: "'kern' Horizontal Kerning in Arabic lookup 2 per glyph data 2" uniFEBB dx=-334 dy=0 dh=-334 dv=0 dx=0 dy=0 dh=0 dv=0
PairPos2: "'kern' Horizontal Kerning in Arabic lookup 2 per glyph data 2" uniFEB7 dx=-334 dy=0 dh=-334 dv=0 dx=0 dy=0 dh=0 dv=0
PairPos2: "'kern' Horizontal Kerning in Arabic lookup 2 per glyph data 2" uniFEB3 dx=-334 dy=0 dh=-334 dv=0 dx=0 dy=0 dh=0 dv=0
PairPos2: "'kern' Horizontal Kerning in Arabic lookup 2 per glyph data 2" uniFEA7 dx=-334 dy=0 dh=-334 dv=0 dx=0 dy=0 dh=0 dv=0
PairPos2: "'kern' Horizontal Kerning in Arabic lookup 2 per glyph data 2" uniFEA3 dx=-334 dy=0 dh=-334 dv=0 dx=0 dy=0 dh=0 dv=0
PairPos2: "'kern' Horizontal Kerning in Arabic lookup 2 per glyph data 2" uniFE9F dx=-334 dy=0 dh=-334 dv=0 dx=0 dy=0 dh=0 dv=0
PairPos2: "'kern' Horizontal Kerning in Arabic lookup 2 per glyph data 2" uniFE9B dx=-334 dy=0 dh=-334 dv=0 dx=0 dy=0 dh=0 dv=0
PairPos2: "'kern' Horizontal Kerning in Arabic lookup 2 per glyph data 2" uniFE97 dx=-334 dy=0 dh=-334 dv=0 dx=0 dy=0 dh=0 dv=0
PairPos2: "'kern' Horizontal Kerning in Arabic lookup 2 per glyph data 2" uniFE91 dx=-334 dy=0 dh=-334 dv=0 dx=0 dy=0 dh=0 dv=0
PairPos2: "'kern' Horizontal Kerning in Arabic lookup 2 per glyph data 2" uniFE8B dx=-334 dy=0 dh=-334 dv=0 dx=0 dy=0 dh=0 dv=0
PairPos2: "'kern' Horizontal Kerning in Arabic lookup 2 per glyph data 2" uniFBFE dx=-134 dy=0 dh=-134 dv=0 dx=0 dy=0 dh=0 dv=0
PairPos2: "'kern' Horizontal Kerning in Arabic lookup 2 per glyph data 2" uniFB94 dx=-601 dy=0 dh=-601 dv=0 dx=0 dy=0 dh=0 dv=0
PairPos2: "'kern' Horizontal Kerning in Arabic lookup 2 per glyph data 2" uniFB90 dx=-601 dy=0 dh=-601 dv=0 dx=0 dy=0 dh=0 dv=0
PairPos2: "'kern' Horizontal Kerning in Arabic lookup 2 per glyph data 2" uniFB7C dx=-334 dy=0 dh=-334 dv=0 dx=0 dy=0 dh=0 dv=0
PairPos2: "'kern' Horizontal Kerning in Arabic lookup 2 per glyph data 2" uniFB58 dx=-134 dy=0 dh=-134 dv=0 dx=0 dy=0 dh=0 dv=0
PairPos2: "'kern' Horizontal Kerning in Arabic lookup 2 per glyph data 2" uni06CA dx=-233 dy=0 dh=-233 dv=0 dx=0 dy=0 dh=0 dv=0
PairPos2: "'kern' Horizontal Kerning in Arabic lookup 2 per glyph data 2" uni06C0 dx=-334 dy=0 dh=-334 dv=0 dx=0 dy=0 dh=0 dv=0
PairPos2: "'kern' Horizontal Kerning in Arabic lookup 2 per glyph data 2" uni06AF dx=-601 dy=0 dh=-601 dv=0 dx=0 dy=0 dh=0 dv=0
PairPos2: "'kern' Horizontal Kerning in Arabic lookup 2 per glyph data 2" uni06A9 dx=-601 dy=0 dh=-601 dv=0 dx=0 dy=0 dh=0 dv=0
PairPos2: "'kern' Horizontal Kerning in Arabic lookup 2 per glyph data 2" uni0698 dx=-233 dy=0 dh=-233 dv=0 dx=0 dy=0 dh=0 dv=0
PairPos2: "'kern' Horizontal Kerning in Arabic lookup 2 per glyph data 2" uni0686 dx=-111 dy=0 dh=-111 dv=0 dx=0 dy=0 dh=0 dv=0
PairPos2: "'kern' Horizontal Kerning in Arabic lookup 2 per glyph data 2" uni067E dx=-334 dy=0 dh=-334 dv=0 dx=0 dy=0 dh=0 dv=0
PairPos2: "'kern' Horizontal Kerning in Arabic lookup 2 per glyph data 2" uni0648 dx=-233 dy=0 dh=-233 dv=0 dx=0 dy=0 dh=0 dv=0
PairPos2: "'kern' Horizontal Kerning in Arabic lookup 2 per glyph data 2" uni0647 dx=-334 dy=0 dh=-334 dv=0 dx=0 dy=0 dh=0 dv=0
PairPos2: "'kern' Horizontal Kerning in Arabic lookup 2 per glyph data 2" uni0646 dx=-134 dy=0 dh=-134 dv=0 dx=0 dy=0 dh=0 dv=0
PairPos2: "'kern' Horizontal Kerning in Arabic lookup 2 per glyph data 2" uni0645 dx=-334 dy=0 dh=-334 dv=0 dx=0 dy=0 dh=0 dv=0
PairPos2: "'kern' Horizontal Kerning in Arabic lookup 2 per glyph data 2" uni0644 dx=-100 dy=0 dh=-100 dv=0 dx=0 dy=0 dh=0 dv=0
PairPos2: "'kern' Horizontal Kerning in Arabic lookup 2 per glyph data 2" uni0643 dx=-334 dy=0 dh=-334 dv=0 dx=0 dy=0 dh=0 dv=0
PairPos2: "'kern' Horizontal Kerning in Arabic lookup 2 per glyph data 2" uni0642 dx=-134 dy=0 dh=-134 dv=0 dx=0 dy=0 dh=0 dv=0
PairPos2: "'kern' Horizontal Kerning in Arabic lookup 2 per glyph data 2" uni0641 dx=-334 dy=0 dh=-334 dv=0 dx=0 dy=0 dh=0 dv=0
PairPos2: "'kern' Horizontal Kerning in Arabic lookup 2 per glyph data 2" uni0638 dx=-334 dy=0 dh=-334 dv=0 dx=0 dy=0 dh=0 dv=0
PairPos2: "'kern' Horizontal Kerning in Arabic lookup 2 per glyph data 2" uni0637 dx=-334 dy=0 dh=-334 dv=0 dx=0 dy=0 dh=0 dv=0
PairPos2: "'kern' Horizontal Kerning in Arabic lookup 2 per glyph data 2" uni0636 dx=-334 dy=0 dh=-334 dv=0 dx=0 dy=0 dh=0 dv=0
PairPos2: "'kern' Horizontal Kerning in Arabic lookup 2 per glyph data 2" uni0635 dx=-334 dy=0 dh=-334 dv=0 dx=0 dy=0 dh=0 dv=0
PairPos2: "'kern' Horizontal Kerning in Arabic lookup 2 per glyph data 2" uni0634 dx=-334 dy=0 dh=-334 dv=0 dx=0 dy=0 dh=0 dv=0
PairPos2: "'kern' Horizontal Kerning in Arabic lookup 2 per glyph data 2" uni0633 dx=-334 dy=0 dh=-334 dv=0 dx=0 dy=0 dh=0 dv=0
PairPos2: "'kern' Horizontal Kerning in Arabic lookup 2 per glyph data 2" uni0632 dx=-233 dy=0 dh=-233 dv=0 dx=0 dy=0 dh=0 dv=0
PairPos2: "'kern' Horizontal Kerning in Arabic lookup 2 per glyph data 2" uni0631 dx=-233 dy=0 dh=-233 dv=0 dx=0 dy=0 dh=0 dv=0
PairPos2: "'kern' Horizontal Kerning in Arabic lookup 2 per glyph data 2" uni0630 dx=-334 dy=0 dh=-334 dv=0 dx=0 dy=0 dh=0 dv=0
PairPos2: "'kern' Horizontal Kerning in Arabic lookup 2 per glyph data 2" uni062F dx=-334 dy=0 dh=-334 dv=0 dx=0 dy=0 dh=0 dv=0
PairPos2: "'kern' Horizontal Kerning in Arabic lookup 2 per glyph data 2" uni062E dx=-111 dy=0 dh=-111 dv=0 dx=0 dy=0 dh=0 dv=0
PairPos2: "'kern' Horizontal Kerning in Arabic lookup 2 per glyph data 2" uni062D dx=-111 dy=0 dh=-111 dv=0 dx=0 dy=0 dh=0 dv=0
PairPos2: "'kern' Horizontal Kerning in Arabic lookup 2 per glyph data 2" uni062C dx=-111 dy=0 dh=-111 dv=0 dx=0 dy=0 dh=0 dv=0
PairPos2: "'kern' Horizontal Kerning in Arabic lookup 2 per glyph data 2" uni062B dx=-334 dy=0 dh=-334 dv=0 dx=0 dy=0 dh=0 dv=0
PairPos2: "'kern' Horizontal Kerning in Arabic lookup 2 per glyph data 2" uni062A dx=-334 dy=0 dh=-334 dv=0 dx=0 dy=0 dh=0 dv=0
PairPos2: "'kern' Horizontal Kerning in Arabic lookup 2 per glyph data 2" uni0629 dx=-334 dy=0 dh=-334 dv=0 dx=0 dy=0 dh=0 dv=0
PairPos2: "'kern' Horizontal Kerning in Arabic lookup 2 per glyph data 2" uni0628 dx=-334 dy=0 dh=-334 dv=0 dx=0 dy=0 dh=0 dv=0
PairPos2: "'kern' Horizontal Kerning in Arabic lookup 2 per glyph data 2" uni0627 dx=-267 dy=0 dh=-267 dv=0 dx=0 dy=0 dh=0 dv=0
PairPos2: "'kern' Horizontal Kerning in Arabic lookup 2 per glyph data 2" uni0624 dx=-233 dy=0 dh=-233 dv=0 dx=0 dy=0 dh=0 dv=0
PairPos2: "'kern' Horizontal Kerning in Arabic lookup 2 per glyph data 2" uni0623 dx=-267 dy=0 dh=-267 dv=0 dx=0 dy=0 dh=0 dv=0
PairPos2: "'kern' Horizontal Kerning in Arabic lookup 2 per glyph data 2" uni0622 dx=-267 dy=0 dh=-267 dv=0 dx=0 dy=0 dh=0 dv=0
PairPos2: "'kern' Horizontal Kerning in Arabic lookup 2 per glyph data 1" uni063A dx=-134 dy=0 dh=-134 dv=0 dx=0 dy=0 dh=0 dv=0
PairPos2: "'kern' Horizontal Kerning in Arabic lookup 2 per glyph data 1" uni0639 dx=-134 dy=0 dh=-134 dv=0 dx=0 dy=0 dh=0 dv=0
EndChar

StartChar: uni0633
Encoding: 219 1587 219
Width: 2426
GlyphClass: 2
Flags: W
AnchorPoint: "Anchor-2" 1751 565 basechar 0
AnchorPoint: "Anchor-0" 720 -526 basechar 0
LayerCount: 2
Fore
SplineSet
1172 443 m 0,0,1
 1172 463 1172 463 1186 478 c 128,-1,2
 1200 493 1200 493 1221 493 c 0,3,4
 1252 493 1252 493 1267 464 c 0,5,6
 1288 419 1288 419 1309 334 c 1,7,8
 1335 257 1335 257 1365 200 c 0,9,10
 1406 118 1406 118 1448.5 86 c 128,-1,11
 1491 54 1491 54 1553 54 c 0,12,13
 1731 54 1731 54 1787 433 c 0,14,15
 1790 453 1790 453 1803.5 463.5 c 128,-1,16
 1817 474 1817 474 1835 474 c 0,17,18
 1855 474 1855 474 1871 461 c 128,-1,19
 1887 448 1887 448 1887 427 c 0,20,21
 1887 426 1887 426 1886.5 423 c 128,-1,22
 1886 420 1886 420 1886 419 c 0,23,24
 1878 363 1878 363 1878 326 c 0,25,26
 1878 194 1878 194 1932.5 124.5 c 128,-1,27
 1987 55 1987 55 2051 55 c 0,28,29
 2127 55 2127 55 2176.5 140.5 c 128,-1,30
 2226 226 2226 226 2226 359 c 0,31,32
 2226 444 2226 444 2206.5 524 c 128,-1,33
 2187 604 2187 604 2154 654 c 0,34,35
 2146 666 2146 666 2146 680 c 0,36,37
 2146 701 2146 701 2162 715.5 c 128,-1,38
 2178 730 2178 730 2199 730 c 0,39,40
 2224 730 2224 730 2238 708 c 0,41,42
 2326 575 2326 575 2326 359 c 0,43,44
 2326 286 2326 286 2310.5 217 c 128,-1,45
 2295 148 2295 148 2263.5 88 c 128,-1,46
 2232 28 2232 28 2177 -8.5 c 128,-1,47
 2122 -45 2122 -45 2051 -45 c 0,48,49
 1974 -45 1974 -45 1909 5.5 c 128,-1,50
 1844 56 1844 56 1810 142 c 1,51,52
 1722 -46 1722 -46 1553 -46 c 0,53,54
 1430 -46 1430 -46 1348 45 c 1,55,56
 1347 -129 1347 -129 1254.5 -263.5 c 128,-1,57
 1162 -398 1162 -398 1013.5 -467.5 c 128,-1,58
 865 -537 865 -537 689 -537 c 0,59,60
 581 -537 581 -537 479 -508 c 128,-1,61
 377 -479 377 -479 291 -423.5 c 128,-1,62
 205 -368 205 -368 152.5 -275.5 c 128,-1,63
 100 -183 100 -183 100 -68 c 0,64,65
 100 10 100 10 123 86.5 c 128,-1,66
 146 163 146 163 183 224.5 c 128,-1,67
 220 286 220 286 268.5 341 c 128,-1,68
 317 396 317 396 366 435.5 c 128,-1,69
 415 475 415 475 464 503 c 0,70,71
 475 510 475 510 488 510 c 0,72,73
 508 510 508 510 523 493.5 c 128,-1,74
 538 477 538 477 538 456 c 0,75,76
 538 430 538 430 513 415 c 0,77,78
 459 385 459 385 406 337 c 128,-1,79
 353 289 353 289 305.5 227.5 c 128,-1,80
 258 166 258 166 229 88 c 128,-1,81
 200 10 200 10 200 -68 c 0,82,83
 200 -183 200 -183 269.5 -268.5 c 128,-1,84
 339 -354 339 -354 448.5 -395.5 c 128,-1,85
 558 -437 558 -437 689 -437 c 0,86,87
 844 -437 844 -437 971 -377.5 c 128,-1,88
 1098 -318 1098 -318 1173 -206 c 128,-1,89
 1248 -94 1248 -94 1248 50 c 0,90,91
 1248 156 1248 156 1213 306 c 1,92,93
 1194 363 1194 363 1174 429 c 0,94,95
 1172 439 1172 439 1172 443 c 0,0,1
EndSplineSet
Substitution2: "'init' Initial Forms in Arabic lookup 6 subtable" uniFEB3
Substitution2: "'medi' Medial Forms in Arabic lookup 5 subtable" uniFEB4
Substitution2: "'fina' Terminal Forms in Arabic lookup 4 subtable" uniFEB2
EndChar

StartChar: uni0635
Encoding: 221 1589 221
Width: 2493
GlyphClass: 2
Flags: W
AnchorPoint: "Anchor-2" 1997 811 basechar 0
AnchorPoint: "Anchor-0" 720 -526 basechar 0
LayerCount: 2
Fore
SplineSet
1179 305 m 0,0,1
 1179 326 1179 326 1193 340.5 c 128,-1,2
 1207 355 1207 355 1228 355 c 0,3,4
 1256 355 1256 355 1269 334 c 0,5,6
 1314 269 1314 269 1358.5 223.5 c 128,-1,7
 1403 178 1403 178 1462.5 141.5 c 128,-1,8
 1522 105 1522 105 1599.5 87 c 128,-1,9
 1677 69 1677 69 1775 69 c 0,10,11
 1865 69 1865 69 1956 90 c 128,-1,12
 2047 111 2047 111 2122.5 149 c 128,-1,13
 2198 187 2198 187 2245.5 245.5 c 128,-1,14
 2293 304 2293 304 2293 372 c 0,15,16
 2293 455 2293 455 2229.5 509.5 c 128,-1,17
 2166 564 2166 564 2071 564 c 0,18,19
 1914 564 1914 564 1779.5 463.5 c 128,-1,20
 1645 363 1645 363 1547 195 c 0,21,22
 1533 171 1533 171 1507 171 c 0,23,24
 1487 171 1487 171 1470.5 185.5 c 128,-1,25
 1454 200 1454 200 1454 220 c 0,26,27
 1454 232 1454 232 1461 245 c 0,28,29
 1512 333 1512 333 1574 406 c 128,-1,30
 1636 479 1636 479 1712 538.5 c 128,-1,31
 1788 598 1788 598 1880 631 c 128,-1,32
 1972 664 1972 664 2071 664 c 0,33,34
 2202 664 2202 664 2297.5 582.5 c 128,-1,35
 2393 501 2393 501 2393 372 c 0,36,37
 2393 301 2393 301 2364 240 c 128,-1,38
 2335 179 2335 179 2285.5 136 c 128,-1,39
 2236 93 2236 93 2173.5 60 c 128,-1,40
 2111 27 2111 27 2040.5 7.5 c 128,-1,41
 1970 -12 1970 -12 1903.5 -21.5 c 128,-1,42
 1837 -31 1837 -31 1775 -31 c 0,43,44
 1513 -31 1513 -31 1345 102 c 1,45,46
 1348 74 1348 74 1348 50 c 0,47,48
 1348 -125 1348 -125 1256 -261 c 128,-1,49
 1164 -397 1164 -397 1015 -467 c 128,-1,50
 866 -537 866 -537 689 -537 c 0,51,52
 581 -537 581 -537 479 -508 c 128,-1,53
 377 -479 377 -479 291 -423.5 c 128,-1,54
 205 -368 205 -368 152.5 -275.5 c 128,-1,55
 100 -183 100 -183 100 -68 c 0,56,57
 100 288 100 288 638 505 c 0,58,59
 647 509 647 509 658 509 c 0,60,61
 679 509 679 509 692.5 493 c 128,-1,62
 706 477 706 477 706 456 c 0,63,64
 706 426 706 426 676 413 c 0,65,66
 607 385 607 385 546.5 354 c 128,-1,67
 486 323 486 323 420 277.5 c 128,-1,68
 354 232 354 232 307.5 182.5 c 128,-1,69
 261 133 261 133 230.5 67.5 c 128,-1,70
 200 2 200 2 200 -68 c 0,71,72
 200 -183 200 -183 269.5 -268.5 c 128,-1,73
 339 -354 339 -354 448.5 -395.5 c 128,-1,74
 558 -437 558 -437 689 -437 c 0,75,76
 805 -437 805 -437 907.5 -402 c 128,-1,77
 1010 -367 1010 -367 1085.5 -304.5 c 128,-1,78
 1161 -242 1161 -242 1204.5 -150 c 128,-1,79
 1248 -58 1248 -58 1248 50 c 0,80,81
 1248 172 1248 172 1185 280 c 0,82,83
 1179 290 1179 290 1179 305 c 0,0,1
EndSplineSet
Substitution2: "'init' Initial Forms in Arabic lookup 6 subtable" uniFEBB
Substitution2: "'medi' Medial Forms in Arabic lookup 5 subtable" uniFEBC
Substitution2: "'fina' Terminal Forms in Arabic lookup 4 subtable" uniFEBA
EndChar

StartChar: uni0637
Encoding: 223 1591 223
Width: 1491
GlyphClass: 2
Flags: W
AnchorPoint: "Anchor-2" 1125 811 basechar 0
AnchorPoint: "Anchor-0" 387 0 basechar 0
LayerCount: 2
Fore
SplineSet
476 112 m 1,0,1
 596 98 596 98 713 98 c 0,2,3
 808 98 808 98 910 126.5 c 128,-1,4
 1012 155 1012 155 1096.5 203 c 128,-1,5
 1181 251 1181 251 1236 321.5 c 128,-1,6
 1291 392 1291 392 1291 469 c 0,7,8
 1291 557 1291 557 1227 615 c 128,-1,9
 1163 673 1163 673 1067 673 c 0,10,11
 977 673 977 673 885.5 624 c 128,-1,12
 794 575 794 575 717.5 494 c 128,-1,13
 641 413 641 413 579 314.5 c 128,-1,14
 517 216 517 216 476 112 c 1,0,1
328 -46 m 0,15,16
 328 -34 328 -34 330 -21 c 128,-1,17
 332 -8 332 -8 336 7.5 c 128,-1,18
 340 23 340 23 341 31 c 1,19,20
 250 47 250 47 137 77 c 0,21,22
 102 87 102 87 102 123 c 0,23,24
 102 144 102 144 115 159.5 c 128,-1,25
 128 175 128 175 149 175 c 0,26,27
 153 175 153 175 163 173 c 0,28,29
 250 150 250 150 356 130 c 1,30,31
 386 367 386 367 386 678 c 0,32,33
 386 826 386 826 372.5 1060 c 128,-1,34
 359 1294 359 1294 359 1361 c 0,35,36
 359 1383 359 1383 374.5 1396 c 128,-1,37
 390 1409 390 1409 410 1409 c 0,38,39
 429 1409 429 1409 443.5 1397 c 128,-1,40
 458 1385 458 1385 459 1364 c 0,41,42
 487 957 487 957 487 683 c 0,43,44
 487 496 487 496 476 338 c 1,45,46
 527 426 527 426 588.5 500 c 128,-1,47
 650 574 650 574 724.5 637.5 c 128,-1,48
 799 701 799 701 887.5 737 c 128,-1,49
 976 773 976 773 1067 773 c 0,50,51
 1201 773 1201 773 1296 687 c 128,-1,52
 1391 601 1391 601 1391 469 c 0,53,54
 1391 379 1391 379 1346 300.5 c 128,-1,55
 1301 222 1301 222 1228.5 167.5 c 128,-1,56
 1156 113 1156 113 1065.5 74 c 128,-1,57
 975 35 975 35 884.5 16.5 c 128,-1,58
 794 -2 794 -2 713 -2 c 0,59,60
 579 -2 579 -2 443 15 c 1,61,62
 438 -2 438 -2 427 -55 c 0,63,64
 419 -93 419 -93 380 -93 c 0,65,66
 359 -93 359 -93 343.5 -80 c 128,-1,67
 328 -67 328 -67 328 -46 c 0,15,16
EndSplineSet
Substitution2: "'init' Initial Forms in Arabic lookup 6 subtable" uniFEC3
Substitution2: "'medi' Medial Forms in Arabic lookup 5 subtable" uniFEC4
Substitution2: "'fina' Terminal Forms in Arabic lookup 4 subtable" uniFEC2
EndChar

